STARTFONT 2.1
FONT -FontForge-Source Serif Pro Black-Black-R-Normal--30-290-75-75-P-161-ISO10646-1
SIZE 29 75 75
FONTBOUNDINGBOX 78 40 -7 -9
COMMENT "Generated by fontforge, http://fontforge.sourceforge.net"
COMMENT "(c) 2014 - 2019 Adobe Systems Incorporated (http://www.adobe.com/), with Reserved Font Name `Source'."
STARTPROPERTIES 41
FOUNDRY "FontForge"
FAMILY_NAME "Source Serif Pro Black"
WEIGHT_NAME "Black"
SLANT "R"
SETWIDTH_NAME "Normal"
ADD_STYLE_NAME ""
PIXEL_SIZE 30
POINT_SIZE 290
RESOLUTION_X 75
RESOLUTION_Y 75
SPACING "P"
AVERAGE_WIDTH 161
CHARSET_REGISTRY "ISO10646"
CHARSET_ENCODING "1"
FONTNAME_REGISTRY ""
CHARSET_COLLECTIONS "ISO8859-5 ISO8859-7 ISO10646-1"
FONT_NAME "SourceSerifPro-BlackIt"
FACE_NAME "Source Serif Pro Black Italic"
COPYRIGHT "(c) 2014 - 2019 Adobe Systems Incorporated (http://www.adobe.com/), with Reserved Font Name `Source'."
FONT_VERSION "3.001;hotconv 1.0.111;makeotfexe 2.5.65597"
FONT_ASCENT 24
FONT_DESCENT 6
UNDERLINE_POSITION -2
UNDERLINE_THICKNESS 2
X_HEIGHT 14
CAP_HEIGHT 19
RAW_ASCENT 800
RAW_DESCENT 200
ITALIC_ANGLE 4992
NORM_SPACE 6
RELATIVE_WEIGHT 90
RELATIVE_SETWIDTH 50
SUPERSCRIPT_X 2
SUPERSCRIPT_Y 10
SUPERSCRIPT_SIZE 18
SUBSCRIPT_X 0
SUBSCRIPT_Y 2
SUBSCRIPT_SIZE 18
FIGURE_WIDTH 17
AVG_LOWERCASE_WIDTH 166
AVG_UPPERCASE_WIDTH 196
ENDPROPERTIES
CHARS 1092
STARTCHAR space.dup1
ENCODING 32
SWIDTH 210 0
DWIDTH 6 0
BBX 1 1 0 0
BITMAP
00
ENDCHAR
STARTCHAR exclam
ENCODING 33
SWIDTH 306 0
DWIDTH 9 0
BBX 10 20 1 0
BITMAP
0F80
0F80
1FC0
1F80
1F80
1F80
1F00
1F00
1E00
1C00
1C00
1800
1800
0000
0000
3000
7800
FC00
FC00
7800
ENDCHAR
STARTCHAR quotedbl
ENCODING 34
SWIDTH 501 0
DWIDTH 15 0
BBX 11 11 5 11
BITMAP
6080
F1C0
F3E0
F3C0
F3C0
E3C0
E380
E380
C380
C300
8300
ENDCHAR
STARTCHAR numbersign
ENCODING 35
SWIDTH 603 0
DWIDTH 18 0
BBX 18 19 1 0
BITMAP
01C700
038700
038700
038600
3FFFC0
3FFFC0
3FFFC0
3FFF80
0E1C00
0E1C00
0E1C00
7FFF00
FFFF00
FFFF00
1C3800
1C7000
387000
387000
38F000
ENDCHAR
STARTCHAR dollar
ENCODING 36
SWIDTH 560 0
DWIDTH 17 0
BBX 15 25 2 -3
BITMAP
0060
00C0
00C0
07F0
1FFC
3CDC
3D9E
7D9C
7D88
7F80
3F80
3FE0
1FF0
0FF8
07F8
07F8
46F8
E6F8
E6F8
E6F0
EDE0
7FC0
0C00
0C00
1C00
ENDCHAR
STARTCHAR percent
ENCODING 37
SWIDTH 870 0
DWIDTH 26 0
BBX 23 20 2 -1
BITMAP
0F8030
1DC060
39C0C0
79C1C0
71C180
71C300
F1C600
F3CE7C
F3DCEE
7399CE
7733CE
3E738E
00E78E
00C78E
01879E
03871E
07071C
0603B8
0C01F0
040000
ENDCHAR
STARTCHAR ampersand
ENCODING 38
SWIDTH 752 0
DWIDTH 23 0
BBX 22 21 2 -1
BITMAP
01FC00
03DE00
078F00
0F0F00
0F0210
0F003C
0F003C
0FF078
1FF0F0
3DF3E0
7807C0
F80F00
F80380
F80180
FC0380
FE0380
FFFF80
7FFF00
3FFE00
1FF800
008000
ENDCHAR
STARTCHAR quotesingle
ENCODING 39
SWIDTH 288 0
DWIDTH 9 0
BBX 4 11 5 11
BITMAP
60
F0
F0
F0
F0
E0
E0
E0
C0
C0
80
ENDCHAR
STARTCHAR parenleft
ENCODING 40
SWIDTH 396 0
DWIDTH 12 0
BBX 11 26 3 -5
BITMAP
00C0
03E0
0780
0F00
1E00
1C00
3C00
7800
7800
7800
F000
F000
F000
F000
F000
E000
E000
E000
F000
F000
F000
7000
7800
3800
1C00
1C00
ENDCHAR
STARTCHAR parenright
ENCODING 41
SWIDTH 396 0
DWIDTH 12 0
BBX 10 26 0 -5
BITMAP
0600
0E00
0700
0780
0380
03C0
03C0
03C0
01C0
01C0
01C0
01C0
03C0
03C0
03C0
03C0
0380
0780
0780
0F00
0E00
1E00
3C00
7800
F000
C000
ENDCHAR
STARTCHAR asterisk
ENCODING 42
SWIDTH 466 0
DWIDTH 14 0
BBX 12 12 3 10
BITMAP
0E00
0E00
0E20
0E70
66F0
FFE0
FF00
07C0
0DE0
1CE0
1CE0
1800
ENDCHAR
STARTCHAR plus
ENCODING 43
SWIDTH 550 0
DWIDTH 17 0
BBX 14 14 2 3
BITMAP
0700
0700
0700
0700
0700
0700
FFFC
FFFC
FFFC
0700
0700
0700
0700
0700
ENDCHAR
STARTCHAR comma
ENCODING 44
SWIDTH 314 0
DWIDTH 9 0
BBX 7 10 0 -5
BITMAP
3C
7E
7E
7E
3C
1C
18
38
F0
C0
ENDCHAR
STARTCHAR hyphen.dup2
ENCODING 45
SWIDTH 358 0
DWIDTH 11 0
BBX 9 3 1 6
BITMAP
FF80
FF80
FF80
ENDCHAR
STARTCHAR period
ENCODING 46
SWIDTH 314 0
DWIDTH 9 0
BBX 6 5 1 0
BITMAP
78
7C
FC
FC
78
ENDCHAR
STARTCHAR slash
ENCODING 47
SWIDTH 410 0
DWIDTH 12 0
BBX 17 26 -2 -5
BITMAP
000780
000F00
000E00
001E00
001C00
003C00
003800
007800
007000
00F000
00E000
01E000
03C000
03C000
078000
078000
0F0000
0F0000
1E0000
1E0000
3C0000
3C0000
780000
780000
F00000
F00000
ENDCHAR
STARTCHAR zero
ENCODING 48
SWIDTH 560 0
DWIDTH 17 0
BBX 15 19 2 0
BITMAP
03F0
0FF8
1E3C
3E3E
3C3E
7C3E
783E
F83E
F83E
F83E
F83C
F07C
F07C
F078
F0F8
F0F0
F1F0
79E0
3F80
ENDCHAR
STARTCHAR one
ENCODING 49
SWIDTH 560 0
DWIDTH 17 0
BBX 12 19 2 0
BITMAP
00F0
0FF0
1FE0
03E0
03E0
03E0
07E0
07C0
07C0
07C0
07C0
0FC0
0F80
0F80
0F80
0F80
1F80
FFF0
FFF0
ENDCHAR
STARTCHAR two
ENCODING 50
SWIDTH 560 0
DWIDTH 17 0
BBX 15 19 1 0
BITMAP
03F8
07FC
0E3E
1E3E
3E3E
1C3E
1C3E
007C
0078
00F0
01E0
03C0
0700
0E00
1800
3FFC
7FFC
FFFC
FFFC
ENDCHAR
STARTCHAR three
ENCODING 51
SWIDTH 560 0
DWIDTH 17 0
BBX 14 19 2 0
BITMAP
07F0
1FF8
1C7C
3C3C
3C3C
103C
007C
0078
01E0
0780
0FF0
00F8
00F8
E0F8
E0F8
F0F8
F1F8
F7F0
7FC0
ENDCHAR
STARTCHAR four
ENCODING 52
SWIDTH 560 0
DWIDTH 17 0
BBX 16 20 1 -1
BITMAP
001E
003E
007E
00FC
01FC
03BC
037C
067C
0C78
1878
3078
60F8
7FFF
FFFE
FFFE
00F0
01F0
01F0
01E0
01E0
ENDCHAR
STARTCHAR five
ENCODING 53
SWIDTH 560 0
DWIDTH 17 0
BBX 15 19 2 0
BITMAP
07FE
0FFE
0FFE
0FFC
0800
1800
1800
1800
1FE0
3FF0
00F8
00F8
00FC
60FC
F0F8
F0F8
F1F0
73E0
3FC0
ENDCHAR
STARTCHAR six
ENCODING 54
SWIDTH 560 0
DWIDTH 17 0
BBX 16 19 2 0
BITMAP
001E
00FF
03F0
07C0
0F80
1F00
3E00
7C00
7FF0
FFF8
F87C
F87C
F83C
F83C
F87C
F87C
7878
7CF0
3FE0
ENDCHAR
STARTCHAR seven
ENCODING 55
SWIDTH 560 0
DWIDTH 17 0
BBX 15 19 2 0
BITMAP
3FFE
3FFE
3FFE
7FFC
001C
0038
0078
0070
00E0
01E0
03C0
0780
0780
0F00
1F00
3E00
7C00
7C00
F800
ENDCHAR
STARTCHAR eight
ENCODING 56
SWIDTH 560 0
DWIDTH 17 0
BBX 14 20 2 -1
BITMAP
07F0
0FF8
1C1C
3C1C
3C1C
3E1C
3F38
3FF0
1FC0
0FE0
0FF0
3BF8
71F8
F0F8
E078
E078
F0F0
F9F0
7FC0
0C00
ENDCHAR
STARTCHAR nine
ENCODING 57
SWIDTH 560 0
DWIDTH 17 0
BBX 15 20 2 -1
BITMAP
07F0
1F78
3E3C
3C3C
783E
783E
783E
783E
783E
7C3C
3FFC
1F7C
00F8
00F0
01E0
03C0
0F80
3E00
F800
8000
ENDCHAR
STARTCHAR colon
ENCODING 58
SWIDTH 338 0
DWIDTH 10 0
BBX 8 15 1 0
BITMAP
1F
1F
3F
3F
1E
00
00
00
00
00
78
7C
FC
FC
78
ENDCHAR
STARTCHAR semicolon
ENCODING 59
SWIDTH 338 0
DWIDTH 10 0
BBX 9 20 0 -5
BITMAP
0F80
0F80
1F80
1F80
0F00
0000
0000
0000
0000
0000
3C00
7E00
7E00
7E00
3C00
1C00
1800
3800
E000
8000
ENDCHAR
STARTCHAR less
ENCODING 60
SWIDTH 550 0
DWIDTH 17 0
BBX 13 15 2 2
BITMAP
0010
0078
01F8
07F0
1FC0
7F00
FC00
F000
FC00
3F80
0FE0
03F8
00F8
0038
0010
ENDCHAR
STARTCHAR equal
ENCODING 61
SWIDTH 550 0
DWIDTH 17 0
BBX 14 9 2 5
BITMAP
FFFC
FFFC
FFFC
0000
0000
0000
FFFC
FFFC
FFFC
ENDCHAR
STARTCHAR greater
ENCODING 62
SWIDTH 550 0
DWIDTH 17 0
BBX 14 15 2 2
BITMAP
2000
7800
FE00
3F80
0FE0
03F8
00FC
003C
01FC
07F0
1FC0
FF00
7C00
7000
4000
ENDCHAR
STARTCHAR question
ENCODING 63
SWIDTH 463 0
DWIDTH 14 0
BBX 13 20 2 0
BITMAP
0FE0
1EF0
3E78
3C78
1878
01F8
07F0
0FF0
3FE0
3F80
3E00
7800
7000
2000
0000
0000
F000
F800
F000
F000
ENDCHAR
STARTCHAR at
ENCODING 64
SWIDTH 856 0
DWIDTH 26 0
BBX 25 25 1 -5
BITMAP
00018000
003FF000
00F03C00
03800E00
07000600
0E0FB300
1C1FF300
1871E300
38E1E380
31E3E380
71E3E300
63C3C300
63C3C300
63C7C700
E3C7C600
E3EFCC00
63FFF800
63F7F000
71C1C000
70000000
38000000
1E000000
0FFF0000
07FF0000
00300000
ENDCHAR
STARTCHAR A
ENCODING 65
SWIDTH 693 0
DWIDTH 21 0
BBX 21 20 -1 0
BITMAP
000F00
001F00
001F00
003F00
003F00
007F00
006F80
00CF80
00CF80
018F80
018F80
030F80
0307C0
07FFC0
07FFC0
0C07C0
0C07C0
1807C0
FE1FF8
FE1FF8
ENDCHAR
STARTCHAR B
ENCODING 66
SWIDTH 639 0
DWIDTH 19 0
BBX 19 20 0 0
BITMAP
1FF800
1FFF80
07EFC0
07C7E0
07C3E0
07C3E0
07C7E0
0FC7C0
0F8F80
0FFC00
0FFF00
0F8780
1F87C0
1F87C0
1F07C0
1F07C0
1F07C0
3F1F80
FFFF00
FFFC00
ENDCHAR
STARTCHAR C
ENCODING 67
SWIDTH 605 0
DWIDTH 18 0
BBX 18 21 1 -1
BITMAP
00FF00
03FFC0
0FC1C0
1F81C0
3F01C0
3E01C0
7E0000
7C0000
7C0000
FC0000
FC0000
FC0000
FC0000
FC0000
7C0300
7C0700
7E0700
3E0700
1F8F00
0FFE00
004000
ENDCHAR
STARTCHAR D
ENCODING 68
SWIDTH 685 0
DWIDTH 21 0
BBX 21 20 0 0
BITMAP
1FF000
1FFF00
07EFC0
07C3E0
07C3F0
07C1F0
07C1F0
0FC1F8
0F81F8
0F81F8
0F81F8
0F81F8
1F81F0
1F83F0
1F03E0
1F07E0
1F0FC0
3F1F80
FFFE00
FFF000
ENDCHAR
STARTCHAR E
ENCODING 69
SWIDTH 587 0
DWIDTH 18 0
BBX 18 20 0 0
BITMAP
1FFFC0
1FFFC0
07E1C0
07C1C0
07C1C0
07C1C0
07C000
0FC600
0F8C00
0FFC00
0FFC00
0F8C00
1F8C00
1F8000
1F0000
1F0380
1F0300
3F0700
FFFF00
FFFF00
ENDCHAR
STARTCHAR F
ENCODING 70
SWIDTH 560 0
DWIDTH 17 0
BBX 19 20 0 0
BITMAP
1FFFE0
1FFFC0
07E1C0
07C1C0
07C1C0
07C1C0
07C000
0FC600
0F8C00
0FFC00
0FFC00
0F8C00
1F8C00
1F8000
1F0000
1F0000
1F0000
3F0000
FFC000
FFC000
ENDCHAR
STARTCHAR G
ENCODING 71
SWIDTH 662 0
DWIDTH 20 0
BBX 19 21 1 -1
BITMAP
00FF00
03FFC0
0FC1C0
1F81C0
1F01C0
3E01C0
7E0000
7E0000
7C0000
FC0000
FC7FE0
FC7FE0
FC0F80
FC1F80
FC1F80
7C1F00
7E1F00
3E1F00
1F9F00
07FE00
00C000
ENDCHAR
STARTCHAR H
ENCODING 72
SWIDTH 749 0
DWIDTH 22 0
BBX 24 20 0 0
BITMAP
1FFBFF
1FFBFF
07E0FC
07C0F8
07C0F8
07C0F8
07C1F8
0FC1F8
0F81F0
0FFFF0
0FFFF0
0F81F0
1F83F0
1F83E0
1F03E0
1F03E0
1F03E0
3F07E0
FFDFF8
FFDFF8
ENDCHAR
STARTCHAR I
ENCODING 73
SWIDTH 384 0
DWIDTH 12 0
BBX 13 20 0 0
BITMAP
1FF8
1FF8
07E0
07C0
07C0
07C0
07C0
0FC0
0F80
0F80
0F80
0F80
1F80
1F00
1F00
1F00
1F00
3F00
FFC0
FFC0
ENDCHAR
STARTCHAR J
ENCODING 74
SWIDTH 410 0
DWIDTH 12 0
BBX 16 22 -2 -2
BITMAP
03FF
03FF
007C
00FC
00FC
00F8
00F8
00F8
00F8
01F8
01F0
01F0
01F0
01F0
01E0
01E0
03E0
23C0
7B80
FF80
7E00
1800
ENDCHAR
STARTCHAR K
ENCODING 75
SWIDTH 688 0
DWIDTH 21 0
BBX 22 20 0 0
BITMAP
1FF8FC
1FF9FC
07C070
07C0C0
07C180
0FC300
0FC600
0F8C00
0F9C00
0FBC00
0FFE00
1FFE00
1FBF00
1F1F00
1F1F80
1F0F80
3F0FC0
3F07C0
FF8FF0
FF9FF0
ENDCHAR
STARTCHAR L
ENCODING 76
SWIDTH 564 0
DWIDTH 17 0
BBX 16 20 0 0
BITMAP
1FFC
1FF8
07E0
07C0
07C0
07C0
07C0
0FC0
0F80
0F80
0F80
0F80
1F80
1F80
1F03
1F07
1F07
3F0E
FFFE
FFFE
ENDCHAR
STARTCHAR M
ENCODING 77
SWIDTH 899 0
DWIDTH 27 0
BBX 29 20 -1 0
BITMAP
07F003F8
07F807F8
01F807E0
01F80FC0
01F80FC0
01F81FC0
03FC37C0
03FC3FC0
037C6FC0
027C6F80
067CCF80
067CCF80
067F8F80
043F0F80
043F1F80
0C3E1F80
0C3E1F00
0C3C1F00
7F1C7FC0
FF18FFC0
ENDCHAR
STARTCHAR N
ENCODING 78
SWIDTH 690 0
DWIDTH 21 0
BBX 24 20 -1 0
BITMAP
0FE0FF
0FE0FE
03F138
03F018
03F838
03F830
06FC30
06FC30
067E30
067E30
063F60
063F60
0C1FE0
0C1FE0
0C0FE0
0C0FC0
0C07C0
1807C0
7F83C0
FF03C0
ENDCHAR
STARTCHAR O
ENCODING 79
SWIDTH 672 0
DWIDTH 20 0
BBX 19 21 1 -1
BITMAP
00FE00
03FF80
0F87C0
1F03C0
1F03E0
3E03E0
7E03E0
7C03E0
7C03E0
FC03E0
FC03E0
FC03E0
FC07E0
FC07C0
FC07C0
7C0F80
7C0F80
7C1F00
3E7E00
0FF800
01C000
ENDCHAR
STARTCHAR P
ENCODING 80
SWIDTH 607 0
DWIDTH 18 0
BBX 19 20 0 0
BITMAP
1FF000
1FFF80
07EFC0
07C7E0
07C3E0
07C3E0
07C3E0
0FC3E0
0F87C0
0F87C0
0F9F80
0FFE00
1FE000
1F8000
1F0000
1F0000
1F0000
3F0000
FFC000
FFC000
ENDCHAR
STARTCHAR Q
ENCODING 81
SWIDTH 672 0
DWIDTH 20 0
BBX 19 27 1 -7
BITMAP
00FE00
03FF80
0F87C0
1F03C0
1F03E0
3E03E0
7E03E0
7C03E0
7C03E0
FC03E0
FC03E0
FC03E0
FC07E0
FC07C0
FC07C0
7C0F80
7C0F80
7C1F00
3E7E00
0FF800
07C000
03C000
03E000
03F000
01FFC0
00FF80
001800
ENDCHAR
STARTCHAR R
ENCODING 82
SWIDTH 676 0
DWIDTH 20 0
BBX 20 20 0 0
BITMAP
1FFE00
1FFFC0
07E7E0
07C3E0
07C3E0
07C3E0
07C3E0
0FC7C0
0F8F80
0FFE00
0FFE00
0F9F00
1F9F80
1F8F80
1F0F80
1F0F80
1F0FC0
3F0FC0
FFC7F0
FFC7F0
ENDCHAR
STARTCHAR S
ENCODING 83
SWIDTH 503 0
DWIDTH 15 0
BBX 15 21 1 -1
BITMAP
07F8
0FFE
1E1E
3E1E
3E1E
3E0E
3F00
3F80
3FC0
1FE0
1FF0
0FF8
03F8
01FC
E0FC
E0FC
E0F8
E0F8
F1F0
FFC0
0600
ENDCHAR
STARTCHAR T
ENCODING 84
SWIDTH 623 0
DWIDTH 19 0
BBX 19 20 2 0
BITMAP
7FFFE0
7FFFC0
71F1C0
71F1C0
E3F1C0
E3F1C0
03E000
03E000
03E000
03E000
07E000
07E000
07C000
07C000
07C000
0FC000
0FC000
0F8000
7FF000
7FF000
ENDCHAR
STARTCHAR U
ENCODING 85
SWIDTH 677 0
DWIDTH 20 0
BBX 20 21 3 -1
BITMAP
FFC7F0
FFC7F0
3E0180
7E0180
7E0180
7E0300
7E0300
7C0300
FC0300
FC0300
FC0700
FC0600
F80600
F80600
F80E00
F80C00
FC1C00
FE3800
7FF000
3FE000
030000
ENDCHAR
STARTCHAR V
ENCODING 86
SWIDTH 602 0
DWIDTH 18 0
BBX 19 20 2 0
BITMAP
FFC7E0
FFCFE0
7E0180
3E0300
3E0300
3F0600
3F0600
3F0C00
3F0C00
1F1800
1F1000
1F3000
1FA000
1FE000
1FC000
0FC000
0F8000
0F8000
0F0000
0F0000
ENDCHAR
STARTCHAR W
ENCODING 87
SWIDTH 895 0
DWIDTH 27 0
BBX 28 20 2 0
BITMAP
FF9FF3F0
FF9FF7F0
7E0781C0
7E0F8180
3E0F8100
3E1F8300
3E1FC300
3E1FC600
3E37C600
3E27CC00
3E67CC00
3E47C800
3FC7D800
3FC7D000
1F87F000
1F87E000
1F03E000
1F03E000
1E03C000
1E03C000
ENDCHAR
STARTCHAR X
ENCODING 88
SWIDTH 644 0
DWIDTH 19 0
BBX 21 20 0 0
BITMAP
1FF9F8
1FF1F8
07C0E0
07E1C0
07E180
03F300
03F600
03FC00
01FC00
01F800
00F800
00FC00
01FC00
037E00
067E00
0C3E00
1C3F00
383F00
FCFFC0
FCFFC0
ENDCHAR
STARTCHAR Y
ENCODING 89
SWIDTH 583 0
DWIDTH 17 0
BBX 19 20 2 0
BITMAP
FFC7E0
FFCFC0
3E0380
3F0300
3F0600
1F0C00
1F8C00
1F9800
0FB000
0FB000
0FE000
0FC000
07C000
07C000
0FC000
0F8000
0F8000
0F8000
7FE000
7FE000
ENDCHAR
STARTCHAR Z
ENCODING 90
SWIDTH 547 0
DWIDTH 16 0
BBX 18 20 0 0
BITMAP
1FFFC0
1FFFC0
1C1F80
1C1F80
383F00
387E00
007E00
00FC00
01F800
03F000
03F000
07E000
0FC000
0FC000
1F8700
3F0700
7E0700
7E0E00
FFFE00
FFFE00
ENDCHAR
STARTCHAR bracketleft
ENCODING 91
SWIDTH 361 0
DWIDTH 11 0
BBX 12 26 1 -5
BITMAP
07F0
0FC0
0F00
0F00
0F00
0F00
1F00
1E00
1E00
1E00
1E00
3E00
3C00
3C00
3C00
3C00
7C00
7800
7800
7800
7800
F000
F000
F000
FE00
FE00
ENDCHAR
STARTCHAR backslash
ENCODING 92
SWIDTH 406 0
DWIDTH 12 0
BBX 6 26 4 -5
BITMAP
E0
E0
F0
F0
F0
F0
F0
F0
70
70
70
70
78
78
78
78
78
78
38
38
38
38
3C
3C
3C
3C
ENDCHAR
STARTCHAR bracketright
ENCODING 93
SWIDTH 361 0
DWIDTH 11 0
BBX 13 26 -1 -5
BITMAP
07F8
01F0
00F0
00F0
00F0
01E0
01E0
01E0
01E0
01E0
03C0
03C0
03C0
03C0
03C0
0780
0780
0780
0780
0F80
0F00
0F00
0F00
0F00
FF00
FE00
ENDCHAR
STARTCHAR asciicircum
ENCODING 94
SWIDTH 550 0
DWIDTH 17 0
BBX 15 10 1 5
BITMAP
0780
07C0
0FE0
1EE0
1CF0
3C78
7838
703C
F01E
2008
ENDCHAR
STARTCHAR underscore
ENCODING 95
SWIDTH 558 0
DWIDTH 17 0
BBX 14 3 0 -2
BITMAP
FFFC
FFFC
FFFC
ENDCHAR
STARTCHAR grave
ENCODING 96
SWIDTH 400 0
DWIDTH 12 0
BBX 6 8 5 16
BITMAP
70
78
F8
78
7C
1C
0C
04
ENDCHAR
STARTCHAR a
ENCODING 97
SWIDTH 588 0
DWIDTH 18 0
BBX 17 15 1 0
BITMAP
00F980
03FF00
071F00
0E1F00
1E3F00
3C3E00
3C3E00
7C3E00
7C3E00
7C7C00
FC7C00
FCFC80
7FFF80
7F7F00
7E3E00
ENDCHAR
STARTCHAR b
ENCODING 98
SWIDTH 559 0
DWIDTH 17 0
BBX 15 21 2 0
BITMAP
0700
7F00
7F00
1F00
3E00
3E00
3E7C
3EFC
3FFE
7F7E
7C3E
7C3E
7C3E
7C3C
F87C
F87C
F878
F8F0
F8E0
FFC0
7F00
ENDCHAR
STARTCHAR c
ENCODING 99
SWIDTH 493 0
DWIDTH 15 0
BBX 14 15 1 0
BITMAP
03F0
07FC
1F7C
1E3C
3C3C
7C00
7C00
7C00
FC00
FC00
FC08
7E38
7FF0
3FE0
1FC0
ENDCHAR
STARTCHAR d
ENCODING 100
SWIDTH 591 0
DWIDTH 18 0
BBX 18 21 1 0
BITMAP
0003C0
003F80
003F80
000F80
000F80
000F80
00FF00
03FF00
071F00
0E1F00
1E3F00
3C3E00
3C3E00
7C3E00
7C3E00
7C7C00
FC7C00
FCFC80
7FFF80
7F7F00
7E3E00
ENDCHAR
STARTCHAR e
ENCODING 101
SWIDTH 496 0
DWIDTH 15 0
BBX 14 15 1 0
BITMAP
03F8
07FC
1F3C
1E3C
3C3C
7C7C
7CF8
7DE0
FF80
FC00
FC08
7E38
7FF0
3FE0
1FC0
ENDCHAR
STARTCHAR f
ENCODING 102
SWIDTH 362 0
DWIDTH 11 0
BBX 21 29 -5 -7
BITMAP
0003E0
000FF0
001EF8
001E78
003E20
003C00
007C00
00FFC0
01FF80
007C00
007C00
007C00
00F800
00F800
00F800
00F800
00F800
00F800
00F800
00F000
01F000
01F000
01F000
01E000
21E000
73C000
FBC000
7F8000
3E0000
ENDCHAR
STARTCHAR g
ENCODING 103
SWIDTH 550 0
DWIDTH 17 0
BBX 20 23 -1 -7
BITMAP
0000E0
01F9F0
03BDE0
071FE0
0F1F00
0F1E00
1F1E00
1F1E00
0F1C00
0F1C00
07F800
0D8000
1C0000
3FF000
3FFE00
3FFF00
1FFF00
307F00
700F00
F00E00
F81E00
7FF800
3FC000
ENDCHAR
STARTCHAR h
ENCODING 104
SWIDTH 593 0
DWIDTH 18 0
BBX 17 21 1 0
BITMAP
038000
3F8000
3F8000
0F8000
1F0000
1F0000
1F1E00
1F7F00
1EFF00
3FFF00
3F1F00
3E3F00
3E3E00
7E3E00
7C3E00
7C7E00
7C7C00
7C7C80
F87F80
F87F00
F87E00
ENDCHAR
STARTCHAR i
ENCODING 105
SWIDTH 325 0
DWIDTH 10 0
BBX 9 23 2 0
BITMAP
0200
0F00
1F80
1F00
0F00
0400
0000
0000
0E00
7E00
FE00
3E00
7E00
7C00
7C00
7C00
7C00
F800
F800
F900
FF00
FE00
FC00
ENDCHAR
STARTCHAR j
ENCODING 106
SWIDTH 304 0
DWIDTH 9 0
BBX 13 30 -2 -7
BITMAP
0020
00F0
01F8
01F0
00F0
0040
0000
0000
00E0
07E0
0FE0
03E0
07E0
07C0
07C0
07C0
07C0
0FC0
0F80
0F80
0F80
0F80
0F00
1F00
1F00
1E00
1E00
3C00
7800
E000
ENDCHAR
STARTCHAR k
ENCODING 107
SWIDTH 550 0
DWIDTH 17 0
BBX 16 21 1 0
BITMAP
0380
3F80
3F80
0F80
1F00
1F00
1F06
1F0F
1F1F
3E3F
3E7E
3FF8
3F00
7FE0
7DF0
7DF0
7CF8
7CF8
F8FC
F87E
F87F
ENDCHAR
STARTCHAR l
ENCODING 108
SWIDTH 318 0
DWIDTH 10 0
BBX 9 21 2 0
BITMAP
0780
7F00
7F00
1F00
3F00
3E00
3E00
3E00
3E00
7E00
7C00
7C00
7C00
7C00
F800
F800
F800
FB00
FE00
FE00
F800
ENDCHAR
STARTCHAR m
ENCODING 109
SWIDTH 880 0
DWIDTH 26 0
BBX 26 15 1 0
BITMAP
071E0F00
3F7F3F00
7FFF7F80
1FFFDF80
3F1F1F00
3E1F1F00
3E3F1F00
3E3E1F00
3E3E3E00
7C3E3E00
7C3E3E00
7C7E3EC0
7C7C7F80
7C7C7F00
F87C3E00
ENDCHAR
STARTCHAR n
ENCODING 110
SWIDTH 603 0
DWIDTH 18 0
BBX 18 15 1 0
BITMAP
071E00
3F3F00
7FFF00
1FDF00
3F1F00
3E1F00
3E1F00
3E3E00
3E3E00
7C3E00
7C3E00
7C7CC0
7C7F80
7C7F00
F87E00
ENDCHAR
STARTCHAR o
ENCODING 111
SWIDTH 551 0
DWIDTH 17 0
BBX 16 15 1 0
BITMAP
03F8
0FFC
1F3E
3E3E
3E3E
7C3F
7C3F
7C3E
FC3E
F83E
F87C
787C
7C78
3CF0
1FC0
ENDCHAR
STARTCHAR p
ENCODING 112
SWIDTH 568 0
DWIDTH 17 0
BBX 19 22 -2 -7
BITMAP
00E3C0
07EFE0
0FFFE0
03F7E0
07C3E0
07C3E0
07C3E0
07C3E0
07C3C0
0FC3C0
0F8780
0F8780
0F8F00
0FFC00
1FF800
1F0000
1F0000
1F0000
1F0000
3E0000
7F8000
FF8000
ENDCHAR
STARTCHAR q
ENCODING 113
SWIDTH 580 0
DWIDTH 17 0
BBX 17 22 1 -7
BITMAP
00FB80
03FF00
079F00
0E1F00
1E1F00
3C3F00
3C3E00
7C3E00
7C3E00
7C3E00
FC7C00
FC7C00
7FFC00
7F7C00
7E7C00
00F800
00F800
00F800
00F800
00F800
03FC00
07FC00
ENDCHAR
STARTCHAR r
ENCODING 114
SWIDTH 481 0
DWIDTH 14 0
BBX 15 15 1 0
BITMAP
073C
3F7E
7FFE
1EFC
3F80
3F00
3F00
3E00
3E00
7C00
7C00
7C00
7C00
7C00
F800
ENDCHAR
STARTCHAR s
ENCODING 115
SWIDTH 445 0
DWIDTH 13 0
BBX 13 15 1 0
BITMAP
07E0
1EF0
3CF0
3C78
3E20
3F00
3F80
1FC0
1FE0
0FE0
43F0
F3E0
F1E0
FBC0
7F80
ENDCHAR
STARTCHAR t
ENCODING 116
SWIDTH 352 0
DWIDTH 11 0
BBX 10 19 2 0
BITMAP
0700
0F00
0F00
1E00
7FC0
FFC0
3E00
3E00
7C00
7C00
7C00
7C00
7C00
F800
F800
F900
FF00
FE00
F800
ENDCHAR
STARTCHAR u
ENCODING 117
SWIDTH 598 0
DWIDTH 18 0
BBX 17 15 2 0
BITMAP
0E0700
7E3F00
FE3E00
3E3E00
7C3E00
7C3E00
7C7C00
7C7C00
F87C00
F87C00
F8FC00
F8F980
FFFF00
FEFE00
FC7C00
ENDCHAR
STARTCHAR v
ENCODING 118
SWIDTH 540 0
DWIDTH 16 0
BBX 16 15 1 0
BITMAP
1E0E
3E1F
7F1F
FF1F
1F1E
1F0E
1F0C
1F1C
1F18
0F30
0FE0
0FE0
0FC0
0F80
0F00
ENDCHAR
STARTCHAR w
ENCODING 119
SWIDTH 822 0
DWIDTH 25 0
BBX 24 15 1 0
BITMAP
1E000F
3F0F1F
7F0F1F
FF1F1F
1F1F8F
1F1F8E
1F3F8E
1F2F8C
1F6F98
0F4F98
0FCFB0
0F8FE0
0F87C0
0F0780
0F0780
ENDCHAR
STARTCHAR x
ENCODING 120
SWIDTH 602 0
DWIDTH 18 0
BBX 19 16 0 -1
BITMAP
0781E0
0FC3E0
1FC7E0
1FEDE0
03E800
01F800
01F000
01F000
00F800
00F800
01F800
737CC0
FE7F80
7C7F00
7C3E00
000C00
ENDCHAR
STARTCHAR y
ENCODING 121
SWIDTH 558 0
DWIDTH 17 0
BBX 18 22 -1 -7
BITMAP
0781C0
0F83C0
1FC3C0
3FC7C0
07C7C0
07C780
07C700
07CF00
07CE00
03CE00
03EC00
03F800
03F000
03F000
01E000
01C000
018000
618000
F30000
FE0000
F80000
700000
ENDCHAR
STARTCHAR z
ENCODING 122
SWIDTH 511 0
DWIDTH 15 0
BBX 16 16 0 -1
BITMAP
0E03
1FC7
3FF6
3FFE
3FF8
31F0
3060
30CE
030E
060E
0E0E
3FFE
3FFC
6FF8
E7F0
01E0
ENDCHAR
STARTCHAR braceleft
ENCODING 123
SWIDTH 334 0
DWIDTH 10 0
BBX 11 26 1 -5
BITMAP
03E0
0FC0
0F00
1F00
1F00
1F00
0F00
0F00
0F00
0E00
1E00
3C00
F000
F800
3C00
1C00
3C00
3C00
3C00
7800
F800
F800
F000
F800
7E00
1C00
ENDCHAR
STARTCHAR bar
ENCODING 124
SWIDTH 280 0
DWIDTH 8 0
BBX 3 31 3 -8
BITMAP
E0
E0
E0
E0
E0
E0
E0
E0
E0
E0
E0
E0
E0
E0
E0
E0
E0
E0
E0
E0
E0
E0
E0
E0
E0
E0
E0
E0
E0
E0
E0
ENDCHAR
STARTCHAR braceright
ENCODING 125
SWIDTH 334 0
DWIDTH 10 0
BBX 11 26 -1 -5
BITMAP
07C0
03E0
01E0
01E0
01E0
03E0
03C0
0780
0780
0780
0780
03C0
01E0
03E0
0700
0F00
0E00
1E00
1F00
1F00
1F00
1F00
1F00
3E00
FC00
E000
ENDCHAR
STARTCHAR asciitilde
ENCODING 126
SWIDTH 550 0
DWIDTH 17 0
BBX 14 6 2 7
BITMAP
3E1C
7F1C
7FBC
E3F8
E1F8
0060
ENDCHAR
STARTCHAR space
ENCODING 160
SWIDTH 210 0
DWIDTH 6 0
BBX 1 1 0 0
BITMAP
00
ENDCHAR
STARTCHAR exclamdown
ENCODING 161
SWIDTH 306 0
DWIDTH 9 0
BBX 9 20 0 -5
BITMAP
0F00
0F80
1F80
0F00
0E00
0000
0000
0C00
0C00
1C00
1C00
3C00
3C00
7C00
7C00
FC00
FC00
FC00
FC00
F800
ENDCHAR
STARTCHAR cent
ENCODING 162
SWIDTH 560 0
DWIDTH 17 0
BBX 14 21 2 -1
BITMAP
0060
0060
0060
01F0
0FF8
1EDC
3CDC
7C9C
799C
7980
F980
F980
F900
FB08
FF30
FFF0
7FE0
3F80
0E00
0600
0600
ENDCHAR
STARTCHAR sterling
ENCODING 163
SWIDTH 560 0
DWIDTH 17 0
BBX 15 19 1 0
BITMAP
03F8
0FFE
1F9E
1F1E
1F1E
1F0E
1F00
1F00
0F80
0F80
3FF0
3FF0
0E00
1C00
3800
7FFC
FFFC
FFF8
FFF8
ENDCHAR
STARTCHAR currency
ENCODING 164
SWIDTH 560 0
DWIDTH 17 0
BBX 15 15 2 2
BITMAP
E00E
E01E
F7DC
3FF8
1CF0
3838
3838
3038
3838
3870
1FF0
7FF8
F79E
E00E
C00E
ENDCHAR
STARTCHAR yen
ENCODING 165
SWIDTH 560 0
DWIDTH 17 0
BBX 17 19 2 0
BITMAP
7F9F80
FF9F80
3E0600
3E0C00
3E1800
1F1800
1F3000
1F6000
0F6000
7FF800
7FF800
0F8000
0F8000
FFF000
FFF000
1F0000
1F0000
7FC000
FFC000
ENDCHAR
STARTCHAR brokenbar
ENCODING 166
SWIDTH 280 0
DWIDTH 8 0
BBX 3 31 3 -8
BITMAP
E0
E0
E0
E0
E0
E0
E0
E0
E0
E0
E0
E0
E0
00
00
00
00
E0
E0
E0
E0
E0
E0
E0
E0
E0
E0
E0
E0
E0
E0
ENDCHAR
STARTCHAR section
ENCODING 167
SWIDTH 521 0
DWIDTH 16 0
BBX 14 24 1 -4
BITMAP
03F8
07BC
0F3C
0F1C
0F88
0FC0
0FE0
07F0
0FF8
3DFC
38FC
787C
7C3C
7E7C
7F78
3FE0
3FC0
1FE0
07E0
63E0
F3E0
F1E0
F3C0
3F80
ENDCHAR
STARTCHAR dieresis
ENCODING 168
SWIDTH 400 0
DWIDTH 12 0
BBX 12 5 3 17
BITMAP
70E0
F9F0
F9F0
F1E0
60C0
ENDCHAR
STARTCHAR copyright
ENCODING 169
SWIDTH 760 0
DWIDTH 23 0
BBX 21 21 2 -1
BITMAP
01FE00
07FF80
0E01C0
1C00E0
307E60
71E630
63C630
678630
C78010
C70018
C70030
C70030
C70030
C78C30
E38C60
61FCE0
7001C0
380380
1E0F00
07FC00
00C000
ENDCHAR
STARTCHAR ordfeminine
ENCODING 170
SWIDTH 390 0
DWIDTH 12 0
BBX 11 10 3 12
BITMAP
0760
1FC0
31C0
71C0
63C0
E380
E380
F7A0
FBC0
7380
ENDCHAR
STARTCHAR guillemotleft
ENCODING 171
SWIDTH 633 0
DWIDTH 19 0
BBX 17 13 2 1
BITMAP
018380
038700
0F0E00
1E3C00
3C7800
F8F000
F1E000
F9F000
78F000
3C7800
1E1C00
0E0E00
030600
ENDCHAR
STARTCHAR logicalnot
ENCODING 172
SWIDTH 550 0
DWIDTH 17 0
BBX 14 8 2 4
BITMAP
FFFC
FFFC
FFFC
001C
001C
001C
001C
001C
ENDCHAR
STARTCHAR hyphen.dup3
ENCODING 173
SWIDTH 358 0
DWIDTH 11 0
BBX 9 3 1 6
BITMAP
FF80
FF80
FF80
ENDCHAR
STARTCHAR registered
ENCODING 174
SWIDTH 474 0
DWIDTH 14 0
BBX 12 12 3 9
BITMAP
1FC0
3860
6230
4DB0
CD90
CE10
CD10
CDB0
50A0
6060
3FC0
0F00
ENDCHAR
STARTCHAR macron
ENCODING 175
SWIDTH 400 0
DWIDTH 12 0
BBX 10 2 4 18
BITMAP
7FC0
FF80
ENDCHAR
STARTCHAR degree
ENCODING 176
SWIDTH 328 0
DWIDTH 10 0
BBX 8 8 3 12
BITMAP
3C
77
C3
C1
C3
C3
7E
3C
ENDCHAR
STARTCHAR plusminus
ENCODING 177
SWIDTH 550 0
DWIDTH 17 0
BBX 14 16 1 0
BITMAP
0380
0380
0380
0380
FFFC
FFFC
FFFC
0380
0380
0380
0380
0380
0000
FFFC
FFFC
FFFC
ENDCHAR
STARTCHAR two.sups
ENCODING 178
SWIDTH 379 0
DWIDTH 11 0
BBX 10 12 3 12
BITMAP
0F80
3380
33C0
73C0
3380
0700
0E00
1C00
3000
7F80
FF80
FF80
ENDCHAR
STARTCHAR three.sups
ENCODING 179
SWIDTH 379 0
DWIDTH 11 0
BBX 10 12 3 12
BITMAP
1F80
3BC0
3BC0
21C0
0380
0F00
1F80
0780
63C0
E780
6F80
3E00
ENDCHAR
STARTCHAR acute
ENCODING 180
SWIDTH 400 0
DWIDTH 12 0
BBX 6 8 6 16
BITMAP
18
3C
7C
7C
78
F0
E0
80
ENDCHAR
STARTCHAR mu.dup4
ENCODING 181
SWIDTH 584 0
DWIDTH 18 0
BBX 19 21 -1 -6
BITMAP
07C3E0
0FC7C0
0F87C0
0F87C0
0F8FC0
0F8F80
0F8F80
1F0F80
1F0F80
1F1F00
1F1F00
1F3F00
1FFFE0
3FFFC0
3FCF80
3C0000
7C0000
7C0000
7C0000
FC0000
F00000
ENDCHAR
STARTCHAR paragraph
ENCODING 182
SWIDTH 674 0
DWIDTH 20 0
BBX 19 23 3 -3
BITMAP
001FE0
07FFE0
1FCF80
3FCF80
7FCF00
7F9F00
FF9F00
FF9F00
FF9F00
FF9E00
FF1E00
FF3E00
FF3E00
7F3E00
3F3E00
1F3C00
067C00
007C00
007C00
007C00
007800
00F800
00F800
ENDCHAR
STARTCHAR periodcentered
ENCODING 183
SWIDTH 310 0
DWIDTH 9 0
BBX 6 5 3 8
BITMAP
78
FC
FC
F8
F8
ENDCHAR
STARTCHAR cedilla
ENCODING 184
SWIDTH 400 0
DWIDTH 12 0
BBX 6 7 1 -7
BITMAP
18
30
38
0C
0C
FC
F8
ENDCHAR
STARTCHAR one.sups
ENCODING 185
SWIDTH 379 0
DWIDTH 11 0
BBX 8 12 4 12
BITMAP
07
3F
0F
1E
1E
1E
1E
1E
3C
3C
3C
FF
ENDCHAR
STARTCHAR ordmasculine
ENCODING 186
SWIDTH 365 0
DWIDTH 11 0
BBX 10 10 3 12
BITMAP
0F00
3B80
71C0
71C0
F1C0
E3C0
E380
E380
6700
3E00
ENDCHAR
STARTCHAR guillemotright
ENCODING 187
SWIDTH 633 0
DWIDTH 19 0
BBX 17 13 1 1
BITMAP
307000
383800
1E3C00
0F1E00
078F00
07C780
03C780
078F80
0F1E00
1E3C00
387000
70E000
C0C000
ENDCHAR
STARTCHAR onequarter
ENCODING 188
SWIDTH 870 0
DWIDTH 26 0
BBX 22 20 3 -1
BITMAP
070060
3F00E0
0F00C0
1E0180
1E0380
1E0700
1E0600
1E0C3C
3C1C38
3C3878
3C30B8
FF6178
00C278
01C470
038FFC
030FFC
060FFC
0E00F0
1C00E0
080000
ENDCHAR
STARTCHAR onehalf
ENCODING 189
SWIDTH 870 0
DWIDTH 26 0
BBX 22 20 3 -1
BITMAP
070060
3F00C0
0F0180
1E0380
1E0300
1E0600
1E0C00
1E1DF0
3C3B78
3C333C
3C673C
FFE338
01C070
0180E0
030180
070300
0E0FF8
0C0FF8
180FF8
080000
ENDCHAR
STARTCHAR threequarters
ENCODING 190
SWIDTH 870 0
DWIDTH 26 0
BBX 23 20 2 -1
BITMAP
1F8030
3BC070
31C060
31C0C0
0381C0
0F0380
1F0300
07861E
63CE1C
E79C3C
6F985C
7E30BC
00613C
00E238
01C7FE
0187FE
0307FE
070078
0E0070
040000
ENDCHAR
STARTCHAR questiondown
ENCODING 191
SWIDTH 463 0
DWIDTH 14 0
BBX 13 20 0 -5
BITMAP
0078
00F8
00F8
00F8
0070
0000
0020
0060
00E0
03E0
0FE0
3FC0
7FC0
7F00
FC00
F080
F1E0
E3E0
73C0
3F80
ENDCHAR
STARTCHAR Agrave
ENCODING 192
SWIDTH 693 0
DWIDTH 21 0
BBX 21 26 -1 0
BITMAP
00F000
00F800
00FC00
003E00
000700
000000
000F00
001F00
001F00
003F00
003F00
007F00
006F80
00CF80
00CF80
018F80
018F80
030F80
0307C0
07FFC0
07FFC0
0C07C0
0C07C0
1807C0
FE1FF8
FE1FF8
ENDCHAR
STARTCHAR Aacute
ENCODING 193
SWIDTH 693 0
DWIDTH 21 0
BBX 21 26 -1 0
BITMAP
0000F0
0001F0
0003E0
0007C0
000E00
000000
000F00
001F00
001F00
003F00
003F00
007F00
006F80
00CF80
00CF80
018F80
018F80
030F80
0307C0
07FFC0
07FFC0
0C07C0
0C07C0
1807C0
FE1FF8
FE1FF8
ENDCHAR
STARTCHAR Acircumflex
ENCODING 194
SWIDTH 693 0
DWIDTH 21 0
BBX 21 26 -1 0
BITMAP
000700
000F80
001FC0
0039C0
00E060
004020
000F00
001F00
001F00
003F00
003F00
007F00
006F80
00CF80
00CF80
018F80
018F80
030F80
0307C0
07FFC0
07FFC0
0C07C0
0C07C0
1807C0
FE1FF8
FE1FF8
ENDCHAR
STARTCHAR Atilde
ENCODING 195
SWIDTH 693 0
DWIDTH 21 0
BBX 21 26 -1 0
BITMAP
000C20
003E30
007FF0
0067E0
00C3C0
000000
000F00
001F00
001F00
003F00
003F00
007F00
006F80
00CF80
00CF80
018F80
018F80
030F80
0307C0
07FFC0
07FFC0
0C07C0
0C07C0
1807C0
FE1FF8
FE1FF8
ENDCHAR
STARTCHAR Adieresis
ENCODING 196
SWIDTH 693 0
DWIDTH 21 0
BBX 21 25 -1 0
BITMAP
0078F0
00F8F0
00F8F0
0070E0
000000
000F00
001F00
001F00
003F00
003F00
007F00
006F80
00CF80
00CF80
018F80
018F80
030F80
0307C0
07FFC0
07FFC0
0C07C0
0C07C0
1807C0
FE1FF8
FE1FF8
ENDCHAR
STARTCHAR Aring
ENCODING 197
SWIDTH 693 0
DWIDTH 21 0
BBX 21 27 -1 0
BITMAP
000700
001F80
001980
001980
001B80
000F00
000000
000F00
001F00
001F00
003F00
003F00
007F00
006F80
00CF80
00CF80
018F80
018F80
030F80
0307C0
07FFC0
07FFC0
0C07C0
0C07C0
1807C0
FE1FF8
FE1FF8
ENDCHAR
STARTCHAR AE
ENCODING 198
SWIDTH 905 0
DWIDTH 27 0
BBX 29 20 -1 0
BITMAP
001FFFF8
003FFFF8
0007F878
0006F870
000DF870
001DF870
0019F000
0031F180
0071F180
0063FF80
00C3FF80
0183E300
01FFE300
03FFE000
0603E000
0607E0E0
0C07E0E0
1807C0E0
FE1FFFE0
FE3FFFC0
ENDCHAR
STARTCHAR Ccedilla
ENCODING 199
SWIDTH 605 0
DWIDTH 18 0
BBX 18 27 1 -7
BITMAP
00FF00
03FFC0
0FC1C0
1F81C0
3F01C0
3E01C0
7E0000
7C0000
7C0000
FC0000
FC0000
FC0000
FC0000
FC0000
7C0300
7C0700
7E0700
3E0700
1F8F00
0FFE00
004000
00C000
00E000
003000
003000
03F000
03E000
ENDCHAR
STARTCHAR Egrave
ENCODING 200
SWIDTH 587 0
DWIDTH 18 0
BBX 18 26 0 0
BITMAP
01C000
01F000
01F800
00FC00
001C00
000000
1FFFC0
1FFFC0
07E1C0
07C1C0
07C1C0
07C1C0
07C000
0FC600
0F8C00
0FFC00
0FFC00
0F8C00
1F8C00
1F8000
1F0000
1F0380
1F0300
3F0700
FFFF00
FFFF00
ENDCHAR
STARTCHAR Eacute
ENCODING 201
SWIDTH 587 0
DWIDTH 18 0
BBX 18 26 0 0
BITMAP
000380
0007C0
001F80
003F00
003800
000000
1FFFC0
1FFFC0
07E1C0
07C1C0
07C1C0
07C1C0
07C000
0FC600
0F8C00
0FFC00
0FFC00
0F8C00
1F8C00
1F8000
1F0000
1F0380
1F0300
3F0700
FFFF00
FFFF00
ENDCHAR
STARTCHAR Ecircumflex
ENCODING 202
SWIDTH 587 0
DWIDTH 18 0
BBX 18 26 0 0
BITMAP
003C00
007E00
00FE00
01C700
038380
020100
1FFFC0
1FFFC0
07E1C0
07C1C0
07C1C0
07C1C0
07C000
0FC600
0F8C00
0FFC00
0FFC00
0F8C00
1F8C00
1F8000
1F0000
1F0380
1F0300
3F0700
FFFF00
FFFF00
ENDCHAR
STARTCHAR Edieresis
ENCODING 203
SWIDTH 587 0
DWIDTH 18 0
BBX 18 25 0 0
BITMAP
01E3C0
01E3C0
01E3C0
01C380
000000
1FFFC0
1FFFC0
07E1C0
07C1C0
07C1C0
07C1C0
07C000
0FC600
0F8C00
0FFC00
0FFC00
0F8C00
1F8C00
1F8000
1F0000
1F0380
1F0300
3F0700
FFFF00
FFFF00
ENDCHAR
STARTCHAR Igrave
ENCODING 204
SWIDTH 384 0
DWIDTH 12 0
BBX 13 26 0 0
BITMAP
1E00
1F00
0F80
07C0
00E0
0000
1FF8
1FF8
07E0
07C0
07C0
07C0
07C0
0FC0
0F80
0F80
0F80
0F80
1F80
1F00
1F00
1F00
1F00
3F00
FFC0
FFC0
ENDCHAR
STARTCHAR Iacute
ENCODING 205
SWIDTH 384 0
DWIDTH 12 0
BBX 14 26 0 0
BITMAP
003C
007C
00FC
01F0
0180
0000
1FF8
1FF8
07E0
07C0
07C0
07C0
07C0
0FC0
0F80
0F80
0F80
0F80
1F80
1F00
1F00
1F00
1F00
3F00
FFC0
FFC0
ENDCHAR
STARTCHAR Icircumflex
ENCODING 206
SWIDTH 384 0
DWIDTH 12 0
BBX 14 26 0 0
BITMAP
01E0
03F0
07F0
0E38
1C1C
1008
1FF8
1FF8
07E0
07C0
07C0
07C0
07C0
0FC0
0F80
0F80
0F80
0F80
1F80
1F00
1F00
1F00
1F00
3F00
FFC0
FFC0
ENDCHAR
STARTCHAR Idieresis
ENCODING 207
SWIDTH 384 0
DWIDTH 12 0
BBX 14 25 0 0
BITMAP
0F3C
0F3C
0F3C
0638
0000
1FF8
1FF8
07E0
07C0
07C0
07C0
07C0
0FC0
0F80
0F80
0F80
0F80
1F80
1F00
1F00
1F00
1F00
3F00
FFC0
FFC0
ENDCHAR
STARTCHAR Eth
ENCODING 208
SWIDTH 685 0
DWIDTH 21 0
BBX 21 20 0 0
BITMAP
1FF000
1FFF00
07EFC0
07C3E0
07C3F0
07C1F0
07C1F0
0FC1F8
0F81F8
3FF9F8
7FF1F8
0F81F8
1F81F0
1F83F0
1F03E0
1F07E0
1F0FC0
3F1F80
FFFE00
FFF000
ENDCHAR
STARTCHAR Ntilde
ENCODING 209
SWIDTH 690 0
DWIDTH 21 0
BBX 24 26 -1 0
BITMAP
000C10
001F18
003FF0
0067E0
0061C0
000000
0FE0FF
0FE0FE
03F138
03F018
03F838
03F830
06FC30
06FC30
067E30
067E30
063F60
063F60
0C1FE0
0C1FE0
0C0FE0
0C0FC0
0C07C0
1807C0
7F83C0
FF03C0
ENDCHAR
STARTCHAR Ograve
ENCODING 210
SWIDTH 672 0
DWIDTH 20 0
BBX 19 27 1 -1
BITMAP
03C000
03E000
01F000
00F800
001C00
000000
00FE00
03FF80
0F87C0
1F03C0
1F03E0
3E03E0
7E03E0
7C03E0
7C03E0
FC03E0
FC03E0
FC03E0
FC07E0
FC07C0
FC07C0
7C0F80
7C0F80
7C1F00
3E7E00
0FF800
01C000
ENDCHAR
STARTCHAR Oacute
ENCODING 211
SWIDTH 672 0
DWIDTH 20 0
BBX 19 27 1 -1
BITMAP
000380
000FC0
001F80
003F00
003800
000000
00FE00
03FF80
0F87C0
1F03C0
1F03E0
3E03E0
7E03E0
7C03E0
7C03E0
FC03E0
FC03E0
FC03E0
FC07E0
FC07C0
FC07C0
7C0F80
7C0F80
7C1F00
3E7E00
0FF800
01C000
ENDCHAR
STARTCHAR Ocircumflex
ENCODING 212
SWIDTH 672 0
DWIDTH 20 0
BBX 19 27 1 -1
BITMAP
001C00
003E00
007F00
00E700
018180
010080
00FE00
03FF80
0F87C0
1F03C0
1F03E0
3E03E0
7E03E0
7C03E0
7C03E0
FC03E0
FC03E0
FC03E0
FC07E0
FC07C0
FC07C0
7C0F80
7C0F80
7C1F00
3E7E00
0FF800
01C000
ENDCHAR
STARTCHAR Otilde
ENCODING 213
SWIDTH 672 0
DWIDTH 20 0
BBX 19 27 1 -1
BITMAP
002080
00F8C0
01FF80
019F80
030F00
000000
00FE00
03FF80
0F87C0
1F03C0
1F03E0
3E03E0
7E03E0
7C03E0
7C03E0
FC03E0
FC03E0
FC03E0
FC07E0
FC07C0
FC07C0
7C0F80
7C0F80
7C1F00
3E7E00
0FF800
01C000
ENDCHAR
STARTCHAR Odieresis
ENCODING 214
SWIDTH 672 0
DWIDTH 20 0
BBX 19 26 1 -1
BITMAP
01C380
03C7C0
03C780
018380
000000
00FE00
03FF80
0F87C0
1F03C0
1F03E0
3E03E0
7E03E0
7C03E0
7C03E0
FC03E0
FC03E0
FC03E0
FC07E0
FC07C0
FC07C0
7C0F80
7C0F80
7C1F00
3E7E00
0FF800
01C000
ENDCHAR
STARTCHAR multiply
ENCODING 215
SWIDTH 550 0
DWIDTH 17 0
BBX 14 13 2 3
BITMAP
6010
F03C
7878
3CF0
1FE0
0FC0
0780
0FC0
1FE0
3CF0
7878
F03C
2010
ENDCHAR
STARTCHAR Oslash
ENCODING 216
SWIDTH 672 0
DWIDTH 20 0
BBX 21 22 0 -1
BITMAP
000010
007F38
01FFF0
07C3E0
0F81E0
0F83F0
1F07F0
3F0FF0
3E0FF0
3E1DF0
7E39F0
7C71F0
7CE1F0
7DC1F0
7F83E0
7F03E0
3E07C0
3E07C0
3E0F80
7F3F00
EFFC00
40E000
ENDCHAR
STARTCHAR Ugrave
ENCODING 217
SWIDTH 677 0
DWIDTH 20 0
BBX 20 27 3 -1
BITMAP
03C000
03E000
03F000
00F800
003800
000000
FFC7F0
FFC7F0
3E0180
7E0180
7E0180
7E0300
7E0300
7C0300
FC0300
FC0300
FC0700
FC0600
F80600
F80600
F80E00
F80C00
FC1C00
FE3800
7FF000
3FE000
030000
ENDCHAR
STARTCHAR Uacute
ENCODING 218
SWIDTH 677 0
DWIDTH 20 0
BBX 20 27 3 -1
BITMAP
000780
000F80
001F80
003E00
007000
000000
FFC7F0
FFC7F0
3E0180
7E0180
7E0180
7E0300
7E0300
7C0300
FC0300
FC0300
FC0700
FC0600
F80600
F80600
F80E00
F80C00
FC1C00
FE3800
7FF000
3FE000
030000
ENDCHAR
STARTCHAR Ucircumflex
ENCODING 219
SWIDTH 677 0
DWIDTH 20 0
BBX 20 27 3 -1
BITMAP
003C00
007C00
00FE00
01C700
030380
020100
FFC7F0
FFC7F0
3E0180
7E0180
7E0180
7E0300
7E0300
7C0300
FC0300
FC0300
FC0700
FC0600
F80600
F80600
F80E00
F80C00
FC1C00
FE3800
7FF000
3FE000
030000
ENDCHAR
STARTCHAR Udieresis
ENCODING 220
SWIDTH 677 0
DWIDTH 20 0
BBX 20 26 3 -1
BITMAP
03C780
03C780
03C780
018300
000000
FFC7F0
FFC7F0
3E0180
7E0180
7E0180
7E0300
7E0300
7C0300
FC0300
FC0300
FC0700
FC0600
F80600
F80600
F80E00
F80C00
FC1C00
FE3800
7FF000
3FE000
030000
ENDCHAR
STARTCHAR Yacute
ENCODING 221
SWIDTH 583 0
DWIDTH 17 0
BBX 19 26 2 0
BITMAP
000F00
001F00
003F00
007C00
00E000
000000
FFC7E0
FFCFC0
3E0380
3F0300
3F0600
1F0C00
1F8C00
1F9800
0FB000
0FB000
0FE000
0FC000
07C000
07C000
0FC000
0F8000
0F8000
0F8000
7FE000
7FE000
ENDCHAR
STARTCHAR Thorn
ENCODING 222
SWIDTH 607 0
DWIDTH 18 0
BBX 19 20 0 0
BITMAP
1FF800
1FF800
07E000
07C000
07FE00
07FF80
07C7C0
0FC7C0
0F87E0
0F83E0
0F87E0
0F87C0
1F87C0
1F0F80
1FFF00
1FFC00
1F0000
3F0000
FFC000
FFC000
ENDCHAR
STARTCHAR germandbls
ENCODING 223
SWIDTH 616 0
DWIDTH 18 0
BBX 24 29 -5 -7
BITMAP
0001FC
00079E
001F0F
001E0F
003E1F
003C1E
007C38
007C60
007CE0
007CE0
007DE0
00F9F0
00F9F0
00F9F8
00F9FC
00F8FE
00F87E
00F83F
00F39E
01F79E
01F39E
01F3FC
01F000
01E000
21E000
F3C000
FBC000
7F8000
3E0000
ENDCHAR
STARTCHAR agrave
ENCODING 224
SWIDTH 588 0
DWIDTH 18 0
BBX 17 24 1 0
BITMAP
018000
03C000
03C000
03E000
01E000
00E000
007000
002000
000000
00F980
03FF00
071F00
0E1F00
1E3F00
3C3E00
3C3E00
7C3E00
7C3E00
7C7C00
FC7C00
FCFC80
7FFF80
7F7F00
7E3E00
ENDCHAR
STARTCHAR aacute
ENCODING 225
SWIDTH 588 0
DWIDTH 18 0
BBX 17 24 1 0
BITMAP
000600
000F00
001F00
001E00
001E00
003C00
003800
002000
000000
00F980
03FF00
071F00
0E1F00
1E3F00
3C3E00
3C3E00
7C3E00
7C3E00
7C7C00
FC7C00
FCFC80
7FFF80
7F7F00
7E3E00
ENDCHAR
STARTCHAR acircumflex
ENCODING 226
SWIDTH 588 0
DWIDTH 18 0
BBX 17 23 1 0
BITMAP
003800
007C00
00FC00
00FE00
01CE00
030300
020200
000000
00F980
03FF00
071F00
0E1F00
1E3F00
3C3E00
3C3E00
7C3E00
7C3E00
7C7C00
FC7C00
FCFC80
7FFF80
7F7F00
7E3E00
ENDCHAR
STARTCHAR atilde
ENCODING 227
SWIDTH 588 0
DWIDTH 18 0
BBX 17 22 1 0
BITMAP
00E180
01F980
03FF00
033F00
061E00
000000
000000
00F980
03FF00
071F00
0E1F00
1E3F00
3C3E00
3C3E00
7C3E00
7C3E00
7C7C00
FC7C00
FCFC80
7FFF80
7F7F00
7E3E00
ENDCHAR
STARTCHAR adieresis
ENCODING 228
SWIDTH 588 0
DWIDTH 18 0
BBX 17 22 1 0
BITMAP
03C780
07CF80
07CF80
03C780
010200
000000
000000
00F980
03FF00
071F00
0E1F00
1E3F00
3C3E00
3C3E00
7C3E00
7C3E00
7C7C00
FC7C00
FCFC80
7FFF80
7F7F00
7E3E00
ENDCHAR
STARTCHAR aring
ENCODING 229
SWIDTH 588 0
DWIDTH 18 0
BBX 17 24 1 0
BITMAP
003800
007E00
00C600
00C600
00C600
00EE00
007C00
000000
000000
00F980
03FF00
071F00
0E1F00
1E3F00
3C3E00
3C3E00
7C3E00
7C3E00
7C7C00
FC7C00
FCFC80
7FFF80
7F7F00
7E3E00
ENDCHAR
STARTCHAR ae
ENCODING 230
SWIDTH 792 0
DWIDTH 24 0
BBX 23 15 1 0
BITMAP
00F9F8
03FFFE
071F9E
0E1F1E
1E1E1E
3C3E3E
3C3E7C
7C3CF0
7C7FC0
7C7E00
FC7E04
FCFF1C
7FBFF8
7F3FF0
7E0FE0
ENDCHAR
STARTCHAR ccedilla
ENCODING 231
SWIDTH 493 0
DWIDTH 15 0
BBX 14 22 1 -7
BITMAP
03F0
07FC
1F7C
1E3C
3C3C
7C00
7C00
7C00
FC00
FC00
FC08
7E38
7FF0
3FE0
1FC0
0600
0400
0F00
0380
0380
1F00
3E00
ENDCHAR
STARTCHAR egrave
ENCODING 232
SWIDTH 496 0
DWIDTH 15 0
BBX 14 24 1 0
BITMAP
0300
0780
07C0
03C0
03C0
01E0
00E0
0020
0000
03F8
07FC
1F3C
1E3C
3C3C
7C7C
7CF8
7DE0
FF80
FC00
FC08
7E38
7FF0
3FE0
1FC0
ENDCHAR
STARTCHAR eacute
ENCODING 233
SWIDTH 496 0
DWIDTH 15 0
BBX 15 24 1 0
BITMAP
000C
001E
003E
003E
003C
0078
0070
0040
0000
03F8
07FC
1F3C
1E3C
3C3C
7C7C
7CF8
7DE0
FF80
FC00
FC08
7E38
7FF0
3FE0
1FC0
ENDCHAR
STARTCHAR ecircumflex
ENCODING 234
SWIDTH 496 0
DWIDTH 15 0
BBX 15 23 1 0
BITMAP
0070
00F0
01F8
03FC
079C
0E0E
0404
0000
03F8
07FC
1F3C
1E3C
3C3C
7C7C
7CF8
7DE0
FF80
FC00
FC08
7E38
7FF0
3FE0
1FC0
ENDCHAR
STARTCHAR edieresis
ENCODING 235
SWIDTH 496 0
DWIDTH 15 0
BBX 16 22 1 0
BITMAP
078F
078F
0F9F
078F
0204
0000
0000
03F8
07FC
1F3C
1E3C
3C3C
7C7C
7CF8
7DE0
FF80
FC00
FC08
7E38
7FF0
3FE0
1FC0
ENDCHAR
STARTCHAR igrave
ENCODING 236
SWIDTH 325 0
DWIDTH 10 0
BBX 8 24 2 0
BITMAP
60
F0
F0
F8
78
38
1C
08
00
0E
7E
FE
3E
7E
7C
7C
7C
7C
F8
F8
F9
FF
FE
FC
ENDCHAR
STARTCHAR iacute
ENCODING 237
SWIDTH 325 0
DWIDTH 10 0
BBX 10 24 2 0
BITMAP
0180
03C0
03C0
07C0
0780
0700
0600
0C00
0000
0E00
7E00
FE00
3E00
7E00
7C00
7C00
7C00
7C00
F800
F800
F900
FF00
FE00
FC00
ENDCHAR
STARTCHAR icircumflex
ENCODING 238
SWIDTH 325 0
DWIDTH 10 0
BBX 11 23 2 0
BITMAP
0600
0F00
1F80
3F80
71C0
E0E0
4040
0000
0E00
7E00
FE00
3E00
7E00
7C00
7C00
7C00
7C00
F800
F800
F900
FF00
FE00
FC00
ENDCHAR
STARTCHAR idieresis
ENCODING 239
SWIDTH 325 0
DWIDTH 10 0
BBX 12 22 2 0
BITMAP
78E0
7DF0
79F0
79E0
2080
0000
0000
0E00
7E00
FE00
3E00
7E00
7C00
7C00
7C00
7C00
F800
F800
F900
FF00
FE00
FC00
ENDCHAR
STARTCHAR eth
ENCODING 240
SWIDTH 538 0
DWIDTH 16 0
BBX 15 22 1 0
BITMAP
0300
07C6
01FE
00F8
01F8
073C
043C
00BC
07FE
1F3E
3E3E
3E3E
7C3E
7C3E
FC3E
FC3E
F83C
F87C
F87C
7CF8
7DF0
1FC0
ENDCHAR
STARTCHAR ntilde
ENCODING 241
SWIDTH 603 0
DWIDTH 18 0
BBX 18 22 1 0
BITMAP
01E100
03F300
07FF00
067E00
041C00
000000
000000
071E00
3F3F00
7FFF00
1FDF00
3F1F00
3E1F00
3E1F00
3E3E00
3E3E00
7C3E00
7C3E00
7C7CC0
7C7F80
7C7F00
F87E00
ENDCHAR
STARTCHAR ograve
ENCODING 242
SWIDTH 551 0
DWIDTH 17 0
BBX 16 24 1 0
BITMAP
0200
0780
0780
0780
03C0
01C0
00C0
0040
0000
03F8
0FFC
1F3E
3E3E
3E3E
7C3F
7C3F
7C3E
FC3E
F83E
F87C
787C
7C78
3CF0
1FC0
ENDCHAR
STARTCHAR oacute
ENCODING 243
SWIDTH 551 0
DWIDTH 17 0
BBX 16 24 1 0
BITMAP
000C
001E
003E
003E
003C
0078
0070
0040
0000
03F8
0FFC
1F3E
3E3E
3E3E
7C3F
7C3F
7C3E
FC3E
F83E
F87C
787C
7C78
3CF0
1FC0
ENDCHAR
STARTCHAR ocircumflex
ENCODING 244
SWIDTH 551 0
DWIDTH 17 0
BBX 16 23 1 0
BITMAP
0070
00F8
01F8
03FC
039C
0606
0404
0000
03F8
0FFC
1F3E
3E3E
3E3E
7C3F
7C3F
7C3E
FC3E
F83E
F87C
787C
7C78
3CF0
1FC0
ENDCHAR
STARTCHAR otilde
ENCODING 245
SWIDTH 551 0
DWIDTH 17 0
BBX 16 22 1 0
BITMAP
01E1
03F3
07FF
067E
041C
0000
0000
03F8
0FFC
1F3E
3E3E
3E3E
7C3F
7C3F
7C3E
FC3E
F83E
F87C
787C
7C78
3CF0
1FC0
ENDCHAR
STARTCHAR odieresis
ENCODING 246
SWIDTH 551 0
DWIDTH 17 0
BBX 16 22 1 0
BITMAP
078F
078F
0F9F
078F
0204
0000
0000
03F8
0FFC
1F3E
3E3E
3E3E
7C3F
7C3F
7C3E
FC3E
F83E
F87C
787C
7C78
3CF0
1FC0
ENDCHAR
STARTCHAR divide
ENCODING 247
SWIDTH 550 0
DWIDTH 17 0
BBX 14 15 2 2
BITMAP
0700
0780
0780
0700
0000
0000
FFFC
FFFC
FFFC
0000
0000
0700
0780
0780
0300
ENDCHAR
STARTCHAR oslash
ENCODING 248
SWIDTH 551 0
DWIDTH 17 0
BBX 17 17 0 -1
BITMAP
000080
01FD80
07FF00
0F9F00
1F0F00
1E1F00
3E3F80
3E6F80
3CDF00
7D9F00
7F1F00
7E1E00
3C3E00
3C3C00
3EF800
EFE000
400000
ENDCHAR
STARTCHAR ugrave
ENCODING 249
SWIDTH 598 0
DWIDTH 18 0
BBX 17 24 2 0
BITMAP
030000
078000
078000
07C000
03C000
01C000
00C000
006000
000000
0E0700
7E3F00
FE3E00
3E3E00
7C3E00
7C3E00
7C7C00
7C7C00
F87C00
F87C00
F8FC00
F8F980
FFFF00
FEFE00
FC7C00
ENDCHAR
STARTCHAR uacute
ENCODING 250
SWIDTH 598 0
DWIDTH 18 0
BBX 17 24 2 0
BITMAP
001800
003C00
003C00
003C00
007800
007000
006000
004000
000000
0E0700
7E3F00
FE3E00
3E3E00
7C3E00
7C3E00
7C7C00
7C7C00
F87C00
F87C00
F8FC00
F8F980
FFFF00
FEFE00
FC7C00
ENDCHAR
STARTCHAR ucircumflex
ENCODING 251
SWIDTH 598 0
DWIDTH 18 0
BBX 17 23 2 0
BITMAP
006000
00F000
01F800
03F800
071C00
0E0C00
080400
000000
0E0700
7E3F00
FE3E00
3E3E00
7C3E00
7C3E00
7C7C00
7C7C00
F87C00
F87C00
F8FC00
F8F980
FFFF00
FEFE00
FC7C00
ENDCHAR
STARTCHAR udieresis
ENCODING 252
SWIDTH 598 0
DWIDTH 18 0
BBX 17 22 2 0
BITMAP
070E00
0F9F00
0F9F00
0F1E00
020400
000000
000000
0E0700
7E3F00
FE3E00
3E3E00
7C3E00
7C3E00
7C7C00
7C7C00
F87C00
F87C00
F8FC00
F8F980
FFFF00
FEFE00
FC7C00
ENDCHAR
STARTCHAR yacute
ENCODING 253
SWIDTH 558 0
DWIDTH 17 0
BBX 18 31 -1 -7
BITMAP
000300
000780
000780
000F80
000F00
000E00
001C00
000800
000000
0781C0
0F83C0
1FC3C0
3FC7C0
07C7C0
07C780
07C700
07CF00
07CE00
03CE00
03EC00
03F800
03F000
03F000
01E000
01C000
018000
618000
F30000
FE0000
F80000
700000
ENDCHAR
STARTCHAR thorn
ENCODING 254
SWIDTH 560 0
DWIDTH 17 0
BBX 19 28 -2 -7
BITMAP
007000
07F000
07F000
01F000
03E000
03E000
03E7C0
03EFE0
03FFE0
07F7E0
07C3E0
07C3E0
07C3E0
07C3C0
0F83C0
0F87C0
0F8780
0F8F00
1F8E00
1FFC00
1FF800
1F0000
1E0000
3E0000
3E0000
3E0000
FF8000
FF8000
ENDCHAR
STARTCHAR ydieresis
ENCODING 255
SWIDTH 558 0
DWIDTH 17 0
BBX 18 29 -1 -7
BITMAP
01E3C0
01E3C0
03E7C0
01E3C0
008100
000000
000000
0781C0
0F83C0
1FC3C0
3FC7C0
07C7C0
07C780
07C700
07CF00
07CE00
03CE00
03EC00
03F800
03F000
03F000
01E000
01C000
018000
618000
F30000
FE0000
F80000
700000
ENDCHAR
STARTCHAR Amacron
ENCODING 256
SWIDTH 693 0
DWIDTH 21 0
BBX 21 24 -1 0
BITMAP
007FE0
007FE0
000000
000000
000F00
001F00
001F00
003F00
003F00
007F00
006F80
00CF80
00CF80
018F80
018F80
030F80
0307C0
07FFC0
07FFC0
0C07C0
0C07C0
1807C0
FE1FF8
FE1FF8
ENDCHAR
STARTCHAR amacron
ENCODING 257
SWIDTH 588 0
DWIDTH 18 0
BBX 17 20 1 0
BITMAP
01FF00
01FF00
000000
000000
000000
00F980
03FF00
071F00
0E1F00
1E3F00
3C3E00
3C3E00
7C3E00
7C3E00
7C7C00
FC7C00
FCFC80
7FFF80
7F7F00
7E3E00
ENDCHAR
STARTCHAR Abreve
ENCODING 258
SWIDTH 693 0
DWIDTH 21 0
BBX 21 26 -1 0
BITMAP
002020
007070
003FE0
003FC0
000F80
000000
000F00
001F00
001F00
003F00
003F00
007F00
006F80
00CF80
00CF80
018F80
018F80
030F80
0307C0
07FFC0
07FFC0
0C07C0
0C07C0
1807C0
FE1FF8
FE1FF8
ENDCHAR
STARTCHAR abreve
ENCODING 259
SWIDTH 588 0
DWIDTH 18 0
BBX 17 22 1 0
BITMAP
010180
018300
01FF00
01FE00
00FC00
000000
000000
00F980
03FF00
071F00
0E1F00
1E3F00
3C3E00
3C3E00
7C3E00
7C3E00
7C7C00
FC7C00
FCFC80
7FFF80
7F7F00
7E3E00
ENDCHAR
STARTCHAR Aogonek
ENCODING 260
SWIDTH 693 0
DWIDTH 21 0
BBX 21 27 -1 -7
BITMAP
000F00
001F00
001F00
003F00
003F00
007F00
006F80
00CF80
00CF80
018F80
018F80
030F80
0307C0
07FFC0
07FFC0
0C07C0
0C07C0
1807C0
FE1FF8
FE1FF8
000080
000180
000300
000700
000720
0007E0
0003C0
ENDCHAR
STARTCHAR aogonek
ENCODING 261
SWIDTH 588 0
DWIDTH 18 0
BBX 17 22 1 -7
BITMAP
00F980
03FF00
071F00
0E1F00
1E3F00
3C3E00
3C3E00
7C3E00
7C3E00
7C7C00
FC7C00
FCFC80
7FFF80
7F7F00
7E3E00
000C00
001800
003800
003800
007900
003F00
003C00
ENDCHAR
STARTCHAR Cacute
ENCODING 262
SWIDTH 605 0
DWIDTH 18 0
BBX 19 27 1 -1
BITMAP
0001E0
0003E0
0007E0
000F80
001C00
000000
00FF00
03FFC0
0FC1C0
1F81C0
3F01C0
3E01C0
7E0000
7C0000
7C0000
FC0000
FC0000
FC0000
FC0000
FC0000
7C0300
7C0700
7E0700
3E0700
1F8F00
0FFE00
004000
ENDCHAR
STARTCHAR cacute
ENCODING 263
SWIDTH 493 0
DWIDTH 15 0
BBX 15 24 1 0
BITMAP
000C
001E
001E
003E
003C
0038
0070
0020
0000
03F0
07FC
1F7C
1E3C
3C3C
7C00
7C00
7C00
FC00
FC00
FC08
7E38
7FF0
3FE0
1FC0
ENDCHAR
STARTCHAR Ccircumflex
ENCODING 264
SWIDTH 605 0
DWIDTH 18 0
BBX 18 27 1 -1
BITMAP
001E00
003F00
007F00
00E380
01C1C0
010080
00FF00
03FFC0
0FC1C0
1F81C0
3F01C0
3E01C0
7E0000
7C0000
7C0000
FC0000
FC0000
FC0000
FC0000
FC0000
7C0300
7C0700
7E0700
3E0700
1F8F00
0FFE00
004000
ENDCHAR
STARTCHAR ccircumflex
ENCODING 265
SWIDTH 493 0
DWIDTH 15 0
BBX 15 23 1 0
BITMAP
0070
00F0
01F8
03F8
071C
0E0E
0404
0000
03F0
07FC
1F7C
1E3C
3C3C
7C00
7C00
7C00
FC00
FC00
FC08
7E38
7FF0
3FE0
1FC0
ENDCHAR
STARTCHAR Cdotaccent
ENCODING 266
SWIDTH 605 0
DWIDTH 18 0
BBX 18 27 1 -1
BITMAP
000700
000F00
000F00
000F00
000600
000000
00FF00
03FFC0
0FC1C0
1F81C0
3F01C0
3E01C0
7E0000
7C0000
7C0000
FC0000
FC0000
FC0000
FC0000
FC0000
7C0300
7C0700
7E0700
3E0700
1F8F00
0FFE00
004000
ENDCHAR
STARTCHAR cdotaccent
ENCODING 267
SWIDTH 493 0
DWIDTH 15 0
BBX 14 23 1 0
BITMAP
0020
0078
00F8
00F8
00F0
0020
0000
0000
03F0
07FC
1F7C
1E3C
3C3C
7C00
7C00
7C00
FC00
FC00
FC08
7E38
7FF0
3FE0
1FC0
ENDCHAR
STARTCHAR Ccaron
ENCODING 268
SWIDTH 605 0
DWIDTH 18 0
BBX 19 28 1 -1
BITMAP
008040
00E0E0
007380
003F00
003F00
001E00
000000
00FF00
03FFC0
0FC1C0
1F81C0
3F01C0
3E01C0
7E0000
7C0000
7C0000
FC0000
FC0000
FC0000
FC0000
FC0000
7C0300
7C0700
7E0700
3E0700
1F8F00
0FFE00
004000
ENDCHAR
STARTCHAR ccaron
ENCODING 269
SWIDTH 493 0
DWIDTH 15 0
BBX 16 23 1 0
BITMAP
0303
038E
01DC
01F8
00F8
00F0
0000
0000
03F0
07FC
1F7C
1E3C
3C3C
7C00
7C00
7C00
FC00
FC00
FC08
7E38
7FF0
3FE0
1FC0
ENDCHAR
STARTCHAR Dcaron
ENCODING 270
SWIDTH 685 0
DWIDTH 21 0
BBX 21 27 0 0
BITMAP
010080
018180
00E700
00FE00
007C00
003800
000000
1FF000
1FFF00
07EFC0
07C3E0
07C3F0
07C1F0
07C1F0
0FC1F8
0F81F8
0F81F8
0F81F8
0F81F8
1F81F0
1F83F0
1F03E0
1F07E0
1F0FC0
3F1F80
FFFE00
FFF000
ENDCHAR
STARTCHAR dcaron
ENCODING 271
SWIDTH 623 0
DWIDTH 19 0
BBX 23 22 1 0
BITMAP
00000E
0003CE
003F9E
003F9C
000F9C
000F98
000F98
00FF20
03FF00
071F00
0E1F00
1E3F00
3C3E00
3C3E00
7C3E00
7C3E00
7C7C00
FC7C00
FCFC80
7FFF80
7F7F00
7E3E00
ENDCHAR
STARTCHAR Dcroat
ENCODING 272
SWIDTH 685 0
DWIDTH 21 0
BBX 21 20 0 0
BITMAP
1FF000
1FFF00
07EFC0
07C3E0
07C3F0
07C1F0
07C1F0
0FC1F8
0F81F8
3FF9F8
7FF1F8
0F81F8
1F81F0
1F83F0
1F03E0
1F07E0
1F0FC0
3F1F80
FFFE00
FFF000
ENDCHAR
STARTCHAR dcroat
ENCODING 273
SWIDTH 591 0
DWIDTH 18 0
BBX 19 21 1 0
BITMAP
0003C0
003F80
003F80
000F80
00FFE0
00FFE0
000F00
01FF00
03FF00
0F1F00
1E3F00
1C3E00
3C3E00
7C3E00
7C3E00
7C7C00
FC7C00
FCFC80
7FFF80
7F7F00
7E3E00
ENDCHAR
STARTCHAR Emacron
ENCODING 274
SWIDTH 587 0
DWIDTH 18 0
BBX 18 24 0 0
BITMAP
00FFC0
00FFC0
010000
000000
1FFFC0
1FFFC0
07E1C0
07C1C0
07C1C0
07C1C0
07C000
0FC600
0F8C00
0FFC00
0FFC00
0F8C00
1F8C00
1F8000
1F0000
1F0380
1F0300
3F0700
FFFF00
FFFF00
ENDCHAR
STARTCHAR emacron
ENCODING 275
SWIDTH 496 0
DWIDTH 15 0
BBX 15 20 1 0
BITMAP
03FE
07FE
0000
0000
0000
03F8
07FC
1F3C
1E3C
3C3C
7C7C
7CF8
7DE0
FF80
FC00
FC08
7E38
7FF0
3FE0
1FC0
ENDCHAR
STARTCHAR Ebreve
ENCODING 276
SWIDTH 587 0
DWIDTH 18 0
BBX 18 26 0 0
BITMAP
008080
01C1C0
00FF80
00FF00
003E00
000000
1FFFC0
1FFFC0
07E1C0
07C1C0
07C1C0
07C1C0
07C000
0FC600
0F8C00
0FFC00
0FFC00
0F8C00
1F8C00
1F8000
1F0000
1F0380
1F0300
3F0700
FFFF00
FFFF00
ENDCHAR
STARTCHAR ebreve
ENCODING 277
SWIDTH 496 0
DWIDTH 15 0
BBX 16 22 1 0
BITMAP
0203
0306
03FE
01FC
00F8
0000
0000
03F8
07FC
1F3C
1E3C
3C3C
7C7C
7CF8
7DE0
FF80
FC00
FC08
7E38
7FF0
3FE0
1FC0
ENDCHAR
STARTCHAR Edotaccent
ENCODING 278
SWIDTH 587 0
DWIDTH 18 0
BBX 18 26 0 0
BITMAP
003800
003C00
007C00
007C00
003000
000000
1FFFC0
1FFFC0
07E1C0
07C1C0
07C1C0
07C1C0
07C000
0FC600
0F8C00
0FFC00
0FFC00
0F8C00
1F8C00
1F8000
1F0000
1F0380
1F0300
3F0700
FFFF00
FFFF00
ENDCHAR
STARTCHAR edotaccent
ENCODING 279
SWIDTH 496 0
DWIDTH 15 0
BBX 14 23 1 0
BITMAP
0020
00F0
00F8
00F8
00F0
0040
0000
0000
03F8
07FC
1F3C
1E3C
3C3C
7C7C
7CF8
7DE0
FF80
FC00
FC08
7E38
7FF0
3FE0
1FC0
ENDCHAR
STARTCHAR Eogonek
ENCODING 280
SWIDTH 587 0
DWIDTH 18 0
BBX 18 27 0 -7
BITMAP
1FFFC0
1FFFC0
07E1C0
07C1C0
07C1C0
07C1C0
07C000
0FC600
0F8C00
0FFC00
0FFC00
0F8C00
1F8C00
1F8000
1F0000
1F0380
1F0300
3F0700
FFFF00
FFFF00
001800
003000
007000
006000
00F200
00FC00
007800
ENDCHAR
STARTCHAR eogonek
ENCODING 281
SWIDTH 496 0
DWIDTH 15 0
BBX 14 22 1 -7
BITMAP
03F8
07FC
1F3C
1E3C
3C3C
7C7C
7CF8
7DE0
FF80
FC00
FC08
7E38
7FF0
3FE0
1FC0
0180
0300
0300
0700
0720
07E0
03C0
ENDCHAR
STARTCHAR Ecaron
ENCODING 282
SWIDTH 587 0
DWIDTH 18 0
BBX 18 27 0 0
BITMAP
010080
01C1C0
00E700
00FE00
007C00
003C00
000000
1FFFC0
1FFFC0
07E1C0
07C1C0
07C1C0
07C1C0
07C000
0FC600
0F8C00
0FFC00
0FFC00
0F8C00
1F8C00
1F8000
1F0000
1F0380
1F0300
3F0700
FFFF00
FFFF00
ENDCHAR
STARTCHAR ecaron
ENCODING 283
SWIDTH 496 0
DWIDTH 15 0
BBX 16 23 1 0
BITMAP
0303
038E
01DC
01F8
00F8
00F0
0000
0000
03F8
07FC
1F3C
1E3C
3C3C
7C7C
7CF8
7DE0
FF80
FC00
FC08
7E38
7FF0
3FE0
1FC0
ENDCHAR
STARTCHAR Gcircumflex
ENCODING 284
SWIDTH 662 0
DWIDTH 20 0
BBX 19 27 1 -1
BITMAP
001E00
003E00
007F00
00E380
0181C0
010080
00FF00
03FFC0
0FC1C0
1F81C0
1F01C0
3E01C0
7E0000
7E0000
7C0000
FC0000
FC7FE0
FC7FE0
FC0F80
FC1F80
FC1F80
7C1F00
7E1F00
3E1F00
1F9F00
07FE00
00C000
ENDCHAR
STARTCHAR gcircumflex
ENCODING 285
SWIDTH 550 0
DWIDTH 17 0
BBX 20 30 -1 -7
BITMAP
001800
003C00
007E00
00FE00
01C700
038380
010100
0000E0
01F9F0
03BDE0
071FE0
0F1F00
0F1E00
1F1E00
1F1E00
0F1C00
0F1C00
07F800
0D8000
1C0000
3FF000
3FFE00
3FFF00
1FFF00
307F00
700F00
F00E00
F81E00
7FF800
3FC000
ENDCHAR
STARTCHAR Gbreve
ENCODING 286
SWIDTH 662 0
DWIDTH 20 0
BBX 19 27 1 -1
BITMAP
004040
0060E0
007FC0
003F80
001F00
000000
00FF00
03FFC0
0FC1C0
1F81C0
1F01C0
3E01C0
7E0000
7E0000
7C0000
FC0000
FC7FE0
FC7FE0
FC0F80
FC1F80
FC1F80
7C1F00
7E1F00
3E1F00
1F9F00
07FE00
00C000
ENDCHAR
STARTCHAR gbreve
ENCODING 287
SWIDTH 550 0
DWIDTH 17 0
BBX 20 29 -1 -7
BITMAP
010180
018300
01FF00
00FE00
007C00
000000
0000E0
01F9F0
03BDE0
071FE0
0F1F00
0F1E00
1F1E00
1F1E00
0F1C00
0F1C00
07F800
0D8000
1C0000
3FF000
3FFE00
3FFF00
1FFF00
307F00
700F00
F00E00
F81E00
7FF800
3FC000
ENDCHAR
STARTCHAR Gdotaccent
ENCODING 288
SWIDTH 662 0
DWIDTH 20 0
BBX 19 27 1 -1
BITMAP
000E00
001E00
001E00
001E00
000C00
000000
00FF00
03FFC0
0FC1C0
1F81C0
1F01C0
3E01C0
7E0000
7E0000
7C0000
FC0000
FC7FE0
FC7FE0
FC0F80
FC1F80
FC1F80
7C1F00
7E1F00
3E1F00
1F9F00
07FE00
00C000
ENDCHAR
STARTCHAR gdotaccent
ENCODING 289
SWIDTH 550 0
DWIDTH 17 0
BBX 20 30 -1 -7
BITMAP
001000
003800
007C00
007C00
007800
002000
000000
0000E0
01F9F0
03BDE0
071FE0
0F1F00
0F1E00
1F1E00
1F1E00
0F1C00
0F1C00
07F800
0D8000
1C0000
3FF000
3FFE00
3FFF00
1FFF00
307F00
700F00
F00E00
F81E00
7FF800
3FC000
ENDCHAR
STARTCHAR uni0122
ENCODING 290
SWIDTH 662 0
DWIDTH 20 0
BBX 19 28 1 -8
BITMAP
00FF00
03FFC0
0FC1C0
1F81C0
1F01C0
3E01C0
7E0000
7E0000
7C0000
FC0000
FC7FE0
FC7FE0
FC0F80
FC1F80
FC1F80
7C1F00
7E1F00
3E1F00
1F9F00
07FE00
00C000
008000
01E000
01E000
01E000
01C000
01C000
030000
ENDCHAR
STARTCHAR uni0123
ENCODING 291
SWIDTH 550 0
DWIDTH 17 0
BBX 20 31 -1 -7
BITMAP
000400
001C00
003800
007800
007800
007800
007800
000000
0000E0
01F9F0
03BDE0
071FE0
0F1F00
0F1E00
1F1E00
1F1E00
0F1C00
0F1C00
07F800
0D8000
1C0000
3FF000
3FFE00
3FFF00
1FFF00
307F00
700F00
F00E00
F81E00
7FF800
3FC000
ENDCHAR
STARTCHAR Hcircumflex
ENCODING 292
SWIDTH 749 0
DWIDTH 22 0
BBX 24 26 0 0
BITMAP
000700
000F80
001FC0
0038C0
006060
004020
1FFBFF
1FFBFF
07E0FC
07C0F8
07C0F8
07C0F8
07C1F8
0FC1F8
0F81F0
0FFFF0
0FFFF0
0F81F0
1F83F0
1F83E0
1F03E0
1F03E0
1F03E0
3F07E0
FFDFF8
FFDFF8
ENDCHAR
STARTCHAR hcircumflex
ENCODING 293
SWIDTH 593 0
DWIDTH 18 0
BBX 17 28 1 0
BITMAP
001C00
003E00
007F00
00E700
018180
010080
000000
038000
3F8000
3F8000
0F8000
1F0000
1F0000
1F1E00
1F7F00
1EFF00
3FFF00
3F1F00
3E3F00
3E3E00
7E3E00
7C3E00
7C7E00
7C7C00
7C7C80
F87F80
F87F00
F87E00
ENDCHAR
STARTCHAR Hbar
ENCODING 294
SWIDTH 749 0
DWIDTH 22 0
BBX 24 20 0 0
BITMAP
1FFBFF
1FFBFF
07E0FC
07C0F8
07C0F8
3FFFFF
3FFFFF
0FC1F8
0F81F0
0F81F0
0FFFF0
0F81F0
1F83F0
1F83E0
1F03E0
1F03E0
1F03E0
3F07E0
FFDFF8
FFDFF8
ENDCHAR
STARTCHAR hbar
ENCODING 295
SWIDTH 593 0
DWIDTH 18 0
BBX 17 21 1 0
BITMAP
038000
3F8000
3F8000
0F8000
3FF800
7FF800
1F0000
1F3E00
1E7F00
3EFF00
3FBF00
3E3F00
3E3E00
7E3E00
7C3E00
7C7E00
7C7C00
7C7C80
F87F80
F87F00
F87E00
ENDCHAR
STARTCHAR Itilde
ENCODING 296
SWIDTH 384 0
DWIDTH 12 0
BBX 15 26 0 0
BITMAP
0104
07C6
0FFC
0CFC
1878
0000
1FF8
1FF8
07E0
07C0
07C0
07C0
07C0
0FC0
0F80
0F80
0F80
0F80
1F80
1F00
1F00
1F00
1F00
3F00
FFC0
FFC0
ENDCHAR
STARTCHAR itilde
ENCODING 297
SWIDTH 325 0
DWIDTH 10 0
BBX 12 22 2 0
BITMAP
1C30
7E60
7FE0
C7C0
C380
0000
0000
0E00
7E00
FE00
3E00
7E00
7C00
7C00
7C00
7C00
F800
F800
F900
FF00
FE00
FC00
ENDCHAR
STARTCHAR Imacron
ENCODING 298
SWIDTH 384 0
DWIDTH 12 0
BBX 14 24 0 0
BITMAP
0FFC
0FFC
0000
0000
1FF8
1FF8
07E0
07C0
07C0
07C0
07C0
0FC0
0F80
0F80
0F80
0F80
1F80
1F00
1F00
1F00
1F00
3F00
FFC0
FFC0
ENDCHAR
STARTCHAR imacron
ENCODING 299
SWIDTH 325 0
DWIDTH 10 0
BBX 11 20 2 0
BITMAP
7FE0
7FC0
0000
0000
0000
0E00
7E00
FE00
3E00
7E00
7C00
7C00
7C00
7C00
F800
F800
F900
FF00
FE00
FC00
ENDCHAR
STARTCHAR Iogonek
ENCODING 302
SWIDTH 384 0
DWIDTH 12 0
BBX 13 27 0 -7
BITMAP
1FF8
1FF8
07E0
07C0
07C0
07C0
07C0
0FC0
0F80
0F80
0F80
0F80
1F80
1F00
1F00
1F00
1F00
3F00
FFC0
FFC0
0C00
1800
3800
7000
7900
7E00
3C00
ENDCHAR
STARTCHAR iogonek
ENCODING 303
SWIDTH 325 0
DWIDTH 10 0
BBX 9 30 2 -7
BITMAP
0200
0F00
1F80
1F00
0F00
0400
0000
0000
0E00
7E00
FE00
3E00
7E00
7C00
7C00
7C00
7C00
F800
F800
F900
FF00
FE00
FC00
1800
3000
7000
7000
F200
7E00
7800
ENDCHAR
STARTCHAR Idotaccent
ENCODING 304
SWIDTH 384 0
DWIDTH 12 0
BBX 13 26 0 0
BITMAP
00E0
01E0
01E0
01E0
00C0
0000
1FF8
1FF8
07E0
07C0
07C0
07C0
07C0
0FC0
0F80
0F80
0F80
0F80
1F80
1F00
1F00
1F00
1F00
3F00
FFC0
FFC0
ENDCHAR
STARTCHAR dotlessi
ENCODING 305
SWIDTH 325 0
DWIDTH 10 0
BBX 8 15 2 0
BITMAP
0E
7E
FE
3E
7E
7C
7C
7C
7C
F8
F8
F9
FF
FE
FC
ENDCHAR
STARTCHAR Jcircumflex
ENCODING 308
SWIDTH 410 0
DWIDTH 12 0
BBX 17 28 -2 -2
BITMAP
001C00
003E00
007F00
00E700
038180
010080
03FF00
03FF00
007C00
00FC00
00FC00
00F800
00F800
00F800
00F800
01F800
01F000
01F000
01F000
01F000
01E000
01E000
03E000
23C000
7B8000
FF8000
7E0000
180000
ENDCHAR
STARTCHAR jcircumflex
ENCODING 309
SWIDTH 304 0
DWIDTH 9 0
BBX 14 30 -2 -7
BITMAP
0060
00F0
01F0
03F8
071C
0E0C
0804
0000
00E0
07E0
0FE0
03E0
07E0
07C0
07C0
07C0
07C0
0FC0
0F80
0F80
0F80
0F80
0F00
1F00
1F00
1E00
1E00
3C00
7800
E000
ENDCHAR
STARTCHAR uni0136
ENCODING 310
SWIDTH 688 0
DWIDTH 21 0
BBX 22 28 0 -8
BITMAP
1FF8FC
1FF9FC
07C070
07C0C0
07C180
0FC300
0FC600
0F8C00
0F9C00
0FBC00
0FFE00
1FFE00
1FBF00
1F1F00
1F1F80
1F0F80
3F0FC0
3F07C0
FF8FF0
FF9FF0
000000
004000
00E000
01F000
01F000
00E000
00C000
018000
ENDCHAR
STARTCHAR uni0137
ENCODING 311
SWIDTH 550 0
DWIDTH 17 0
BBX 16 29 1 -8
BITMAP
0380
3F80
3F80
0F80
1F00
1F00
1F06
1F0F
1F1F
3E3F
3E7E
3FF8
3F00
7FE0
7DF0
7DF0
7CF8
7CF8
F8FC
F87E
F87F
0000
0400
0F00
0F00
0F00
0700
0E00
1800
ENDCHAR
STARTCHAR kgreenlandic
ENCODING 312
SWIDTH 550 0
DWIDTH 17 0
BBX 16 15 1 0
BITMAP
0702
3F07
7F0F
1F1F
3F3E
3E78
3EC0
3F00
3FE0
7DF0
7CF8
7CFC
7C7C
7C7E
F83F
ENDCHAR
STARTCHAR Lacute
ENCODING 313
SWIDTH 564 0
DWIDTH 17 0
BBX 16 26 0 0
BITMAP
000E
001F
003E
007C
00E0
0000
1FFC
1FF8
07E0
07C0
07C0
07C0
07C0
0FC0
0F80
0F80
0F80
0F80
1F80
1F80
1F03
1F07
1F07
3F0E
FFFE
FFFE
ENDCHAR
STARTCHAR lacute
ENCODING 314
SWIDTH 318 0
DWIDTH 10 0
BBX 12 27 2 0
BITMAP
00F0
01F0
03F0
07C0
0E00
0000
0780
7F00
7F00
1F00
3F00
3E00
3E00
3E00
3E00
7E00
7C00
7C00
7C00
7C00
F800
F800
F800
FB00
FE00
FE00
F800
ENDCHAR
STARTCHAR uni013B
ENCODING 315
SWIDTH 564 0
DWIDTH 17 0
BBX 16 28 0 -8
BITMAP
1FFC
1FF8
07E0
07C0
07C0
07C0
07C0
0FC0
0F80
0F80
0F80
0F80
1F80
1F80
1F03
1F07
1F07
3F0E
FFFE
FFFE
0000
0100
0780
0780
0780
0380
0700
0C00
ENDCHAR
STARTCHAR uni013C
ENCODING 316
SWIDTH 318 0
DWIDTH 10 0
BBX 10 29 1 -8
BITMAP
03C0
3F80
3F80
0F80
1F80
1F00
1F00
1F00
1F00
3F00
3E00
3E00
3E00
3E00
7C00
7C00
7C00
7D80
7F00
7F00
7C00
0000
2000
7000
F800
F000
7000
6000
C000
ENDCHAR
STARTCHAR Lcaron
ENCODING 317
SWIDTH 564 0
DWIDTH 17 0
BBX 19 21 0 0
BITMAP
0000E0
1FFCE0
1FF8E0
07E1C0
07C1C0
07C180
07C180
07C000
0FC000
0F8000
0F8000
0F8000
0F8000
1F8000
1F8000
1F0300
1F0700
1F0700
3F0E00
FFFE00
FFFE00
ENDCHAR
STARTCHAR lcaron
ENCODING 318
SWIDTH 346 0
DWIDTH 10 0
BBX 14 22 2 0
BITMAP
001C
07BC
7F38
7F38
1F30
3F70
3E60
3E00
3E00
3E00
7E00
7C00
7C00
7C00
7C00
F800
F800
F800
FB00
FE00
FE00
F800
ENDCHAR
STARTCHAR Ldot
ENCODING 319
SWIDTH 564 0
DWIDTH 17 0
BBX 18 20 0 0
BITMAP
1FFC00
1FF800
07E000
07C000
07C000
07C000
07C780
0FCFC0
0F8FC0
0F8FC0
0F8780
0F8000
1F8000
1F8000
1F0300
1F0700
1F0700
3F0E00
FFFE00
FFFE00
ENDCHAR
STARTCHAR ldot
ENCODING 320
SWIDTH 423 0
DWIDTH 13 0
BBX 13 21 2 0
BITMAP
0780
7F00
7F00
1F00
3F00
3E00
3E00
3EF0
3FF8
7FF8
7DF8
7CF0
7C00
7C00
F800
F800
F800
FB00
FE00
FE00
F800
ENDCHAR
STARTCHAR Lslash
ENCODING 321
SWIDTH 564 0
DWIDTH 17 0
BBX 16 20 0 0
BITMAP
1FFC
1FF8
07E0
07C0
07C0
07C0
07CC
0FFC
0FF8
0FE0
1F80
7F80
7F80
5F80
1F03
1F07
1F07
3F0E
FFFE
FFFE
ENDCHAR
STARTCHAR lslash
ENCODING 322
SWIDTH 318 0
DWIDTH 10 0
BBX 10 21 1 0
BITMAP
03C0
3F80
3F80
0F80
1F80
1F00
1F40
1FC0
1FC0
3F80
7E00
FE00
FE00
BE00
7C00
7C00
7C00
7D80
7F00
7F00
7C00
ENDCHAR
STARTCHAR Nacute
ENCODING 323
SWIDTH 690 0
DWIDTH 21 0
BBX 24 26 -1 0
BITMAP
0000E0
0003F0
0007E0
000FC0
000E00
000000
0FE0FF
0FE0FE
03F138
03F018
03F838
03F830
06FC30
06FC30
067E30
067E30
063F60
063F60
0C1FE0
0C1FE0
0C0FE0
0C0FC0
0C07C0
1807C0
7F83C0
FF03C0
ENDCHAR
STARTCHAR nacute
ENCODING 324
SWIDTH 603 0
DWIDTH 18 0
BBX 18 24 1 0
BITMAP
000C00
001E00
001E00
003E00
003C00
003800
007000
002000
000000
071E00
3F3F00
7FFF00
1FDF00
3F1F00
3E1F00
3E1F00
3E3E00
3E3E00
7C3E00
7C3E00
7C7CC0
7C7F80
7C7F00
F87E00
ENDCHAR
STARTCHAR uni0145
ENCODING 325
SWIDTH 690 0
DWIDTH 21 0
BBX 24 28 -1 -8
BITMAP
0FE0FF
0FE0FE
03F138
03F018
03F838
03F830
06FC30
06FC30
067E30
067E30
063F60
063F60
0C1FE0
0C1FE0
0C0FE0
0C0FC0
0C07C0
1807C0
7F83C0
FF03C0
000000
004000
00F000
00F000
00F000
007000
00E000
018000
ENDCHAR
STARTCHAR uni0146
ENCODING 326
SWIDTH 603 0
DWIDTH 18 0
BBX 18 23 1 -8
BITMAP
071E00
3F3F00
7FFF00
1FDF00
3F1F00
3E1F00
3E1F00
3E3E00
3E3E00
7C3E00
7C3E00
7C7CC0
7C7F80
7C7F00
F87E00
000000
020000
070000
0F8000
0F0000
070000
060000
0C0000
ENDCHAR
STARTCHAR Ncaron
ENCODING 327
SWIDTH 690 0
DWIDTH 21 0
BBX 24 27 -1 0
BITMAP
002020
007070
0038E0
001FC0
001F80
000F00
000000
0FE0FF
0FE0FE
03F138
03F018
03F838
03F830
06FC30
06FC30
067E30
067E30
063F60
063F60
0C1FE0
0C1FE0
0C0FE0
0C0FC0
0C07C0
1807C0
7F83C0
FF03C0
ENDCHAR
STARTCHAR ncaron
ENCODING 328
SWIDTH 603 0
DWIDTH 18 0
BBX 18 23 1 0
BITMAP
030300
018700
01CE00
00FC00
00F800
007000
000000
000000
071E00
3F3F00
7FFF00
1FDF00
3F1F00
3E1F00
3E1F00
3E3E00
3E3E00
7C3E00
7C3E00
7C7CC0
7C7F80
7C7F00
F87E00
ENDCHAR
STARTCHAR napostrophe
ENCODING 329
SWIDTH 820 0
DWIDTH 25 0
BBX 21 22 4 0
BITMAP
300000
780000
7C0000
7C0000
780000
380000
300000
70E3C0
C7E7E0
8FFFE0
03FBE0
07E3E0
07C3E0
07C3E0
07C7C0
07C7C0
0F87C0
0F87C0
0F8F98
0F8FF0
0F8FE0
1F0FC0
ENDCHAR
STARTCHAR Omacron
ENCODING 332
SWIDTH 672 0
DWIDTH 20 0
BBX 19 25 1 -1
BITMAP
01FF80
01FF80
000000
000000
00FE00
03FF80
0F87C0
1F03C0
1F03E0
3E03E0
7E03E0
7C03E0
7C03E0
FC03E0
FC03E0
FC03E0
FC07E0
FC07C0
FC07C0
7C0F80
7C0F80
7C1F00
3E7E00
0FF800
01C000
ENDCHAR
STARTCHAR omacron
ENCODING 333
SWIDTH 551 0
DWIDTH 17 0
BBX 16 20 1 0
BITMAP
03FE
03FE
0000
0000
0000
03F8
0FFC
1F3E
3E3E
3E3E
7C3F
7C3F
7C3E
FC3E
F83E
F87C
787C
7C78
3CF0
1FC0
ENDCHAR
STARTCHAR uni014E
ENCODING 334
SWIDTH 672 0
DWIDTH 20 0
BBX 19 27 1 -1
BITMAP
008080
01C1C0
00FF80
00FF00
003E00
000000
00FE00
03FF80
0F87C0
1F03C0
1F03E0
3E03E0
7E03E0
7C03E0
7C03E0
FC03E0
FC03E0
FC03E0
FC07E0
FC07C0
FC07C0
7C0F80
7C0F80
7C1F00
3E7E00
0FF800
01C000
ENDCHAR
STARTCHAR uni014F
ENCODING 335
SWIDTH 551 0
DWIDTH 17 0
BBX 16 22 1 0
BITMAP
0606
060E
07FC
03F8
01F0
0000
0000
03F8
0FFC
1F3E
3E3E
3E3E
7C3F
7C3F
7C3E
FC3E
F83E
F87C
787C
7C78
3CF0
1FC0
ENDCHAR
STARTCHAR Ohungarumlaut
ENCODING 336
SWIDTH 672 0
DWIDTH 20 0
BBX 20 28 1 -1
BITMAP
001860
003CF0
0038E0
0071C0
00E380
00C300
000000
00FE00
03FF80
0F87C0
1F03C0
1F03E0
3E03E0
7E03E0
7C03E0
7C03E0
FC03E0
FC03E0
FC03E0
FC07E0
FC07C0
FC07C0
7C0F80
7C0F80
7C1F00
3E7E00
0FF800
01C000
ENDCHAR
STARTCHAR ohungarumlaut
ENCODING 337
SWIDTH 551 0
DWIDTH 17 0
BBX 18 24 1 0
BITMAP
003180
0073C0
00F380
00E780
01C700
018E00
030C00
000000
000000
03F800
0FFC00
1F3E00
3E3E00
3E3E00
7C3F00
7C3F00
7C3E00
FC3E00
F83E00
F87C00
787C00
7C7800
3CF000
1FC000
ENDCHAR
STARTCHAR OE
ENCODING 338
SWIDTH 885 0
DWIDTH 27 0
BBX 26 21 1 -1
BITMAP
007FFFC0
03FFFFC0
07C7E1C0
0F87C1C0
1F07C1C0
3E07C180
3E0FC000
7C0FC600
7C0F8C00
FC0FFC00
FC0FFC00
FC0F8C00
FC1F8C00
FC1F0000
FC1F0000
7C1F0380
7C1F0700
3E3F0700
3F3FFF00
0FFFFF00
00C00000
ENDCHAR
STARTCHAR oe
ENCODING 339
SWIDTH 815 0
DWIDTH 24 0
BBX 24 15 1 0
BITMAP
03F0FC
0FFFFE
1F3F8F
3E3F8F
3E3F0F
7C3F1E
7C3E3C
7C3E78
FC3FE0
F83E00
F87F06
787F0C
7C7FFC
3CFFF8
1FCFE0
ENDCHAR
STARTCHAR Racute
ENCODING 340
SWIDTH 676 0
DWIDTH 20 0
BBX 20 26 0 0
BITMAP
0001C0
0003E0
000FC0
001F80
001C00
000000
1FFE00
1FFFC0
07E7E0
07C3E0
07C3E0
07C3E0
07C3E0
0FC7C0
0F8F80
0FFE00
0FFE00
0F9F00
1F9F80
1F8F80
1F0F80
1F0F80
1F0FC0
3F0FC0
FFC7F0
FFC7F0
ENDCHAR
STARTCHAR racute
ENCODING 341
SWIDTH 481 0
DWIDTH 14 0
BBX 15 24 1 0
BITMAP
0018
003C
003C
007C
0078
0070
00E0
0040
0000
073C
3F7E
7FFE
1EFC
3F80
3F00
3F00
3E00
3E00
7C00
7C00
7C00
7C00
7C00
F800
ENDCHAR
STARTCHAR uni0156
ENCODING 342
SWIDTH 676 0
DWIDTH 20 0
BBX 20 28 0 -8
BITMAP
1FFE00
1FFFC0
07E7E0
07C3E0
07C3E0
07C3E0
07C3E0
0FC7C0
0F8F80
0FFE00
0FFE00
0F9F00
1F9F80
1F8F80
1F0F80
1F0F80
1F0FC0
3F0FC0
FFC7F0
FFC7F0
000000
004000
00F000
00F000
00F000
00E000
00E000
018000
ENDCHAR
STARTCHAR uni0157
ENCODING 343
SWIDTH 481 0
DWIDTH 14 0
BBX 16 23 0 -8
BITMAP
039E
1FBF
3FFF
0F7E
1FC0
1F80
1F80
1F00
1F00
3E00
3E00
3E00
3E00
3E00
7C00
0000
2000
7800
7800
7800
3800
7000
C000
ENDCHAR
STARTCHAR Rcaron
ENCODING 344
SWIDTH 676 0
DWIDTH 20 0
BBX 20 27 0 0
BITMAP
008040
01C1C0
00E380
007F00
003E00
003C00
000000
1FFE00
1FFFC0
07E7E0
07C3E0
07C3E0
07C3E0
07C3E0
0FC7C0
0F8F80
0FFE00
0FFE00
0F9F00
1F9F80
1F8F80
1F0F80
1F0F80
1F0FC0
3F0FC0
FFC7F0
FFC7F0
ENDCHAR
STARTCHAR rcaron
ENCODING 345
SWIDTH 481 0
DWIDTH 14 0
BBX 15 23 1 0
BITMAP
0606
030E
03BC
01F8
01F0
01E0
0000
0000
073C
3F7E
7FFE
1EFC
3F80
3F00
3F00
3E00
3E00
7C00
7C00
7C00
7C00
7C00
F800
ENDCHAR
STARTCHAR Sacute
ENCODING 346
SWIDTH 503 0
DWIDTH 15 0
BBX 15 27 1 -1
BITMAP
001E
003E
007E
00F8
01C0
0000
07F8
0FFE
1E1E
3E1E
3E1E
3E0E
3F00
3F80
3FC0
1FE0
1FF0
0FF8
03F8
01FC
E0FC
E0FC
E0F8
E0F8
F1F0
FFC0
0600
ENDCHAR
STARTCHAR sacute
ENCODING 347
SWIDTH 445 0
DWIDTH 13 0
BBX 14 24 1 0
BITMAP
0018
003C
003C
007C
0078
0070
00E0
0040
0000
07E0
1EF0
3CF0
3C78
3E20
3F00
3F80
1FC0
1FE0
0FE0
43F0
F3E0
F1E0
FBC0
7F80
ENDCHAR
STARTCHAR Scircumflex
ENCODING 348
SWIDTH 503 0
DWIDTH 15 0
BBX 15 27 1 -1
BITMAP
00F0
01F8
03F8
071C
0E0E
0804
07F8
0FFE
1E1E
3E1E
3E1E
3E0E
3F00
3F80
3FC0
1FE0
1FF0
0FF8
03F8
01FC
E0FC
E0FC
E0F8
E0F8
F1F0
FFC0
0600
ENDCHAR
STARTCHAR scircumflex
ENCODING 349
SWIDTH 445 0
DWIDTH 13 0
BBX 14 23 1 0
BITMAP
00E0
01E0
03F0
07F0
0E38
1C1C
0808
0000
07E0
1EF0
3CF0
3C78
3E20
3F00
3F80
1FC0
1FE0
0FE0
43F0
F3E0
F1E0
FBC0
7F80
ENDCHAR
STARTCHAR uni015E
ENCODING 350
SWIDTH 503 0
DWIDTH 15 0
BBX 15 27 1 -7
BITMAP
07F8
0FFE
1E1E
3E1E
3E1E
3E0E
3F00
3F80
3FC0
1FE0
1FF0
0FF8
03F8
01FC
E0FC
E0FC
E0F8
E0F8
F1F0
FFC0
0600
0C00
0E00
0700
0700
3F00
3E00
ENDCHAR
STARTCHAR uni015F
ENCODING 351
SWIDTH 445 0
DWIDTH 13 0
BBX 13 22 1 -7
BITMAP
07E0
1EF0
3CF0
3C78
3E20
3F00
3F80
1FC0
1FE0
0FE0
43F0
F3E0
F1E0
FBC0
7F80
0C00
0800
1E00
0600
0700
3E00
7C00
ENDCHAR
STARTCHAR Scaron
ENCODING 352
SWIDTH 503 0
DWIDTH 15 0
BBX 16 28 1 -1
BITMAP
0402
0707
039C
03F8
01F0
00E0
0000
07F8
0FFE
1E1E
3E1E
3E1E
3E0E
3F00
3F80
3FC0
1FE0
1FF0
0FF8
03F8
01FC
E0FC
E0FC
E0F8
E0F8
F1F0
FFC0
0600
ENDCHAR
STARTCHAR scaron
ENCODING 353
SWIDTH 445 0
DWIDTH 13 0
BBX 15 23 1 0
BITMAP
060E
071C
07B8
03F0
03E0
01E0
0000
0000
07E0
1EF0
3CF0
3C78
3E20
3F00
3F80
1FC0
1FE0
0FE0
43F0
F3E0
F1E0
FBC0
7F80
ENDCHAR
STARTCHAR uni0162
ENCODING 354
SWIDTH 623 0
DWIDTH 19 0
BBX 19 27 2 -7
BITMAP
7FFFE0
7FFFC0
71F1C0
71F1C0
E3F1C0
E3F1C0
03E000
03E000
03E000
03E000
07E000
07E000
07C000
07C000
07C000
0FC000
0FC000
0F8000
7FF000
7FF000
060000
040000
0F0000
038000
038000
1F8000
3F0000
ENDCHAR
STARTCHAR uni0163
ENCODING 355
SWIDTH 352 0
DWIDTH 11 0
BBX 11 26 1 -7
BITMAP
0380
0780
0780
0F00
3FE0
7FE0
1F00
1F00
3E00
3E00
3E00
3E00
3E00
7C00
7C00
7C80
7F80
7F00
7E00
1000
3000
3800
1C00
0C00
FC00
F800
ENDCHAR
STARTCHAR Tcaron
ENCODING 356
SWIDTH 623 0
DWIDTH 19 0
BBX 19 27 2 0
BITMAP
020100
070700
038E00
01FC00
01F800
00F000
000000
7FFFE0
7FFFC0
71F1C0
71F1C0
E3F1C0
E3F1C0
03E000
03E000
03E000
03E000
07E000
07E000
07C000
07C000
07C000
0FC000
0FC000
0F8000
7FF000
7FF000
ENDCHAR
STARTCHAR tcaron
ENCODING 357
SWIDTH 357 0
DWIDTH 11 0
BBX 14 23 2 0
BITMAP
0018
003C
0038
0038
0730
0F70
0F60
1E20
7FC0
FFC0
3E00
3E00
7C00
7C00
7C00
7C00
7C00
F800
F800
F900
FF00
FE00
F800
ENDCHAR
STARTCHAR Utilde
ENCODING 360
SWIDTH 677 0
DWIDTH 20 0
BBX 20 27 3 -1
BITMAP
004080
01F180
03FF80
033F00
061E00
000000
FFC7F0
FFC7F0
3E0180
7E0180
7E0180
7E0300
7E0300
7C0300
FC0300
FC0300
FC0700
FC0600
F80600
F80600
F80E00
F80C00
FC1C00
FE3800
7FF000
3FE000
030000
ENDCHAR
STARTCHAR utilde
ENCODING 361
SWIDTH 598 0
DWIDTH 18 0
BBX 17 22 2 0
BITMAP
01C300
07E600
07FE00
0C7C00
0C3800
000000
000000
0E0700
7E3F00
FE3E00
3E3E00
7C3E00
7C3E00
7C7C00
7C7C00
F87C00
F87C00
F8FC00
F8F980
FFFF00
FEFE00
FC7C00
ENDCHAR
STARTCHAR Umacron
ENCODING 362
SWIDTH 677 0
DWIDTH 20 0
BBX 20 25 3 -1
BITMAP
01FF80
01FF80
000000
000000
FFC7F0
FFC7F0
3E0180
7E0180
7E0180
7E0300
7E0300
7C0300
FC0300
FC0300
FC0700
FC0600
F80600
F80600
F80E00
F80C00
FC1C00
FE3800
7FF000
3FE000
030000
ENDCHAR
STARTCHAR umacron
ENCODING 363
SWIDTH 598 0
DWIDTH 18 0
BBX 17 20 2 0
BITMAP
03FE00
07FC00
000000
000000
000000
0E0700
7E3F00
FE3E00
3E3E00
7C3E00
7C3E00
7C7C00
7C7C00
F87C00
F87C00
F8FC00
F8F980
FFFF00
FEFE00
FC7C00
ENDCHAR
STARTCHAR Ubreve
ENCODING 364
SWIDTH 677 0
DWIDTH 20 0
BBX 20 27 3 -1
BITMAP
010100
038380
01FF00
00FE00
007C00
000000
FFC7F0
FFC7F0
3E0180
7E0180
7E0180
7E0300
7E0300
7C0300
FC0300
FC0300
FC0700
FC0600
F80600
F80600
F80E00
F80C00
FC1C00
FE3800
7FF000
3FE000
030000
ENDCHAR
STARTCHAR ubreve
ENCODING 365
SWIDTH 598 0
DWIDTH 18 0
BBX 17 22 2 0
BITMAP
060200
070600
03FC00
03FC00
01F800
000000
000000
0E0700
7E3F00
FE3E00
3E3E00
7C3E00
7C3E00
7C7C00
7C7C00
F87C00
F87C00
F8FC00
F8F980
FFFF00
FEFE00
FC7C00
ENDCHAR
STARTCHAR Uring
ENCODING 366
SWIDTH 677 0
DWIDTH 20 0
BBX 20 28 3 -1
BITMAP
003800
007E00
004600
00C600
006E00
007C00
000000
FFC7F0
FFC7F0
3E0180
7E0180
7E0180
7E0300
7E0300
7C0300
FC0300
FC0300
FC0700
FC0600
F80600
F80600
F80E00
F80C00
FC1C00
FE3800
7FF000
3FE000
030000
ENDCHAR
STARTCHAR uring
ENCODING 367
SWIDTH 598 0
DWIDTH 18 0
BBX 17 24 2 0
BITMAP
007000
01F800
039C00
030C00
030C00
039800
01F000
000000
000000
0E0700
7E3F00
FE3E00
3E3E00
7C3E00
7C3E00
7C7C00
7C7C00
F87C00
F87C00
F8FC00
F8F980
FFFF00
FEFE00
FC7C00
ENDCHAR
STARTCHAR Uhungarumlaut
ENCODING 368
SWIDTH 677 0
DWIDTH 20 0
BBX 20 28 3 -1
BITMAP
001860
0038E0
0079E0
0071C0
00E380
00C300
000000
FFC7F0
FFC7F0
3E0180
7E0180
7E0180
7E0300
7E0300
7C0300
FC0300
FC0300
FC0700
FC0600
F80600
F80600
F80E00
F80C00
FC1C00
FE3800
7FF000
3FE000
030000
ENDCHAR
STARTCHAR uhungarumlaut
ENCODING 369
SWIDTH 598 0
DWIDTH 18 0
BBX 17 24 2 0
BITMAP
006380
00F380
00F780
01E700
01CE00
038C00
031800
000000
000000
0E0700
7E3F00
FE3E00
3E3E00
7C3E00
7C3E00
7C7C00
7C7C00
F87C00
F87C00
F8FC00
F8F980
FFFF00
FEFE00
FC7C00
ENDCHAR
STARTCHAR Uogonek
ENCODING 370
SWIDTH 677 0
DWIDTH 20 0
BBX 20 27 3 -7
BITMAP
FFC7F0
FFC7F0
3E0180
7E0180
7E0180
7E0300
7E0300
7C0300
FC0300
FC0300
FC0700
FC0600
F80600
F80600
F80E00
F80C00
FC1C00
FE3800
7FF000
3FE000
034000
00C000
018000
038000
03D000
03F800
01E000
ENDCHAR
STARTCHAR uogonek
ENCODING 371
SWIDTH 598 0
DWIDTH 18 0
BBX 17 22 2 -7
BITMAP
0E0700
7E3F00
FE3E00
3E3E00
7C3E00
7C3E00
7C7C00
7C7C00
F87C00
F87C00
F8FC00
F8F980
FFFF00
FEFE00
FC7C00
000800
001800
003000
007000
007200
007E00
003C00
ENDCHAR
STARTCHAR Wcircumflex
ENCODING 372
SWIDTH 895 0
DWIDTH 27 0
BBX 28 26 2 0
BITMAP
0003C000
0007C000
000FE000
001C7000
00383000
00201000
FF9FF3F0
FF9FF7F0
7E0781C0
7E0F8180
3E0F8100
3E1F8300
3E1FC300
3E1FC600
3E37C600
3E27CC00
3E67CC00
3E47C800
3FC7D800
3FC7D000
1F87F000
1F87E000
1F03E000
1F03E000
1E03C000
1E03C000
ENDCHAR
STARTCHAR wcircumflex
ENCODING 373
SWIDTH 822 0
DWIDTH 25 0
BBX 24 23 1 0
BITMAP
000300
000780
000FC0
001FC0
0038E0
007070
002020
000000
1E000F
3F0F1F
7F0F1F
FF1F1F
1F1F8F
1F1F8E
1F3F8E
1F2F8C
1F6F98
0F4F98
0FCFB0
0F8FE0
0F87C0
0F0780
0F0780
ENDCHAR
STARTCHAR Ycircumflex
ENCODING 374
SWIDTH 583 0
DWIDTH 17 0
BBX 19 26 2 0
BITMAP
003C00
007C00
00FE00
01C700
030300
020100
FFC7E0
FFCFC0
3E0380
3F0300
3F0600
1F0C00
1F8C00
1F9800
0FB000
0FB000
0FE000
0FC000
07C000
07C000
0FC000
0F8000
0F8000
0F8000
7FE000
7FE000
ENDCHAR
STARTCHAR ycircumflex
ENCODING 375
SWIDTH 558 0
DWIDTH 17 0
BBX 18 30 -1 -7
BITMAP
000E00
001E00
003F00
007F00
00E380
01C1C0
008080
000000
0781C0
0F83C0
1FC3C0
3FC7C0
07C7C0
07C780
07C700
07CF00
07CE00
03CE00
03EC00
03F800
03F000
03F000
01E000
01C000
018000
618000
F30000
FE0000
F80000
700000
ENDCHAR
STARTCHAR Ydieresis
ENCODING 376
SWIDTH 583 0
DWIDTH 17 0
BBX 19 25 2 0
BITMAP
03C380
03C7C0
03C780
018300
000000
FFC7E0
FFCFC0
3E0380
3F0300
3F0600
1F0C00
1F8C00
1F9800
0FB000
0FB000
0FE000
0FC000
07C000
07C000
0FC000
0F8000
0F8000
0F8000
7FE000
7FE000
ENDCHAR
STARTCHAR Zacute
ENCODING 377
SWIDTH 547 0
DWIDTH 16 0
BBX 18 26 0 0
BITMAP
000780
000F80
001F00
003E00
007000
000000
1FFFC0
1FFFC0
1C1F80
1C1F80
383F00
387E00
007E00
00FC00
01F800
03F000
03F000
07E000
0FC000
0FC000
1F8700
3F0700
7E0700
7E0E00
FFFE00
FFFE00
ENDCHAR
STARTCHAR zacute
ENCODING 378
SWIDTH 511 0
DWIDTH 15 0
BBX 16 25 0 -1
BITMAP
000C
001E
001E
001E
003C
0038
0030
0020
0000
0E03
1FC7
3FF6
3FFE
3FF8
31F0
3060
30CE
030E
060E
0E0E
3FFE
3FFC
6FF8
E7F0
01E0
ENDCHAR
STARTCHAR Zdotaccent
ENCODING 379
SWIDTH 547 0
DWIDTH 16 0
BBX 18 26 0 0
BITMAP
003800
007C00
007C00
007800
003000
000000
1FFFC0
1FFFC0
1C1F80
1C1F80
383F00
387E00
007E00
00FC00
01F800
03F000
03F000
07E000
0FC000
0FC000
1F8700
3F0700
7E0700
7E0E00
FFFE00
FFFE00
ENDCHAR
STARTCHAR zdotaccent
ENCODING 380
SWIDTH 511 0
DWIDTH 15 0
BBX 16 24 0 -1
BITMAP
0010
0078
0078
00F8
0078
0020
0000
0000
0E03
1FC7
3FF6
3FFE
3FF8
31F0
3060
30CE
030E
060E
0E0E
3FFE
3FFC
6FF8
E7F0
01E0
ENDCHAR
STARTCHAR Zcaron
ENCODING 381
SWIDTH 547 0
DWIDTH 16 0
BBX 18 27 0 0
BITMAP
010080
038380
01E700
00FE00
007C00
007800
000000
1FFFC0
1FFFC0
1C1F80
1C1F80
383F00
387E00
007E00
00FC00
01F800
03F000
03F000
07E000
0FC000
0FC000
1F8700
3F0700
7E0700
7E0E00
FFFE00
FFFE00
ENDCHAR
STARTCHAR zcaron
ENCODING 382
SWIDTH 511 0
DWIDTH 15 0
BBX 16 24 0 -1
BITMAP
0303
0187
01CE
00FC
00F8
0070
0000
0000
0E03
1FC7
3FF6
3FFE
3FF8
31F0
3060
30CE
030E
060E
0E0E
3FFE
3FFC
6FF8
E7F0
01E0
ENDCHAR
STARTCHAR longs
ENCODING 383
SWIDTH 352 0
DWIDTH 11 0
BBX 21 29 -5 -7
BITMAP
0003E0
000FF0
001EF8
001E70
003C20
003C00
007C00
007C00
007C00
007C00
007C00
00F800
00F800
00F800
00F800
00F800
00F800
00F800
00F000
01F000
01F000
01F000
01F000
01E000
21E000
F3C000
FBC000
7F8000
3E0000
ENDCHAR
STARTCHAR uni018F
ENCODING 399
SWIDTH 638 0
DWIDTH 19 0
BBX 18 21 1 -1
BITMAP
01FC00
07FF00
0E1F80
080F80
0007C0
0007C0
0007C0
0007C0
0007C0
7FFFC0
FFFFC0
FC0FC0
FC0FC0
F80F80
F80F80
F81F00
781E00
7C3E00
3E7C00
1FF000
010000
ENDCHAR
STARTCHAR uni0192
ENCODING 402
SWIDTH 560 0
DWIDTH 17 0
BBX 18 22 0 -3
BITMAP
000F80
003FC0
0039C0
0079C0
007800
00F800
00F000
07FE00
01F000
01F000
01F000
01E000
01E000
03E000
03E000
03C000
03C000
03C000
678000
F78000
FF0000
7E0000
ENDCHAR
STARTCHAR Ohorn
ENCODING 416
SWIDTH 672 0
DWIDTH 20 0
BBX 22 25 1 -1
BITMAP
00001C
00003C
00003C
000018
00FE18
03FFB0
0F87E0
1F03C0
1F03E0
3E03E0
7E03E0
7C03E0
7C03E0
FC03E0
FC03E0
FC03E0
FC07E0
FC07C0
FC07C0
7C0F80
7C0F80
7C1F00
3E7E00
0FF800
01C000
ENDCHAR
STARTCHAR ohorn
ENCODING 417
SWIDTH 551 0
DWIDTH 17 0
BBX 19 19 1 0
BITMAP
0000E0
0001E0
0001E0
0000C0
03F8C0
0FFD80
1F3F00
3E3E00
3E3E00
7C3F00
7C3F00
7C3E00
FC3E00
F83E00
F87C00
787C00
7C7800
3CF000
1FC000
ENDCHAR
STARTCHAR Uhorn
ENCODING 431
SWIDTH 677 0
DWIDTH 20 0
BBX 22 26 3 -1
BITMAP
00000C
00001C
00001C
00001C
00001C
FFC7F8
FFC7F0
3E0180
7E0180
7E0180
7E0300
7E0300
7C0300
FC0300
FC0300
FC0700
FC0600
F80600
F80600
F80E00
F80C00
FC1C00
FE3800
7FF000
3FE000
030000
ENDCHAR
STARTCHAR uhorn
ENCODING 432
SWIDTH 598 0
DWIDTH 18 0
BBX 20 19 2 0
BITMAP
000070
000070
000070
000070
0E0770
7E3FE0
FE3F80
3E3E00
7C3E00
7C3E00
7C7C00
7C7C00
F87C00
F87C00
F8FC00
F8F980
FFFF00
FEFE00
FC7C00
ENDCHAR
STARTCHAR uni01CD
ENCODING 461
SWIDTH 693 0
DWIDTH 21 0
BBX 21 27 -1 0
BITMAP
002010
007070
0038E0
001FC0
001F80
000F00
000000
000F00
001F00
001F00
003F00
003F00
007F00
006F80
00CF80
00CF80
018F80
018F80
030F80
0307C0
07FFC0
07FFC0
0C07C0
0C07C0
1807C0
FE1FF8
FE1FF8
ENDCHAR
STARTCHAR uni01CE
ENCODING 462
SWIDTH 588 0
DWIDTH 18 0
BBX 17 23 1 0
BITMAP
018180
01C700
00EE00
00FE00
007C00
007800
000000
000000
00F980
03FF00
071F00
0E1F00
1E3F00
3C3E00
3C3E00
7C3E00
7C3E00
7C7C00
FC7C00
FCFC80
7FFF80
7F7F00
7E3E00
ENDCHAR
STARTCHAR uni01CF
ENCODING 463
SWIDTH 384 0
DWIDTH 12 0
BBX 15 27 0 0
BITMAP
0804
0E0E
0738
07F0
03E0
01E0
0000
1FF8
1FF8
07E0
07C0
07C0
07C0
07C0
0FC0
0F80
0F80
0F80
0F80
1F80
1F00
1F00
1F00
1F00
3F00
FFC0
FFC0
ENDCHAR
STARTCHAR uni01D0
ENCODING 464
SWIDTH 325 0
DWIDTH 10 0
BBX 12 23 2 0
BITMAP
3030
38E0
1DC0
1F80
0F80
0F00
0000
0000
0E00
7E00
FE00
3E00
7E00
7C00
7C00
7C00
7C00
F800
F800
F900
FF00
FE00
FC00
ENDCHAR
STARTCHAR uni01D1
ENCODING 465
SWIDTH 672 0
DWIDTH 20 0
BBX 19 28 1 -1
BITMAP
008040
01C1C0
00E380
007F00
007E00
003C00
000000
00FE00
03FF80
0F87C0
1F03C0
1F03E0
3E03E0
7E03E0
7C03E0
7C03E0
FC03E0
FC03E0
FC03E0
FC07E0
FC07C0
FC07C0
7C0F80
7C0F80
7C1F00
3E7E00
0FF800
01C000
ENDCHAR
STARTCHAR uni01D2
ENCODING 466
SWIDTH 551 0
DWIDTH 17 0
BBX 16 23 1 0
BITMAP
0303
038E
01DC
01F8
00F8
00F0
0000
0000
03F8
0FFC
1F3E
3E3E
3E3E
7C3F
7C3F
7C3E
FC3E
F83E
F87C
787C
7C78
3CF0
1FC0
ENDCHAR
STARTCHAR uni01D3
ENCODING 467
SWIDTH 677 0
DWIDTH 20 0
BBX 20 28 3 -1
BITMAP
010080
01C1C0
00E700
00FE00
007C00
003C00
000000
FFC7F0
FFC7F0
3E0180
7E0180
7E0180
7E0300
7E0300
7C0300
FC0300
FC0300
FC0700
FC0600
F80600
F80600
F80E00
F80C00
FC1C00
FE3800
7FF000
3FE000
030000
ENDCHAR
STARTCHAR uni01D4
ENCODING 468
SWIDTH 598 0
DWIDTH 18 0
BBX 17 23 2 0
BITMAP
030300
038E00
01DC00
01F800
00F800
00F000
000000
000000
0E0700
7E3F00
FE3E00
3E3E00
7C3E00
7C3E00
7C7C00
7C7C00
F87C00
F87C00
F8FC00
F8F980
FFFF00
FEFE00
FC7C00
ENDCHAR
STARTCHAR uni01D5
ENCODING 469
SWIDTH 677 0
DWIDTH 20 0
BBX 20 30 3 -1
BITMAP
01FFC0
01FF80
000000
000000
01C380
03C7C0
03C780
018300
000000
FFC7F0
FFC7F0
3E0180
7E0180
7E0180
7E0300
7E0300
7C0300
FC0300
FC0300
FC0700
FC0600
F80600
F80600
F80E00
F80C00
FC1C00
FE3800
7FF000
3FE000
030000
ENDCHAR
STARTCHAR uni01D6
ENCODING 470
SWIDTH 598 0
DWIDTH 18 0
BBX 17 25 2 0
BITMAP
03FE00
03FE00
000000
000000
070E00
0F9F00
0F9F00
0F1E00
060C00
000000
0E0700
7E3F00
FE3E00
3E3E00
7C3E00
7C3E00
7C7C00
7C7C00
F87C00
F87C00
F8FC00
F8F980
FFFF00
FEFE00
FC7C00
ENDCHAR
STARTCHAR uni01D7
ENCODING 471
SWIDTH 677 0
DWIDTH 20 0
BBX 20 32 3 -1
BITMAP
000200
000700
000F80
000F00
001E00
001800
03C3C0
03C3C0
03C3C0
038380
000000
FFC7F0
FFC7F0
3E0180
7E0180
7E0180
7E0300
7E0300
7C0300
FC0300
FC0300
FC0700
FC0600
F80600
F80600
F80E00
F80C00
FC1C00
FE3800
7FF000
3FE000
030000
ENDCHAR
STARTCHAR uni01D8
ENCODING 472
SWIDTH 598 0
DWIDTH 18 0
BBX 17 27 2 0
BITMAP
001C00
003C00
003C00
007800
007000
022600
0F0F00
0F9F00
0F1F00
0F0E00
000000
000000
0E0700
7E3F00
FE3E00
3E3E00
7C3E00
7C3E00
7C7C00
7C7C00
F87C00
F87C00
F8FC00
F8F980
FFFF00
FEFE00
FC7C00
ENDCHAR
STARTCHAR uni01D9
ENCODING 473
SWIDTH 677 0
DWIDTH 20 0
BBX 20 32 3 -1
BITMAP
008040
01C1C0
00E780
007F00
003E00
003C00
03C3C0
03C3C0
03C3C0
038380
000000
FFC7F0
FFC7F0
3E0180
7E0180
7E0180
7E0300
7E0300
7C0300
FC0300
FC0300
FC0700
FC0600
F80600
F80600
F80E00
F80C00
FC1C00
FE3800
7FF000
3FE000
030000
ENDCHAR
STARTCHAR uni01DA
ENCODING 474
SWIDTH 598 0
DWIDTH 18 0
BBX 17 27 2 0
BITMAP
060300
030600
03DE00
01FC00
00F800
067600
0F0F00
0F0F00
0F1F00
0F0E00
000000
000000
0E0700
7E3F00
FE3E00
3E3E00
7C3E00
7C3E00
7C7C00
7C7C00
F87C00
F87C00
F8FC00
F8F980
FFFF00
FEFE00
FC7C00
ENDCHAR
STARTCHAR uni01DB
ENCODING 475
SWIDTH 677 0
DWIDTH 20 0
BBX 20 32 3 -1
BITMAP
004000
00E000
00F000
00F800
003800
001800
03C3C0
03C3C0
03C3C0
038380
000000
FFC7F0
FFC7F0
3E0180
7E0180
7E0180
7E0300
7E0300
7C0300
FC0300
FC0300
FC0700
FC0600
F80600
F80600
F80E00
F80C00
FC1C00
FE3800
7FF000
3FE000
030000
ENDCHAR
STARTCHAR uni01DC
ENCODING 476
SWIDTH 598 0
DWIDTH 18 0
BBX 17 27 2 0
BITMAP
038000
03C000
03C000
01C000
00E000
064600
0F1F00
1F1F00
1F1F00
0E0E00
000000
000000
0E0700
7E3F00
FE3E00
3E3E00
7C3E00
7C3E00
7C7C00
7C7C00
F87C00
F87C00
F8FC00
F8F980
FFFF00
FEFE00
FC7C00
ENDCHAR
STARTCHAR Gcaron
ENCODING 486
SWIDTH 662 0
DWIDTH 20 0
BBX 19 28 1 -1
BITMAP
004020
00E0E0
0071C0
003F80
001F00
001E00
000000
00FF00
03FFC0
0FC1C0
1F81C0
1F01C0
3E01C0
7E0000
7E0000
7C0000
FC0000
FC7FE0
FC7FE0
FC0F80
FC1F80
FC1F80
7C1F00
7E1F00
3E1F00
1F9F00
07FE00
00C000
ENDCHAR
STARTCHAR gcaron
ENCODING 487
SWIDTH 550 0
DWIDTH 17 0
BBX 20 30 -1 -7
BITMAP
018180
01C700
00EE00
00FE00
007C00
007800
000000
0000E0
01F9F0
03BDE0
071FE0
0F1F00
0F1E00
1F1E00
1F1E00
0F1C00
0F1C00
07F800
0D8000
1C0000
3FF000
3FFE00
3FFF00
1FFF00
307F00
700F00
F00E00
F81E00
7FF800
3FC000
ENDCHAR
STARTCHAR uni01F8
ENCODING 504
SWIDTH 690 0
DWIDTH 21 0
BBX 24 26 -1 0
BITMAP
007800
007C00
007E00
001F00
000380
000000
0FE0FF
0FE0FE
03F138
03F018
03F838
03F830
06FC30
06FC30
067E30
067E30
063F60
063F60
0C1FE0
0C1FE0
0C0FE0
0C0FC0
0C07C0
1807C0
7F83C0
FF03C0
ENDCHAR
STARTCHAR uni01F9
ENCODING 505
SWIDTH 603 0
DWIDTH 18 0
BBX 18 24 1 0
BITMAP
010000
03C000
03C000
03C000
01E000
00E000
006000
002000
000000
071E00
3F3F00
7FFF00
1FDF00
3F1F00
3E1F00
3E1F00
3E3E00
3E3E00
7C3E00
7C3E00
7C7CC0
7C7F80
7C7F00
F87E00
ENDCHAR
STARTCHAR uni0218
ENCODING 536
SWIDTH 503 0
DWIDTH 15 0
BBX 15 28 1 -8
BITMAP
07F8
0FFE
1E1E
3E1E
3E1E
3E0E
3F00
3F80
3FC0
1FE0
1FF0
0FF8
03F8
01FC
E0FC
E0FC
E0F8
E0F8
F1F0
FFC0
0600
0800
1E00
1E00
1E00
0C00
1C00
3000
ENDCHAR
STARTCHAR uni0219
ENCODING 537
SWIDTH 445 0
DWIDTH 13 0
BBX 13 23 1 -8
BITMAP
07E0
1EF0
3CF0
3C78
3E20
3F00
3F80
1FC0
1FE0
0FE0
43F0
F3E0
F1E0
FBC0
7F80
0000
0800
1E00
3E00
1E00
1C00
1800
3000
ENDCHAR
STARTCHAR uni021A
ENCODING 538
SWIDTH 623 0
DWIDTH 19 0
BBX 19 28 2 -8
BITMAP
7FFFE0
7FFFC0
71F1C0
71F1C0
E3F1C0
E3F1C0
03E000
03E000
03E000
03E000
07E000
07E000
07C000
07C000
07C000
0FC000
0FC000
0F8000
7FF000
7FF000
000000
040000
0F0000
1F0000
0F0000
0E0000
0C0000
180000
ENDCHAR
STARTCHAR uni021B
ENCODING 539
SWIDTH 352 0
DWIDTH 11 0
BBX 11 27 1 -8
BITMAP
0380
0780
0780
0F00
3FE0
7FE0
1F00
1F00
3E00
3E00
3E00
3E00
3E00
7C00
7C00
7C80
7F80
7F00
7E00
0000
2000
F000
F800
F000
7000
6000
C000
ENDCHAR
STARTCHAR uni0237
ENCODING 567
SWIDTH 304 0
DWIDTH 9 0
BBX 11 22 -2 -7
BITMAP
00E0
07E0
0FE0
03E0
07E0
07C0
07C0
07C0
07C0
0FC0
0F80
0F80
0F80
0F80
0F00
1F00
1F00
1E00
1E00
3C00
7800
E000
ENDCHAR
STARTCHAR uni0251
ENCODING 593
SWIDTH 588 0
DWIDTH 18 0
BBX 17 15 1 0
BITMAP
00F980
03FF00
071F00
0E1F00
1E3F00
3C3E00
3C3E00
7C3E00
7C3E00
7C7C00
FC7C00
FCFC80
7FFF80
7F7F00
7E3E00
ENDCHAR
STARTCHAR uni0259
ENCODING 601
SWIDTH 504 0
DWIDTH 15 0
BBX 14 15 1 0
BITMAP
03E0
0FF8
1FF8
38FC
607C
007C
03FC
0F3C
3C7C
7878
F878
F0F0
F1F0
7BE0
7F80
ENDCHAR
STARTCHAR uni0261
ENCODING 609
SWIDTH 560 0
DWIDTH 17 0
BBX 17 22 0 -7
BITMAP
007D80
01FF80
038F80
070F80
0F1F80
1E1F00
1E1F00
3E1F00
3E1F00
3E1F00
7E3E00
3FFE00
3FFE00
3FBE00
1E3E00
003C00
607C00
F07C00
F8F800
F9F800
7FE000
3F8000
ENDCHAR
STARTCHAR h.sups
ENCODING 688
SWIDTH 395 0
DWIDTH 12 0
BBX 11 14 3 12
BITMAP
0C00
7C00
3800
3800
39C0
3FC0
7DC0
71C0
71C0
7380
F380
E3A0
E3C0
E380
ENDCHAR
STARTCHAR j.sups
ENCODING 690
SWIDTH 208 0
DWIDTH 6 0
BBX 8 19 1 8
BITMAP
02
07
07
00
00
06
3E
0E
1E
1C
1C
1C
1C
3C
38
38
38
70
E0
ENDCHAR
STARTCHAR r.sups
ENCODING 691
SWIDTH 317 0
DWIDTH 10 0
BBX 9 10 3 12
BITMAP
1980
FF80
3D80
7800
7800
7000
7000
7000
E000
E000
ENDCHAR
STARTCHAR w.sups
ENCODING 695
SWIDTH 543 0
DWIDTH 16 0
BBX 16 10 3 12
BITMAP
3006
78C7
B9C6
39E6
3BE6
3AEC
3EE8
3CF0
38E0
18E0
ENDCHAR
STARTCHAR y.sups
ENCODING 696
SWIDTH 368 0
DWIDTH 11 0
BBX 12 14 1 8
BITMAP
0C30
1E70
2E70
0E70
0E60
0E40
0EC0
0E80
0700
0700
0600
4400
E800
F000
ENDCHAR
STARTCHAR quoteleft.dup5
ENCODING 699
SWIDTH 272 0
DWIDTH 8 0
BBX 6 9 4 13
BITMAP
0C
18
70
60
E0
F0
F8
F8
F0
ENDCHAR
STARTCHAR quoteright.dup6
ENCODING 700
SWIDTH 272 0
DWIDTH 8 0
BBX 6 10 4 12
BITMAP
30
78
7C
7C
78
38
30
70
C0
80
ENDCHAR
STARTCHAR uni02BE
ENCODING 702
SWIDTH 230 0
DWIDTH 7 0
BBX 5 8 3 15
BITMAP
40
70
38
18
18
38
F0
E0
ENDCHAR
STARTCHAR uni02BF
ENCODING 703
SWIDTH 230 0
DWIDTH 7 0
BBX 5 8 4 15
BITMAP
08
78
70
E0
E0
E0
70
30
ENDCHAR
STARTCHAR circumflex
ENCODING 710
SWIDTH 371 0
DWIDTH 11 0
BBX 10 7 3 16
BITMAP
0600
0F00
1F00
3B80
71C0
E0C0
8040
ENDCHAR
STARTCHAR caron
ENCODING 711
SWIDTH 400 0
DWIDTH 12 0
BBX 10 6 4 17
BITMAP
C0C0
61C0
7780
3F00
3E00
3C00
ENDCHAR
STARTCHAR uni02C8
ENCODING 712
SWIDTH 205 0
DWIDTH 6 0
BBX 5 6 4 16
BITMAP
F8
F0
F0
F0
F0
E0
ENDCHAR
STARTCHAR uni02C9
ENCODING 713
SWIDTH 382 0
DWIDTH 11 0
BBX 10 2 4 18
BITMAP
FFC0
FF80
ENDCHAR
STARTCHAR uni02CA
ENCODING 714
SWIDTH 232 0
DWIDTH 7 0
BBX 6 8 4 16
BITMAP
18
3C
7C
78
78
F0
C0
80
ENDCHAR
STARTCHAR uni02CB
ENCODING 715
SWIDTH 236 0
DWIDTH 7 0
BBX 6 8 3 16
BITMAP
60
F0
F8
F8
78
38
1C
04
ENDCHAR
STARTCHAR uni02CC
ENCODING 716
SWIDTH 180 0
DWIDTH 5 0
BBX 5 6 -2 -8
BITMAP
78
78
78
78
F0
F0
ENDCHAR
STARTCHAR breve
ENCODING 728
SWIDTH 400 0
DWIDTH 12 0
BBX 10 5 4 17
BITMAP
C0C0
C1C0
FF80
7F00
3E00
ENDCHAR
STARTCHAR dotaccent
ENCODING 729
SWIDTH 400 0
DWIDTH 12 0
BBX 5 6 7 17
BITMAP
20
F0
F8
F8
F0
40
ENDCHAR
STARTCHAR ring
ENCODING 730
SWIDTH 400 0
DWIDTH 12 0
BBX 8 7 5 17
BITMAP
1C
7E
E7
C3
C3
E6
7C
ENDCHAR
STARTCHAR ogonek
ENCODING 731
SWIDTH 400 0
DWIDTH 12 0
BBX 7 7 0 -7
BITMAP
1C
30
70
70
F2
7E
78
ENDCHAR
STARTCHAR tilde
ENCODING 732
SWIDTH 400 0
DWIDTH 12 0
BBX 12 5 3 17
BITMAP
1C30
3F70
7FE0
E7E0
4380
ENDCHAR
STARTCHAR hungarumlaut
ENCODING 733
SWIDTH 400 0
DWIDTH 12 0
BBX 11 7 4 17
BITMAP
1860
3CE0
3DE0
79C0
7380
E300
C600
ENDCHAR
STARTCHAR l.sups
ENCODING 737
SWIDTH 213 0
DWIDTH 6 0
BBX 6 14 3 12
BITMAP
0C
7C
38
38
38
38
78
70
70
70
70
F4
F8
F0
ENDCHAR
STARTCHAR s.sups
ENCODING 738
SWIDTH 298 0
DWIDTH 9 0
BBX 8 10 3 12
BITMAP
1E
37
73
78
3C
3E
1E
CE
EE
7C
ENDCHAR
STARTCHAR x.sups
ENCODING 739
SWIDTH 397 0
DWIDTH 12 0
BBX 13 10 2 12
BITMAP
0C30
3E78
2EB0
0F80
0700
0700
0780
6B90
FBE0
71C0
ENDCHAR
STARTCHAR uni0300
ENCODING 768
SWIDTH 0 0
DWIDTH 0 0
BBX 6 8 -2 16
BITMAP
60
F0
F8
F8
78
3C
1C
04
ENDCHAR
STARTCHAR uni0301
ENCODING 769
SWIDTH 0 0
DWIDTH 0 0
BBX 6 8 3 16
BITMAP
18
3C
7C
7C
78
F0
E0
80
ENDCHAR
STARTCHAR uni0302
ENCODING 770
SWIDTH 0 0
DWIDTH 0 0
BBX 11 7 -2 16
BITMAP
0700
0F00
1F80
3FC0
79C0
E0E0
4040
ENDCHAR
STARTCHAR uni0303
ENCODING 771
SWIDTH 0 0
DWIDTH 0 0
BBX 12 5 -2 17
BITMAP
1C30
3F70
7FE0
67E0
C3C0
ENDCHAR
STARTCHAR uni0304
ENCODING 772
SWIDTH 0 0
DWIDTH 0 0
BBX 10 2 -1 18
BITMAP
7FC0
FFC0
ENDCHAR
STARTCHAR uni0306
ENCODING 774
SWIDTH 0 0
DWIDTH 0 0
BBX 10 5 -1 17
BITMAP
C040
E0C0
FF80
7F80
3E00
ENDCHAR
STARTCHAR uni0307
ENCODING 775
SWIDTH 0 0
DWIDTH 0 0
BBX 5 6 2 17
BITMAP
20
F0
F8
F8
F0
60
ENDCHAR
STARTCHAR uni0308
ENCODING 776
SWIDTH 0 0
DWIDTH 0 0
BBX 12 5 -2 17
BITMAP
78F0
F9F0
F9F0
78F0
2040
ENDCHAR
STARTCHAR uni0309
ENCODING 777
SWIDTH 0 0
DWIDTH 0 0
BBX 5 7 2 17
BITMAP
E0
F0
F8
78
38
F8
60
ENDCHAR
STARTCHAR uni030A
ENCODING 778
SWIDTH 0 0
DWIDTH 0 0
BBX 8 7 0 17
BITMAP
1C
7F
63
E3
E3
77
7E
ENDCHAR
STARTCHAR uni030B
ENCODING 779
SWIDTH 0 0
DWIDTH 0 0
BBX 11 7 0 17
BITMAP
1C60
3CE0
3DE0
79C0
7380
E300
C600
ENDCHAR
STARTCHAR uni030C
ENCODING 780
SWIDTH 0 0
DWIDTH 0 0
BBX 10 6 0 17
BITMAP
C0C0
E380
7700
7E00
3E00
3C00
ENDCHAR
STARTCHAR uni031B
ENCODING 795
SWIDTH 0 0
DWIDTH 0 0
BBX 6 8 0 11
BITMAP
1C
1C
1C
1C
1C
38
F0
80
ENDCHAR
STARTCHAR uni0323
ENCODING 803
SWIDTH 0 0
DWIDTH 0 0
BBX 5 6 -3 -7
BITMAP
20
F0
F8
F0
F0
40
ENDCHAR
STARTCHAR uni0324
ENCODING 804
SWIDTH 0 0
DWIDTH 0 0
BBX 12 5 -7 -7
BITMAP
78F0
F9F0
F9F0
78F0
2040
ENDCHAR
STARTCHAR uni0326
ENCODING 806
SWIDTH 0 0
DWIDTH 0 0
BBX 4 7 -3 -8
BITMAP
20
F0
F0
F0
70
E0
C0
ENDCHAR
STARTCHAR uni0327
ENCODING 807
SWIDTH 0 0
DWIDTH 0 0
BBX 7 7 -4 -7
BITMAP
18
10
3C
0E
0E
7E
F8
ENDCHAR
STARTCHAR uni0328
ENCODING 808
SWIDTH 0 0
DWIDTH 0 0
BBX 7 7 -4 -7
BITMAP
18
30
70
E0
F4
FE
78
ENDCHAR
STARTCHAR uni0329
ENCODING 809
SWIDTH 0 0
DWIDTH 0 0
BBX 5 6 -4 -8
BITMAP
38
78
78
78
78
F8
ENDCHAR
STARTCHAR uni032E
ENCODING 814
SWIDTH 0 0
DWIDTH 0 0
BBX 10 5 -6 -7
BITMAP
C040
E0C0
7F80
7F80
3F00
ENDCHAR
STARTCHAR uni0331
ENCODING 817
SWIDTH 0 0
DWIDTH 0 0
BBX 10 2 -6 -6
BITMAP
7FC0
FF80
ENDCHAR
STARTCHAR uni0374
ENCODING 884
SWIDTH 259 0
DWIDTH 8 0
BBX 6 11 3 11
BITMAP
18
3C
3C
3C
7C
78
70
F0
E0
E0
C0
ENDCHAR
STARTCHAR uni0375
ENCODING 885
SWIDTH 259 0
DWIDTH 8 0
BBX 7 11 -1 -4
BITMAP
04
0E
0E
1C
3C
3C
78
78
F8
F8
70
ENDCHAR
STARTCHAR uni037E
ENCODING 894
SWIDTH 338 0
DWIDTH 10 0
BBX 9 20 0 -5
BITMAP
0F80
0F80
1F80
1F80
0F00
0000
0000
0000
0000
0000
3C00
7E00
7E00
7E00
3C00
1C00
1800
3800
E000
8000
ENDCHAR
STARTCHAR tonos
ENCODING 900
SWIDTH 400 0
DWIDTH 12 0
BBX 6 8 7 16
BITMAP
18
3C
7C
7C
78
70
60
C0
ENDCHAR
STARTCHAR dieresistonos
ENCODING 901
SWIDTH 400 0
DWIDTH 12 0
BBX 13 8 4 16
BITMAP
0600
0F00
EF38
EF78
EF78
EE70
0C00
0400
ENDCHAR
STARTCHAR Alphatonos
ENCODING 902
SWIDTH 693 0
DWIDTH 21 0
BBX 21 20 -1 0
BITMAP
070F00
079F00
0F9F00
0F3F00
0F3F00
0E7F00
186F80
00CF80
00CF80
018F80
018F80
030F80
0307C0
07FFC0
07FFC0
0C07C0
0C07C0
1807C0
FE1FF8
FE1FF8
ENDCHAR
STARTCHAR anoteleia
ENCODING 903
SWIDTH 315 0
DWIDTH 9 0
BBX 6 5 3 10
BITMAP
7C
7C
FC
FC
78
ENDCHAR
STARTCHAR Epsilontonos
ENCODING 904
SWIDTH 788 0
DWIDTH 24 0
BBX 22 20 2 0
BITMAP
39FFFC
7DFFFC
787E1C
787C1C
707C1C
E07C18
C0FC00
00FC60
00F8C0
00FFC0
00FFC0
00F8C0
01F8C0
01F000
01F000
01F038
01F070
03F070
0FFFF0
0FFFF0
ENDCHAR
STARTCHAR Etatonos
ENCODING 905
SWIDTH 947 0
DWIDTH 28 0
BBX 28 20 2 0
BITMAP
39FFBFF0
7DFFBFF0
787E0F80
787C0F80
707C0F80
E07C0F80
C0FC1F80
00FC1F80
00F81F00
00FFFF00
00FFFF00
00F83F00
01F83F00
01F03E00
01F03E00
01F03E00
01F03E00
03F07E00
0FFDFF80
0FFDFF80
ENDCHAR
STARTCHAR Iotatonos
ENCODING 906
SWIDTH 582 0
DWIDTH 17 0
BBX 17 20 2 0
BITMAP
39FF80
7DFF80
787E00
787C00
707C00
E07C00
C0FC00
00FC00
00F800
00F800
00F800
00F800
01F800
01F000
01F000
01F000
01F000
03F000
0FFC00
0FFC00
ENDCHAR
STARTCHAR Omicrontonos
ENCODING 908
SWIDTH 821 0
DWIDTH 25 0
BBX 23 21 2 -1
BITMAP
381FE0
7C7FF0
78F878
79F07C
73E07C
E7E07E
C7C03E
0FC07E
0FC07E
0F807E
0F807E
0F807E
0F807C
0F80FC
0F80F8
0F80F8
0F81F0
07C3E0
03E7C0
01FF00
003000
ENDCHAR
STARTCHAR Upsilontonos
ENCODING 910
SWIDTH 821 0
DWIDTH 25 0
BBX 26 20 2 0
BITMAP
39FF8FC0
7DFF8F80
787E1700
787E0600
707E0C00
E03E1800
C03F1800
003F3000
001F6000
001F6000
001FC000
000F8000
000F8000
000F8000
001F8000
001F8000
001F0000
001F0000
00FFE000
00FFC000
ENDCHAR
STARTCHAR Omegatonos
ENCODING 911
SWIDTH 866 0
DWIDTH 26 0
BBX 23 20 2 0
BITMAP
381FE0
7C7FF8
78F87C
79F03C
73F03E
E3E03E
C3E03E
07E03E
07E03E
07E03E
07E07E
07E07C
03E078
03E0F8
0DF1F6
0CF3C6
0C330E
1FF3FC
1FF3FC
1FF3FC
ENDCHAR
STARTCHAR iotadieresistonos
ENCODING 912
SWIDTH 311 0
DWIDTH 9 0
BBX 14 24 1 0
BITMAP
0300
0780
7798
77BC
F73C
7738
0600
0400
0000
1F00
3F00
3E00
3E00
3E00
3E00
7C00
7C00
7C00
7C00
7C00
7C00
7F00
7E00
7C00
ENDCHAR
STARTCHAR Alpha
ENCODING 913
SWIDTH 693 0
DWIDTH 21 0
BBX 21 20 -1 0
BITMAP
000F00
001F00
001F00
003F00
003F00
007F00
006F80
00CF80
00CF80
018F80
018F80
030F80
0307C0
07FFC0
07FFC0
0C07C0
0C07C0
1807C0
FE1FF8
FE1FF8
ENDCHAR
STARTCHAR Beta
ENCODING 914
SWIDTH 639 0
DWIDTH 19 0
BBX 19 20 0 0
BITMAP
1FF800
1FFF80
07EFC0
07C7E0
07C3E0
07C3E0
07C7E0
0FC7C0
0F8F80
0FFC00
0FFF00
0F8780
1F87C0
1F87C0
1F07C0
1F07C0
1F07C0
3F1F80
FFFF00
FFFC00
ENDCHAR
STARTCHAR Gamma
ENCODING 915
SWIDTH 549 0
DWIDTH 16 0
BBX 18 20 0 0
BITMAP
1FFFC0
1FFFC0
07E1C0
07C1C0
07C1C0
07C180
07C000
0FC000
0F8000
0F8000
0F8000
0F8000
1F8000
1F0000
1F0000
1F0000
1F0000
3F0000
FFC000
FFC000
ENDCHAR
STARTCHAR Delta.dup7
ENCODING 916
SWIDTH 601 0
DWIDTH 18 0
BBX 17 20 0 0
BITMAP
003800
007800
00F800
00FC00
01FC00
017C00
037C00
027E00
063E00
0C3E00
0C3E00
183E00
183F00
301F00
301F00
601F00
401F80
FFFF80
FFFF80
FFFF00
ENDCHAR
STARTCHAR Epsilon
ENCODING 917
SWIDTH 587 0
DWIDTH 18 0
BBX 18 20 0 0
BITMAP
1FFFC0
1FFFC0
07E1C0
07C1C0
07C1C0
07C1C0
07C000
0FC600
0F8C00
0FFC00
0FFC00
0F8C00
1F8C00
1F8000
1F0000
1F0380
1F0300
3F0700
FFFF00
FFFF00
ENDCHAR
STARTCHAR Zeta
ENCODING 918
SWIDTH 547 0
DWIDTH 16 0
BBX 18 20 0 0
BITMAP
1FFFC0
1FFFC0
1C1F80
1C1F80
383F00
387E00
007E00
00FC00
01F800
03F000
03F000
07E000
0FC000
0FC000
1F8700
3F0700
7E0700
7E0E00
FFFE00
FFFE00
ENDCHAR
STARTCHAR Eta
ENCODING 919
SWIDTH 749 0
DWIDTH 22 0
BBX 24 20 0 0
BITMAP
1FFBFF
1FFBFF
07E0FC
07C0F8
07C0F8
07C0F8
07C1F8
0FC1F8
0F81F0
0FFFF0
0FFFF0
0F81F0
1F83F0
1F83E0
1F03E0
1F03E0
1F03E0
3F07E0
FFDFF8
FFDFF8
ENDCHAR
STARTCHAR Theta
ENCODING 920
SWIDTH 672 0
DWIDTH 20 0
BBX 19 21 1 -1
BITMAP
00FE00
03FF80
0F87C0
1F03C0
1F03E0
3E03E0
7E03E0
7C9BE0
7D9BE0
FDFBE0
FDF3E0
FD93E0
FD37E0
FE07C0
FC07C0
7C0F80
7C0F80
7C1F00
3E7E00
0FF800
01C000
ENDCHAR
STARTCHAR Iota
ENCODING 921
SWIDTH 384 0
DWIDTH 12 0
BBX 13 20 0 0
BITMAP
1FF8
1FF8
07E0
07C0
07C0
07C0
07C0
0FC0
0F80
0F80
0F80
0F80
1F80
1F00
1F00
1F00
1F00
3F00
FFC0
FFC0
ENDCHAR
STARTCHAR Kappa
ENCODING 922
SWIDTH 688 0
DWIDTH 21 0
BBX 22 20 0 0
BITMAP
1FF8FC
1FF9FC
07C070
07C0C0
07C180
0FC300
0FC600
0F8C00
0F9C00
0FBC00
0FFE00
1FFE00
1FBF00
1F1F00
1F1F80
1F0F80
3F0FC0
3F07C0
FF8FF0
FF9FF0
ENDCHAR
STARTCHAR Lambda
ENCODING 923
SWIDTH 693 0
DWIDTH 21 0
BBX 21 20 -1 0
BITMAP
000F00
001F00
001F00
003F00
003F00
007F00
006F80
00CF80
00CF80
018F80
018F80
030F80
0307C0
0607C0
0607C0
0C07C0
0C07C0
1807C0
FE1FF8
FE1FF8
ENDCHAR
STARTCHAR Mu
ENCODING 924
SWIDTH 899 0
DWIDTH 27 0
BBX 29 20 -1 0
BITMAP
07F003F8
07F807F8
01F807E0
01F80FC0
01F80FC0
01F81FC0
03FC37C0
03FC3FC0
037C6FC0
027C6F80
067CCF80
067CCF80
067F8F80
043F0F80
043F1F80
0C3E1F80
0C3E1F00
0C3C1F00
7F1C7FC0
FF18FFC0
ENDCHAR
STARTCHAR Nu
ENCODING 925
SWIDTH 690 0
DWIDTH 21 0
BBX 24 20 -1 0
BITMAP
0FE0FF
0FE0FE
03F138
03F018
03F838
03F830
06FC30
06FC30
067E30
067E30
063F60
063F60
0C1FE0
0C1FE0
0C0FE0
0C0FC0
0C07C0
1807C0
7F83C0
FF03C0
ENDCHAR
STARTCHAR Xi
ENCODING 926
SWIDTH 575 0
DWIDTH 17 0
BBX 19 20 0 0
BITMAP
0FFFE0
0FFFC0
1FFFC0
1FFFC0
1800C0
1800C0
000100
060600
060C00
07FC00
07FC00
07FC00
0E0C00
000000
600300
600300
7FFF00
FFFF00
FFFE00
FFFE00
ENDCHAR
STARTCHAR Omicron
ENCODING 927
SWIDTH 672 0
DWIDTH 20 0
BBX 19 21 1 -1
BITMAP
00FE00
03FF80
0F87C0
1F03C0
1F03E0
3E03E0
7E03E0
7C03E0
7C03E0
FC03E0
FC03E0
FC03E0
FC07E0
FC07C0
FC07C0
7C0F80
7C0F80
7C1F00
3E7E00
0FF800
01C000
ENDCHAR
STARTCHAR Pi
ENCODING 928
SWIDTH 744 0
DWIDTH 22 0
BBX 24 20 0 0
BITMAP
1FFFFF
1FFFFF
07E0F8
07C0F8
07C0F8
07C1F8
07C1F8
0FC1F0
0F81F0
0F81F0
0F81F0
0F83F0
1F83E0
1F03E0
1F03E0
1F03E0
1F07E0
3F07E0
FFDFF8
FFDFF0
ENDCHAR
STARTCHAR Rho
ENCODING 929
SWIDTH 607 0
DWIDTH 18 0
BBX 19 20 0 0
BITMAP
1FF000
1FFF80
07EFC0
07C7E0
07C3E0
07C3E0
07C3E0
0FC3E0
0F87C0
0F87C0
0F9F80
0FFE00
1FE000
1F8000
1F0000
1F0000
1F0000
3F0000
FFC000
FFC000
ENDCHAR
STARTCHAR Sigma
ENCODING 931
SWIDTH 563 0
DWIDTH 17 0
BBX 18 20 0 0
BITMAP
1FFFC0
1FFFC0
1F83C0
0F8380
0FC380
07C380
07C000
03E000
03E000
01F000
01E000
03C000
078380
0F0700
1E0700
3C0700
7FFF00
7FFF00
FFFE00
FFFE00
ENDCHAR
STARTCHAR Tau
ENCODING 932
SWIDTH 623 0
DWIDTH 19 0
BBX 19 20 2 0
BITMAP
7FFFE0
7FFFC0
71F1C0
71F1C0
E3F1C0
E3F1C0
03E000
03E000
03E000
03E000
07E000
07E000
07C000
07C000
07C000
0FC000
0FC000
0F8000
7FF000
7FF000
ENDCHAR
STARTCHAR Upsilon
ENCODING 933
SWIDTH 583 0
DWIDTH 17 0
BBX 19 20 2 0
BITMAP
FFC7E0
FFCFC0
3E0380
3F0300
3F0600
1F0C00
1F8C00
1F9800
0FB000
0FB000
0FE000
0FC000
07C000
07C000
0FC000
0F8000
0F8000
0F8000
7FE000
7FE000
ENDCHAR
STARTCHAR Phi
ENCODING 934
SWIDTH 786 0
DWIDTH 24 0
BBX 23 20 1 0
BITMAP
007FC0
00FFC0
003E00
003E00
07FFF0
1FFFF8
3F3E7C
7E3E7E
7C7C7E
FC7C7E
FC7C7E
FC7C7C
7C7CFC
7CF8F8
3FFFF0
1FFFC0
00F800
00F800
07FE00
07FE00
ENDCHAR
STARTCHAR Chi
ENCODING 935
SWIDTH 644 0
DWIDTH 19 0
BBX 21 20 0 0
BITMAP
1FF9F8
1FF1F8
07C0E0
07E1C0
07E180
03F300
03F600
03FC00
01FC00
01F800
00F800
00FC00
01FC00
037E00
067E00
0C3E00
1C3F00
383F00
FCFFC0
FCFFC0
ENDCHAR
STARTCHAR Psi
ENCODING 936
SWIDTH 848 0
DWIDTH 25 0
BBX 26 20 2 0
BITMAP
707FC0C0
FCFF8FC0
7C3E1F00
3E3E1F00
3E3E3E00
3E3E3E00
3E7E3E00
3E7C7C00
3E7C7C00
3E7C7800
3E7CF800
1FFDF000
0FFFC000
00FC0000
00F80000
00F80000
00F80000
01F80000
07FE0000
07FC0000
ENDCHAR
STARTCHAR Omega.dup8
ENCODING 937
SWIDTH 717 0
DWIDTH 22 0
BBX 20 20 1 0
BITMAP
00FE00
03FF80
07C3C0
0F83E0
1F03E0
3F03F0
3E03F0
3E03F0
3E03F0
3E03F0
3E03E0
3E07E0
3E07C0
1F0F80
CF0F70
C79E60
E39860
FF9FE0
FF1FE0
FF1FE0
ENDCHAR
STARTCHAR Iotadieresis
ENCODING 938
SWIDTH 384 0
DWIDTH 12 0
BBX 14 25 0 0
BITMAP
0F3C
0F3C
0F3C
0638
0000
1FF8
1FF8
07E0
07C0
07C0
07C0
07C0
0FC0
0F80
0F80
0F80
0F80
1F80
1F00
1F00
1F00
1F00
3F00
FFC0
FFC0
ENDCHAR
STARTCHAR Upsilondieresis
ENCODING 939
SWIDTH 583 0
DWIDTH 17 0
BBX 19 25 2 0
BITMAP
03C380
03C7C0
03C780
018300
000000
FFC7E0
FFCFC0
3E0380
3F0300
3F0600
1F0C00
1F8C00
1F9800
0FB000
0FB000
0FE000
0FC000
07C000
07C000
0FC000
0F8000
0F8000
0F8000
7FE000
7FE000
ENDCHAR
STARTCHAR alphatonos
ENCODING 940
SWIDTH 635 0
DWIDTH 19 0
BBX 19 24 1 0
BITMAP
001800
003C00
003C00
003C00
007800
007000
006000
004000
000000
03E180
0FF1E0
1F7BE0
1E7BC0
3C7F80
7C7F00
7C7E00
787C00
F87C00
F87C00
F87C00
FCFE00
FFBFC0
7F3F80
7E3F00
ENDCHAR
STARTCHAR epsilontonos
ENCODING 941
SWIDTH 494 0
DWIDTH 15 0
BBX 14 24 1 0
BITMAP
0030
0078
0078
0078
00F0
00E0
00C0
0080
0000
0FF8
1FFC
3E7C
7C3C
7C00
3E00
3FE0
0FE0
3FC0
7C00
F808
FC1C
FFF8
7FF0
3FC0
ENDCHAR
STARTCHAR etatonos
ENCODING 942
SWIDTH 561 0
DWIDTH 17 0
BBX 16 30 1 -6
BITMAP
001C
003C
003E
003C
003C
0078
0070
0020
0000
1E1E
3F7F
7FFF
7FFF
1F1F
3E1F
3E1E
3E1E
3E3E
7E3E
7C3E
7C3E
7C7C
FC7C
FC7C
007C
00FC
00F8
00F8
00F8
01F0
ENDCHAR
STARTCHAR iotatonos
ENCODING 943
SWIDTH 311 0
DWIDTH 9 0
BBX 10 24 2 0
BITMAP
0380
0780
07C0
0780
0780
0F00
0E00
0400
0000
3E00
7E00
7C00
7C00
7C00
7C00
F800
F800
F800
F800
F800
F800
FE00
FC00
F800
ENDCHAR
STARTCHAR upsilondieresistonos
ENCODING 944
SWIDTH 547 0
DWIDTH 16 0
BBX 16 24 2 0
BITMAP
0060
00F0
0EF7
1EF7
1EE7
0CC7
00C0
0080
0000
3C3C
7E3C
FE3C
FE3C
3E3C
3C3C
7C1C
7C1C
7C1C
7C18
F818
F830
7C70
7FE0
3FC0
ENDCHAR
STARTCHAR alpha
ENCODING 945
SWIDTH 635 0
DWIDTH 19 0
BBX 19 15 1 0
BITMAP
03E180
0FF1E0
1F7BE0
1E7BC0
3C7F80
7C7F00
7C7E00
787C00
F87C00
F87C00
F87C00
FCFE00
FFBFC0
7F3F80
7E3F00
ENDCHAR
STARTCHAR beta
ENCODING 946
SWIDTH 592 0
DWIDTH 18 0
BBX 18 28 0 -6
BITMAP
003800
00FF00
03C780
07C7C0
0783C0
0F87C0
0F87C0
0F87C0
0F8F80
1F1E00
1F7800
1F7E00
1F3F80
1F0F80
3F07C0
3E07C0
3E07C0
3E07C0
3E0F80
7F3F80
7FFF00
7DFE00
7C0000
7C0000
FC0000
FC0000
FC0000
F00000
ENDCHAR
STARTCHAR gamma
ENCODING 947
SWIDTH 530 0
DWIDTH 16 0
BBX 16 21 1 -6
BITMAP
1E1E
7E1E
FF1F
7F1E
1F1E
1F1C
1F1C
1F18
1F38
1F30
0F60
0F60
0FC0
0F80
0F00
0F00
0F00
1F00
1F00
3F00
3C00
ENDCHAR
STARTCHAR delta
ENCODING 948
SWIDTH 537 0
DWIDTH 16 0
BBX 16 22 1 0
BITMAP
0070
03FC
079F
0F8F
0F87
0F83
0FC0
07E0
03F0
01F8
0FFC
1E7C
3C7E
7C3E
7C3E
F83E
F83E
F83C
F87C
7C78
3CF0
1FC0
ENDCHAR
STARTCHAR epsilon
ENCODING 949
SWIDTH 494 0
DWIDTH 15 0
BBX 14 15 1 0
BITMAP
0FF8
1FFC
3E7C
7C3C
7C00
3E00
3FE0
0FE0
3FC0
7C00
F808
FC1C
FFF8
7FF0
3FC0
ENDCHAR
STARTCHAR zeta
ENCODING 950
SWIDTH 414 0
DWIDTH 12 0
BBX 14 28 1 -6
BITMAP
1FF8
1FFC
1FFC
1FFC
0038
0070
00E0
01C0
0380
0700
0E00
1E00
3C00
7C00
7C00
7800
FC00
FC00
7F80
7FC0
3FE0
1FF0
03F0
01E0
01E0
01C0
01C0
0300
ENDCHAR
STARTCHAR eta
ENCODING 951
SWIDTH 561 0
DWIDTH 17 0
BBX 16 21 1 -6
BITMAP
1E1E
3F7F
7FFF
7FFF
1F1F
3E1F
3E1E
3E1E
3E3E
7E3E
7C3E
7C3E
7C7C
FC7C
FC7C
007C
00FC
00F8
00F8
00F8
01F0
ENDCHAR
STARTCHAR theta
ENCODING 952
SWIDTH 553 0
DWIDTH 17 0
BBX 16 22 2 0
BITMAP
0060
03F8
073C
0F1E
1E1E
3E1E
3C1F
7C1F
7C3F
FC3F
FFFE
FFFE
F83E
F83E
F87C
F87C
F87C
F878
F8F0
F8F0
79E0
3F80
ENDCHAR
STARTCHAR iota
ENCODING 953
SWIDTH 311 0
DWIDTH 9 0
BBX 7 15 2 0
BITMAP
3E
7E
7C
7C
7C
7C
F8
F8
F8
F8
F8
F8
FE
FC
F8
ENDCHAR
STARTCHAR kappa
ENCODING 954
SWIDTH 577 0
DWIDTH 17 0
BBX 17 15 1 0
BITMAP
1E0300
3F0780
7F0F80
7F1F80
1F3F00
3EFC00
3FC000
3F8000
3FF000
7EF800
7CF800
7CF800
7C7F80
FC7F00
FC7E00
ENDCHAR
STARTCHAR lambda
ENCODING 955
SWIDTH 593 0
DWIDTH 18 0
BBX 19 22 -1 0
BITMAP
018000
07E000
0FF000
1FF000
0FF800
003800
001800
003800
003800
007800
00FC00
01FC00
01FC00
03EC00
07CC00
07CC00
0F8E00
1F8E20
3F0FE0
3E0FE0
7E0FC0
FC0780
ENDCHAR
STARTCHAR mu
ENCODING 956
SWIDTH 584 0
DWIDTH 18 0
BBX 19 21 -1 -6
BITMAP
07C3E0
0FC7C0
0F87C0
0F87C0
0F8FC0
0F8F80
0F8F80
1F0F80
1F0F80
1F1F00
1F1F00
1F3F00
1FFFE0
3FFFC0
3FCF80
3C0000
7C0000
7C0000
7C0000
FC0000
F00000
ENDCHAR
STARTCHAR nu
ENCODING 957
SWIDTH 535 0
DWIDTH 16 0
BBX 16 15 1 0
BITMAP
1E0F
3F1F
FF1F
7F1F
1F1E
1F1E
1F0C
1F18
1F18
0F30
0F60
0FC0
0FC0
0F80
0F00
ENDCHAR
STARTCHAR xi
ENCODING 958
SWIDTH 444 0
DWIDTH 13 0
BBX 15 28 1 -6
BITMAP
1FFE
1FFC
3FFC
3FFC
03E0
0F00
1F00
1F00
1F00
1FF0
1FF0
07F0
1FF0
3E00
7C00
7800
FC00
FC00
7F80
7FC0
3FE0
1FF0
03F0
01E0
01E0
01C0
0180
0300
ENDCHAR
STARTCHAR omicron
ENCODING 959
SWIDTH 547 0
DWIDTH 16 0
BBX 15 15 1 0
BITMAP
03F0
0FFC
1F3E
3E3E
3E3E
7C3E
7C3E
7C3E
FC3E
F83E
F87C
787C
7CF8
3DF0
1FC0
ENDCHAR
STARTCHAR pi
ENCODING 960
SWIDTH 641 0
DWIDTH 19 0
BBX 19 15 1 0
BITMAP
07FFE0
3FFFE0
7FFFE0
7FFFE0
731E20
061E00
063E00
063C00
0E3C00
0E3C00
0C7C00
FC7C00
FC7F80
F87F00
F03E00
ENDCHAR
STARTCHAR rho
ENCODING 961
SWIDTH 558 0
DWIDTH 17 0
BBX 18 21 -1 -6
BITMAP
00FE00
01FF00
03CF80
078780
0F87C0
0F87C0
0F87C0
1F0FC0
1F0F80
1F0F80
1F0F80
3F1F00
3E3E00
3FFC00
3FF800
7E0000
7C0000
7C0000
7C0000
7C0000
F80000
ENDCHAR
STARTCHAR uni03C2
ENCODING 962
SWIDTH 483 0
DWIDTH 14 0
BBX 14 21 2 -6
BITMAP
07F0
1FF8
3CFC
7878
7800
F000
F000
F000
F000
F800
FC00
FF00
FFC0
7FC0
1FE0
07E0
03E0
03C0
03C0
0380
0700
ENDCHAR
STARTCHAR sigma
ENCODING 963
SWIDTH 617 0
DWIDTH 19 0
BBX 19 15 1 0
BITMAP
01FFE0
07FFC0
0FFFC0
1F3BC0
3E3C00
7C3C00
7C3E00
FC3E00
F83E00
F83E00
F87C00
787C00
787800
3DF000
1FE000
ENDCHAR
STARTCHAR tau
ENCODING 964
SWIDTH 499 0
DWIDTH 15 0
BBX 15 15 1 0
BITMAP
0FFE
3FFE
7FFE
FFFE
7782
0780
0780
0780
0F80
0F80
0F00
0F00
1FE0
1FE0
0FC0
ENDCHAR
STARTCHAR upsilon
ENCODING 965
SWIDTH 547 0
DWIDTH 16 0
BBX 14 15 2 0
BITMAP
3C3C
7E3C
FE3C
FE3C
3E3C
3C3C
7C1C
7C1C
7C1C
7C18
F818
F830
7C70
7FE0
3FC0
ENDCHAR
STARTCHAR phi
ENCODING 966
SWIDTH 779 0
DWIDTH 23 0
BBX 22 21 1 -6
BITMAP
0187E0
078FF8
1F1E7C
3E3C7C
3E3C7C
7C3C7C
7C7C7C
7C787C
FC787C
F878FC
7CF8F8
7CF9F0
7CFBE0
3EFFC0
0FFF00
01F000
01F000
01F000
03F000
03E000
03C000
ENDCHAR
STARTCHAR chi
ENCODING 967
SWIDTH 570 0
DWIDTH 17 0
BBX 20 21 -1 -6
BITMAP
0F03F0
1F83E0
3F87C0
178FC0
018F80
00DF00
00DE00
00FE00
00FC00
00F800
01F000
01E000
03E000
07E000
0FB000
1FB000
1F3800
3E3F80
7E1F80
FC1F80
7C0F00
ENDCHAR
STARTCHAR psi
ENCODING 968
SWIDTH 711 0
DWIDTH 21 0
BBX 20 26 2 -6
BITMAP
000400
001E00
001C00
001C00
003C00
3C3CE0
7E3DF0
FE3DF0
FE39F0
3E79F0
3C78F0
7C78E0
7C7860
7C7860
78F8E0
78F0C0
78F180
7CF300
7FFE00
1FFC00
01F000
01F000
01E000
03E000
03E000
03C000
ENDCHAR
STARTCHAR omega
ENCODING 969
SWIDTH 779 0
DWIDTH 23 0
BBX 22 15 1 0
BITMAP
00C0C0
0380F0
0F0078
1F0078
3E3E7C
7C3E3C
7C7C3C
7C7C7C
FC7C7C
F87C7C
F8787C
F8F8F8
7CDCF0
7FDFF0
3F8FC0
ENDCHAR
STARTCHAR iotadieresis
ENCODING 970
SWIDTH 311 0
DWIDTH 9 0
BBX 11 22 2 0
BITMAP
79E0
7BE0
FBE0
7BC0
2080
0000
0000
3E00
7E00
7C00
7C00
7C00
7C00
F800
F800
F800
F800
F800
F800
FE00
FC00
F800
ENDCHAR
STARTCHAR upsilondieresis
ENCODING 971
SWIDTH 547 0
DWIDTH 16 0
BBX 15 22 2 0
BITMAP
0F1E
1F3E
1F3E
0F1E
0408
0000
0000
3C3C
7E3C
FE3C
FE3C
3E3C
3C3C
7C1C
7C1C
7C1C
7C18
F818
F830
7C70
7FE0
3FC0
ENDCHAR
STARTCHAR omicrontonos
ENCODING 972
SWIDTH 547 0
DWIDTH 16 0
BBX 15 24 1 0
BITMAP
0018
003C
003C
003C
0078
0070
0060
0040
0000
03F0
0FFC
1F3E
3E3E
3E3E
7C3E
7C3E
7C3E
FC3E
F83E
F87C
787C
7CF8
3DF0
1FC0
ENDCHAR
STARTCHAR upsilontonos
ENCODING 973
SWIDTH 547 0
DWIDTH 16 0
BBX 14 24 2 0
BITMAP
0030
0078
0078
0078
00F0
00E0
00C0
0080
0000
3C3C
7E3C
FE3C
FE3C
3E3C
3C3C
7C1C
7C1C
7C1C
7C18
F818
F830
7C70
7FE0
3FC0
ENDCHAR
STARTCHAR omegatonos
ENCODING 974
SWIDTH 779 0
DWIDTH 23 0
BBX 22 24 1 0
BITMAP
000300
000780
000780
000780
000F00
000E00
000C00
000800
000000
00C0C0
0380F0
0F0078
1F0078
3E3E7C
7C3E3C
7C7C3C
7C7C7C
FC7C7C
F87C7C
F8787C
F8F8F8
7CDCF0
7FDFF0
3F8FC0
ENDCHAR
STARTCHAR uni03D7
ENCODING 983
SWIDTH 572 0
DWIDTH 17 0
BBX 19 22 -1 -7
BITMAP
0780C0
0FC1E0
1FC3E0
1FC7E0
07CFC0
0FBF00
0FF000
0FE000
0FFC00
1FBE00
1F3E00
1F3E00
1F1FE0
3F1FC0
3F1F80
000180
000300
600E00
FFFE00
7FFC00
3FF000
0FC000
ENDCHAR
STARTCHAR uni03D9
ENCODING 985
SWIDTH 547 0
DWIDTH 16 0
BBX 15 21 1 -6
BITMAP
03F0
0FFC
1F3E
3E3E
3E3E
7C3E
7C3E
7C3E
FC3E
F83E
F87C
787C
7CF8
3DF0
1FC0
0F00
0F00
1F00
1F00
3F00
3C00
ENDCHAR
STARTCHAR uni03DB
ENCODING 987
SWIDTH 476 0
DWIDTH 14 0
BBX 15 24 2 -6
BITMAP
0006
000E
001C
01FC
0FFC
3FF8
7FF0
7FC0
F000
C000
C000
C000
F000
F800
FE00
7F80
7FC0
1FE0
0FE0
03E0
03C0
03C0
0380
0600
ENDCHAR
STARTCHAR uni03DD
ENCODING 989
SWIDTH 493 0
DWIDTH 15 0
BBX 16 21 0 -6
BITMAP
001F
0FFF
0F9F
0F80
0F80
1F00
1F00
1F00
1F00
1FF8
1FF8
3E00
3E00
3C00
3C00
7C00
7C00
7C00
FC00
F800
F000
ENDCHAR
STARTCHAR uni03E1
ENCODING 993
SWIDTH 630 0
DWIDTH 19 0
BBX 15 27 3 -5
BITMAP
3000
3F00
1FC0
07E0
03F0
01F8
00F8
007C
007C
07FE
FFFE
FFBE
F83E
803E
003E
007E
7FFE
FFFC
FE7C
E07C
0078
00F8
00F0
01E0
01C0
0380
0300
ENDCHAR
STARTCHAR uni0400
ENCODING 1024
SWIDTH 587 0
DWIDTH 18 0
BBX 18 26 0 0
BITMAP
01C000
01F000
01F800
00FC00
001C00
000000
1FFFC0
1FFFC0
07E1C0
07C1C0
07C1C0
07C1C0
07C000
0FC600
0F8C00
0FFC00
0FFC00
0F8C00
1F8C00
1F8000
1F0000
1F0380
1F0300
3F0700
FFFF00
FFFF00
ENDCHAR
STARTCHAR uni0401
ENCODING 1025
SWIDTH 587 0
DWIDTH 18 0
BBX 18 25 0 0
BITMAP
01E3C0
01E3C0
01E3C0
01C380
000000
1FFFC0
1FFFC0
07E1C0
07C1C0
07C1C0
07C1C0
07C000
0FC600
0F8C00
0FFC00
0FFC00
0F8C00
1F8C00
1F8000
1F0000
1F0380
1F0300
3F0700
FFFF00
FFFF00
ENDCHAR
STARTCHAR uni0402
ENCODING 1026
SWIDTH 741 0
DWIDTH 22 0
BBX 20 22 2 -2
BITMAP
3FFFE0
7FFFE0
71F1E0
71F1C0
71F1C0
E1F1C0
03F000
03F000
03FF80
03FFE0
03E3E0
07E1F0
07E1F0
07C1F0
07C1F0
07C1F0
07C3E0
0FC3E0
3F87C0
7F87C0
001F00
003E00
ENDCHAR
STARTCHAR uni0403
ENCODING 1027
SWIDTH 549 0
DWIDTH 16 0
BBX 18 26 0 0
BITMAP
000780
000F80
001F80
003E00
007000
000000
1FFFC0
1FFFC0
07E1C0
07C1C0
07C1C0
07C180
07C000
0FC000
0F8000
0F8000
0F8000
0F8000
1F8000
1F0000
1F0000
1F0000
1F0000
3F0000
FFC000
FFC000
ENDCHAR
STARTCHAR uni0404
ENCODING 1028
SWIDTH 605 0
DWIDTH 18 0
BBX 18 21 1 -1
BITMAP
00FF00
03FFC0
0FC1C0
1F81C0
3F01C0
3E01C0
7E0000
7C0C00
7C1C00
FFF800
FFF800
FC1800
FC1800
FC0000
7C0300
7C0700
7E0700
3E0700
1F8F00
0FFE00
004000
ENDCHAR
STARTCHAR uni0405
ENCODING 1029
SWIDTH 503 0
DWIDTH 15 0
BBX 15 21 1 -1
BITMAP
07F8
0FFE
1E1E
3E1E
3E1E
3E0E
3F00
3F80
3FC0
1FE0
1FF0
0FF8
03F8
01FC
E0FC
E0FC
E0F8
E0F8
F1F0
FFC0
0600
ENDCHAR
STARTCHAR uni0406
ENCODING 1030
SWIDTH 384 0
DWIDTH 12 0
BBX 13 20 0 0
BITMAP
1FF8
1FF8
07E0
07C0
07C0
07C0
07C0
0FC0
0F80
0F80
0F80
0F80
1F80
1F00
1F00
1F00
1F00
3F00
FFC0
FFC0
ENDCHAR
STARTCHAR uni0407
ENCODING 1031
SWIDTH 384 0
DWIDTH 12 0
BBX 14 25 0 0
BITMAP
0F3C
0F3C
0F3C
0638
0000
1FF8
1FF8
07E0
07C0
07C0
07C0
07C0
0FC0
0F80
0F80
0F80
0F80
1F80
1F00
1F00
1F00
1F00
3F00
FFC0
FFC0
ENDCHAR
STARTCHAR uni0408
ENCODING 1032
SWIDTH 410 0
DWIDTH 12 0
BBX 16 22 -2 -2
BITMAP
03FF
03FF
007C
00FC
00FC
00F8
00F8
00F8
00F8
01F8
01F0
01F0
01F0
01F0
01E0
01E0
03E0
23C0
7B80
FF80
7E00
1800
ENDCHAR
STARTCHAR uni0409
ENCODING 1033
SWIDTH 946 0
DWIDTH 28 0
BBX 28 21 0 -1
BITMAP
01FFFE00
01FFFE00
0071F000
0031F000
0061F000
0061F000
0063F000
0063F000
00C3EC00
00C3FFC0
00C3E3E0
0187E3F0
0187E1F0
0187C1F0
0307C1F0
0307C3F0
FE07C3E0
FC0FC7E0
FC3FFF80
F83FFE00
20000000
ENDCHAR
STARTCHAR uni040A
ENCODING 1034
SWIDTH 982 0
DWIDTH 29 0
BBX 29 20 0 0
BITMAP
1FFBFF00
1FFBFF00
07E0FC00
07C0F800
07C0F800
07C0F800
07C1F800
0FC1F800
0F81F600
0FFFFFE0
0FFFF1F0
0F81F0F8
1F83F0F8
1F03E0F8
1F03E0F8
1F03E1F8
1F03E1F0
3F07E3F0
FFDFFFC0
FFDFFF00
ENDCHAR
STARTCHAR uni040B
ENCODING 1035
SWIDTH 784 0
DWIDTH 24 0
BBX 21 20 2 0
BITMAP
3FFFE0
7FFFE0
71F1E0
71F1C0
71F1C0
E1F1C0
03F000
03F000
03FFC0
03FFE0
03E3F0
07E1F0
07E1F0
07C1F0
07C3F0
07C3F0
07C3E0
0FC3E0
3FEFF8
7FEFF0
ENDCHAR
STARTCHAR uni040C
ENCODING 1036
SWIDTH 709 0
DWIDTH 21 0
BBX 22 26 0 0
BITMAP
0000E0
0001F0
0003E0
0007C0
000E00
000000
1FF838
1FF87C
07C0FC
07C1FC
07C1F8
0FC300
0FC300
0F8600
0F8E00
0FFC00
0FFE00
1F9F00
1F0F80
1F0F80
1F0F80
1F0FC0
3F07C0
3F07C0
FF87F0
FF83F0
ENDCHAR
STARTCHAR uni040D
ENCODING 1037
SWIDTH 769 0
DWIDTH 23 0
BBX 25 26 0 0
BITMAP
00E00000
00F80000
00FC0000
003E0000
000E0000
00000000
1FF9FF80
1FF9FF80
07C07C00
07C07C00
07C0FC00
07C1FC00
07C3F800
0F87F800
0F86F800
0F8CF800
0F9DF800
0FB9F000
1FF1F000
1FE1F000
1FC1F000
1F81F000
1F03F000
3F03E000
FFCFF800
FFDFF800
ENDCHAR
STARTCHAR uni040E
ENCODING 1038
SWIDTH 607 0
DWIDTH 18 0
BBX 20 28 1 -2
BITMAP
01C180
01E300
01E700
01FE00
00FC00
000000
7FE3F0
7FE3F0
3F00C0
1F8180
1F8180
1F8300
0F8300
0F8600
0FC600
07CC00
07D800
07D800
07F000
03F000
03E000
03E000
01C000
018000
798000
FF0000
7E0000
7C0000
ENDCHAR
STARTCHAR uni040F
ENCODING 1039
SWIDTH 739 0
DWIDTH 22 0
BBX 24 26 0 -6
BITMAP
1FFBFF
1FFBFE
07E0F8
07C1F8
07C1F8
07C1F0
07C1F0
0FC1F0
0F83F0
0F83F0
0F83E0
0F83E0
1F83E0
1F83E0
1F07E0
1F07C0
1F07C0
3F07C0
FFFFF0
FFFFF0
00F000
00E000
00E000
00E000
00E000
00C000
ENDCHAR
STARTCHAR uni0410
ENCODING 1040
SWIDTH 693 0
DWIDTH 21 0
BBX 21 20 -1 0
BITMAP
000F00
001F00
001F00
003F00
003F00
007F00
006F80
00CF80
00CF80
018F80
018F80
030F80
0307C0
07FFC0
07FFC0
0C07C0
0C07C0
1807C0
FE1FF8
FE1FF8
ENDCHAR
STARTCHAR uni0411
ENCODING 1041
SWIDTH 639 0
DWIDTH 19 0
BBX 19 20 0 0
BITMAP
1FFFE0
1FFFC0
07E1C0
07C1C0
07C1C0
07C1C0
07C000
0FC000
0FF800
0FFF00
0F8F80
0F8FC0
1F87C0
1F87C0
1F07C0
1F07C0
1F0F80
3F1F80
FFFE00
FFF800
ENDCHAR
STARTCHAR uni0412
ENCODING 1042
SWIDTH 639 0
DWIDTH 19 0
BBX 19 20 0 0
BITMAP
1FF800
1FFF80
07EFC0
07C7E0
07C3E0
07C3E0
07C7E0
0FC7C0
0F8F80
0FFC00
0FFF00
0F8780
1F87C0
1F87C0
1F07C0
1F07C0
1F07C0
3F1F80
FFFF00
FFFC00
ENDCHAR
STARTCHAR uni0413
ENCODING 1043
SWIDTH 549 0
DWIDTH 16 0
BBX 18 20 0 0
BITMAP
1FFFC0
1FFFC0
07E1C0
07C1C0
07C1C0
07C180
07C000
0FC000
0F8000
0F8000
0F8000
0F8000
1F8000
1F0000
1F0000
1F0000
1F0000
3F0000
FFC000
FFC000
ENDCHAR
STARTCHAR uni0414
ENCODING 1044
SWIDTH 710 0
DWIDTH 21 0
BBX 24 26 -1 -6
BITMAP
00FFFF
00FFFF
0038F8
0018F8
0030F8
0031F8
0031F8
0031F0
0061F0
0061F0
0061F0
00C3F0
00C3E0
01C3E0
0183E0
0303E0
0707E0
0E07E0
7FFFF8
7FFFF8
700038
700038
700070
700070
600070
E00070
ENDCHAR
STARTCHAR uni0415
ENCODING 1045
SWIDTH 587 0
DWIDTH 18 0
BBX 18 20 0 0
BITMAP
1FFFC0
1FFFC0
07E1C0
07C1C0
07C1C0
07C1C0
07C000
0FC600
0F8C00
0FFC00
0FFC00
0F8C00
1F8C00
1F8000
1F0000
1F0380
1F0300
3F0700
FFFF00
FFFF00
ENDCHAR
STARTCHAR uni0416
ENCODING 1046
SWIDTH 1028 0
DWIDTH 31 0
BBX 32 20 0 0
BITMAP
0707FE0E
0F87FE1F
1F81F03F
0FC1F07F
0FC1F07E
00C1F0C0
00C3F0C0
0063F180
0063E380
003FFF00
01FFFF80
07E7E7C0
07C7E3E0
0F87C3E0
0F87C3E0
1F87C3F0
1F07C3F0
3F0FC3F0
FE3FF3FC
FC3FF1FC
ENDCHAR
STARTCHAR uni0417
ENCODING 1047
SWIDTH 536 0
DWIDTH 16 0
BBX 15 21 1 -1
BITMAP
0FF0
1FFC
1C3E
1C3E
181E
381E
003E
003C
0078
07E0
07F0
00F8
007C
007C
E07C
F07C
F07C
F0FC
73F8
7FE0
0E00
ENDCHAR
STARTCHAR uni0418
ENCODING 1048
SWIDTH 769 0
DWIDTH 23 0
BBX 25 20 0 0
BITMAP
1FF9FF80
1FF9FF80
07C07C00
07C07C00
07C0FC00
07C1FC00
07C3F800
0F87F800
0F86F800
0F8CF800
0F9DF800
0FB9F000
1FF1F000
1FE1F000
1FC1F000
1F81F000
1F03F000
3F03E000
FFCFF800
FFDFF800
ENDCHAR
STARTCHAR uni0419
ENCODING 1049
SWIDTH 769 0
DWIDTH 23 0
BBX 25 26 0 0
BITMAP
003C3000
003C3000
003CE000
003FC000
000F8000
00000000
1FF9FF80
1FF9FF80
07C07C00
07C07C00
07C0FC00
07C1FC00
07C3F800
0F87F800
0F86F800
0F8CF800
0F9DF800
0FB9F000
1FF1F000
1FE1F000
1FC1F000
1F81F000
1F03F000
3F03E000
FFCFF800
FFDFF800
ENDCHAR
STARTCHAR uni041A
ENCODING 1050
SWIDTH 709 0
DWIDTH 21 0
BBX 22 20 0 0
BITMAP
1FF838
1FF87C
07C0FC
07C1FC
07C1F8
0FC300
0FC300
0F8600
0F8E00
0FFC00
0FFE00
1F9F00
1F0F80
1F0F80
1F0F80
1F0FC0
3F07C0
3F07C0
FF87F0
FF83F0
ENDCHAR
STARTCHAR uni041B
ENCODING 1051
SWIDTH 713 0
DWIDTH 21 0
BBX 23 21 0 -1
BITMAP
01FFFE
01FFFE
0071F0
0031F0
0061F0
0061F0
0063F0
0063F0
00C3E0
00C3E0
00C3E0
0187E0
0187E0
0187C0
0307C0
0307C0
FE07C0
FC0FC0
FC3FF0
F83FF0
200000
ENDCHAR
STARTCHAR uni041C
ENCODING 1052
SWIDTH 899 0
DWIDTH 27 0
BBX 29 20 -1 0
BITMAP
07F003F8
07F807F8
01F807E0
01F80FC0
01F80FC0
01F81FC0
03FC37C0
03FC3FC0
037C6FC0
027C6F80
067CCF80
067CCF80
067F8F80
043F0F80
043F1F80
0C3E1F80
0C3E1F00
0C3C1F00
7F1C7FC0
FF18FFC0
ENDCHAR
STARTCHAR uni041D
ENCODING 1053
SWIDTH 749 0
DWIDTH 22 0
BBX 24 20 0 0
BITMAP
1FFBFF
1FFBFF
07E0FC
07C0F8
07C0F8
07C0F8
07C1F8
0FC1F8
0F81F0
0FFFF0
0FFFF0
0F81F0
1F83F0
1F83E0
1F03E0
1F03E0
1F03E0
3F07E0
FFDFF8
FFDFF8
ENDCHAR
STARTCHAR uni041E
ENCODING 1054
SWIDTH 672 0
DWIDTH 20 0
BBX 19 21 1 -1
BITMAP
00FE00
03FF80
0F87C0
1F03C0
1F03E0
3E03E0
7E03E0
7C03E0
7C03E0
FC03E0
FC03E0
FC03E0
FC07E0
FC07C0
FC07C0
7C0F80
7C0F80
7C1F00
3E7E00
0FF800
01C000
ENDCHAR
STARTCHAR uni041F
ENCODING 1055
SWIDTH 737 0
DWIDTH 22 0
BBX 24 20 0 0
BITMAP
1FFFFF
1FFFFF
07E0F8
07C0F8
07C1F8
07C1F8
07C1F0
0FC1F0
0F81F0
0F81F0
0F83F0
0F83E0
1F83E0
1F03E0
1F03E0
1F07E0
1F07E0
3F07C0
FFDFF0
FFDFF0
ENDCHAR
STARTCHAR uni0420
ENCODING 1056
SWIDTH 607 0
DWIDTH 18 0
BBX 19 20 0 0
BITMAP
1FF000
1FFF80
07EFC0
07C7E0
07C3E0
07C3E0
07C3E0
0FC3E0
0F87C0
0F87C0
0F9F80
0FFE00
1FE000
1F8000
1F0000
1F0000
1F0000
3F0000
FFC000
FFC000
ENDCHAR
STARTCHAR uni0421
ENCODING 1057
SWIDTH 605 0
DWIDTH 18 0
BBX 18 21 1 -1
BITMAP
00FF00
03FFC0
0FC1C0
1F81C0
3F01C0
3E01C0
7E0000
7C0000
7C0000
FC0000
FC0000
FC0000
FC0000
FC0000
7C0300
7C0700
7E0700
3E0700
1F8F00
0FFE00
004000
ENDCHAR
STARTCHAR uni0422
ENCODING 1058
SWIDTH 623 0
DWIDTH 19 0
BBX 19 20 2 0
BITMAP
7FFFE0
7FFFC0
71F1C0
71F1C0
E3F1C0
E3F1C0
03E000
03E000
03E000
03E000
07E000
07E000
07C000
07C000
07C000
0FC000
0FC000
0F8000
7FF000
7FF000
ENDCHAR
STARTCHAR uni0423
ENCODING 1059
SWIDTH 607 0
DWIDTH 18 0
BBX 20 22 1 -2
BITMAP
7FE3F0
7FE3F0
3F00C0
1F8180
1F8180
1F8300
0F8300
0F8600
0FC600
07CC00
07D800
07D800
07F000
03F000
03E000
03E000
01C000
018000
798000
FF0000
7E0000
7C0000
ENDCHAR
STARTCHAR uni0424
ENCODING 1060
SWIDTH 791 0
DWIDTH 24 0
BBX 23 20 1 0
BITMAP
007FC0
00FFC0
003F00
003F00
07FFF0
1FBEF8
3E3E7C
7C7E3E
7C7E3E
FC7C3E
F87C3E
F87C7E
FC7C7C
7CFCFC
7CF9F8
3FFFE0
0FFF80
00F800
07FE00
07FE00
ENDCHAR
STARTCHAR uni0425
ENCODING 1061
SWIDTH 644 0
DWIDTH 19 0
BBX 21 20 0 0
BITMAP
1FF9F8
1FF1F8
07C0E0
07E1C0
07E180
03F300
03F600
03FC00
01FC00
01F800
00F800
00FC00
01FC00
037E00
067E00
0C3E00
1C3F00
383F00
FCFFC0
FCFFC0
ENDCHAR
STARTCHAR uni0426
ENCODING 1062
SWIDTH 707 0
DWIDTH 21 0
BBX 24 26 -1 -6
BITMAP
0FFBFF
1FFBFF
03E0F8
07E0F8
07E0F8
07C1F8
07C1F0
07C1F0
0FC1F0
0FC1F0
0F83F0
0F83F0
0F83E0
0F83E0
1F83E0
1F07E0
1F07E0
1F07C0
FFFFFC
FFFFF8
000038
000038
000038
000038
000030
000030
ENDCHAR
STARTCHAR uni0427
ENCODING 1063
SWIDTH 696 0
DWIDTH 21 0
BBX 20 20 3 0
BITMAP
7FBFF0
FFBFE0
3E0F80
7E1F80
7E1F80
7C1F00
7C1F00
7C1F00
7C1F00
7E3F00
7FFE00
3FFE00
003E00
003E00
007E00
007E00
007C00
007C00
03FF00
03FF00
ENDCHAR
STARTCHAR uni0428
ENCODING 1064
SWIDTH 1044 0
DWIDTH 31 0
BBX 33 20 0 0
BITMAP
1FFBFEFF80
1FFFFFFF80
07E1F87C00
07C1F07C00
07C1F07C00
07C1F07C00
07C3F0FC00
0FC3F0F800
0F83E0F800
0F83E0F800
0F83E0F800
0F83E1F800
1F87E1F800
1F87C1F000
1F07C1F000
1F07C1F000
1F07C3F000
3F0FC3F000
FFFFFFFC00
FFFFFFF800
ENDCHAR
STARTCHAR uni0429
ENCODING 1065
SWIDTH 1046 0
DWIDTH 31 0
BBX 33 26 0 -6
BITMAP
1FFBFEFF80
1FFFFFFF80
07E1F87C00
07C1F07C00
07C1F07C00
07C1F07C00
07C3F0FC00
0FC3F0F800
0F83E0F800
0F83E0F800
0F83E0F800
0F83E1F800
1F87E1F800
1F87C1F000
1F07C1F000
1F07C1F000
1F07C3F000
3F0FC3F000
FFFFFFFE00
FFFFFFFE00
0000001C00
0000001C00
0000001C00
0000001C00
0000001C00
0000001800
ENDCHAR
STARTCHAR uni042A
ENCODING 1066
SWIDTH 746 0
DWIDTH 22 0
BBX 20 20 2 0
BITMAP
3FFE00
7FFE00
71F000
71F000
71F000
E1F000
03F000
03F000
03EC00
03FFC0
03E3E0
07E3F0
07E1F0
07C1F0
07C1F0
07C3F0
07C3E0
0FC7E0
3FFF80
3FFE00
ENDCHAR
STARTCHAR uni042B
ENCODING 1067
SWIDTH 962 0
DWIDTH 29 0
BBX 31 20 0 0
BITMAP
1FFC07FE
1FF807FC
07E009F0
07C003F0
07C003F0
07C003E0
07C003E0
0FC003E0
0FB807E0
0FFF07E0
0F8F87C0
0F87C7C0
1F87C7C0
1F87C7C0
1F07CFC0
1F07CF80
1F0F8F80
3F1F8F80
FFFE7FE0
FFF87FE0
ENDCHAR
STARTCHAR uni042C
ENCODING 1068
SWIDTH 617 0
DWIDTH 19 0
BBX 18 20 0 0
BITMAP
1FFC00
1FF800
07E000
07C000
07C000
07C000
07C000
0FC000
0FB800
0FFF00
0F8F80
0F87C0
1F87C0
1F87C0
1F07C0
1F07C0
1F0F80
3F1F80
FFFE00
FFF800
ENDCHAR
STARTCHAR uni042D
ENCODING 1069
SWIDTH 631 0
DWIDTH 19 0
BBX 18 21 1 -1
BITMAP
07F800
1FFE00
1C1F00
1C0F80
1C0F80
180FC0
0007C0
0607C0
0607C0
07FFC0
07FFC0
0E0FC0
0C0FC0
000F80
601F80
601F00
E03F00
E07E00
F1F800
7FF000
0E0000
ENDCHAR
STARTCHAR uni042E
ENCODING 1070
SWIDTH 1002 0
DWIDTH 30 0
BBX 30 21 0 -1
BITMAP
1FF81FC0
1FF87FF0
07E0F878
07C1F078
07C3E07C
07C3E07C
07C7C07C
0FC7C07C
0F8FC07C
0FFFC07C
0FFF807C
0F8F807C
1F8F80FC
1F8F80F8
1F0F80F8
1F0F81F0
1F0781F0
3F07C3E0
FFC3C7C0
FFC1FF00
00003000
ENDCHAR
STARTCHAR uni042F
ENCODING 1071
SWIDTH 686 0
DWIDTH 21 0
BBX 23 20 -1 0
BITMAP
0003FE
00FFFE
01F9F8
03E1F0
07E1F0
07C1F0
07C1F0
03E3F0
03E3F0
01FFE0
003FE0
01F3E0
03E7E0
07C7E0
0FC7C0
0F87C0
1F87C0
1F07C0
7F3FF0
FE3FF0
ENDCHAR
STARTCHAR uni0430
ENCODING 1072
SWIDTH 588 0
DWIDTH 18 0
BBX 17 15 1 0
BITMAP
00F980
03FF00
071F00
0E1F00
1E3F00
3C3E00
3C3E00
7C3E00
7C3E00
7C7C00
FC7C00
FCFC80
7FFF80
7F7F00
7E3E00
ENDCHAR
STARTCHAR uni0431
ENCODING 1073
SWIDTH 555 0
DWIDTH 17 0
BBX 19 23 1 0
BITMAP
000060
0001C0
007FC0
03FFC0
07FF80
0FFF80
0FFC00
1E0000
180000
30F800
33FC00
7F3E00
7E1F00
7C1F00
7C1F00
7C3F00
FC3E00
FC3E00
FC3E00
787C00
7C7800
7CF000
1FC000
ENDCHAR
STARTCHAR uni0432
ENCODING 1074
SWIDTH 533 0
DWIDTH 16 0
BBX 15 15 2 0
BITMAP
03F8
0FFC
1E3C
3E3E
7C3C
7C3C
F8F0
FFC0
F8F0
F878
F078
F078
F8F8
F9F0
7FE0
ENDCHAR
STARTCHAR uni0433
ENCODING 1075
SWIDTH 437 0
DWIDTH 13 0
BBX 13 15 1 0
BITMAP
07E0
0FF0
1DF8
30F8
20F8
00F0
03E0
0F80
3E00
7800
F810
F830
FCE0
FFC0
7F00
ENDCHAR
STARTCHAR uni0434
ENCODING 1076
SWIDTH 558 0
DWIDTH 17 0
BBX 16 22 1 0
BITMAP
0070
03FC
07FE
043E
001F
001F
000F
000F
03FF
0FCF
1F1F
3E1F
3E1F
7C1F
7C1F
7C3E
F83E
F83C
7878
78F8
7DF0
3FC0
ENDCHAR
STARTCHAR uni0435
ENCODING 1077
SWIDTH 496 0
DWIDTH 15 0
BBX 14 15 1 0
BITMAP
03F8
07FC
1F3C
1E3C
3C3C
7C7C
7CF8
7DE0
FF80
FC00
FC08
7E38
7FF0
3FE0
1FC0
ENDCHAR
STARTCHAR uni0436
ENCODING 1078
SWIDTH 932 0
DWIDTH 28 0
BBX 28 15 1 0
BITMAP
0787C1E0
0FC787E0
1FC78EF0
33C78EF0
21C79C70
61CF9C00
01FFFC00
03FFFC00
03CF3800
039F7800
639E7840
E71E7CC0
F71E7F80
FE1E3F80
7C3E3E00
ENDCHAR
STARTCHAR uni0437
ENCODING 1079
SWIDTH 457 0
DWIDTH 14 0
BBX 13 15 1 0
BITMAP
07E0
0FF0
1DF8
30F8
0078
00F0
01E0
1F00
03E0
01F0
E1F0
E1F0
F1F0
F3E0
7FC0
ENDCHAR
STARTCHAR uni0438
ENCODING 1080
SWIDTH 598 0
DWIDTH 18 0
BBX 17 15 2 0
BITMAP
0E0700
7E3F00
FE3E00
3E3E00
7C3E00
7C3E00
7C7C00
7C7C00
F87C00
F87C00
F8FC00
F8F980
FFFF00
FEFE00
FC7C00
ENDCHAR
STARTCHAR uni0439
ENCODING 1081
SWIDTH 598 0
DWIDTH 18 0
BBX 17 22 2 0
BITMAP
070600
078C00
079800
07F800
03F000
000000
000000
0E0700
7E3F00
FE3E00
3E3E00
7C3E00
7C3E00
7C7C00
7C7C00
F87C00
F87C00
F8FC00
F8F980
FFFF00
FEFE00
FC7C00
ENDCHAR
STARTCHAR uni043A
ENCODING 1082
SWIDTH 550 0
DWIDTH 17 0
BBX 16 15 1 0
BITMAP
0706
3F0F
7F1F
1F3F
3F7E
3EF8
3FC0
3E00
3FE0
7DF0
7CF8
7CF8
7C7C
7C7E
F83F
ENDCHAR
STARTCHAR uni043B
ENCODING 1083
SWIDTH 594 0
DWIDTH 18 0
BBX 18 15 0 0
BITMAP
003F80
007FC0
00FF80
00CF80
018F80
019F80
031F00
031F00
031F00
061F00
3E3E00
7E3E40
FC3FC0
FC3F80
781F00
ENDCHAR
STARTCHAR uni043C
ENCODING 1084
SWIDTH 844 0
DWIDTH 25 0
BBX 26 15 0 0
BITMAP
007C1F80
00FC1F00
00FC3F00
00FC7F00
01FC7F00
01FCDF00
017CDF00
033DBE00
033F3E00
023F3E00
3E3E3E00
7E3E3EC0
FC3C3F80
FC383F00
78383E00
ENDCHAR
STARTCHAR uni043D
ENCODING 1085
SWIDTH 602 0
DWIDTH 18 0
BBX 18 15 1 0
BITMAP
070380
3F1F80
7F1F00
1F1F00
3F1F00
3E1F00
3FFF00
3FFE00
3E3E00
7C3E00
7C7E00
7C7CC0
7C7F80
7C7F00
F87E00
ENDCHAR
STARTCHAR uni043E
ENCODING 1086
SWIDTH 551 0
DWIDTH 17 0
BBX 16 15 1 0
BITMAP
03F8
0FFC
1F3E
3E3E
3E3E
7C3F
7C3F
7C3E
FC3E
F83E
F87C
787C
7C78
3CF0
1FC0
ENDCHAR
STARTCHAR uni043F
ENCODING 1087
SWIDTH 603 0
DWIDTH 18 0
BBX 18 15 1 0
BITMAP
071E00
3F3F00
7FFF00
1FDF00
3F1F00
3E1F00
3E1F00
3E3E00
3E3E00
7C3E00
7C3E00
7C7CC0
7C7F80
7C7F00
F87E00
ENDCHAR
STARTCHAR uni0440
ENCODING 1088
SWIDTH 568 0
DWIDTH 17 0
BBX 19 22 -2 -7
BITMAP
00E3C0
07EFE0
0FFFE0
03F7E0
07C3E0
07C3E0
07C3E0
07C3E0
07C3C0
0FC3C0
0F8780
0F8780
0F8F00
0FFC00
1FF800
1F0000
1F0000
1F0000
1F0000
3E0000
7F8000
FF8000
ENDCHAR
STARTCHAR uni0441
ENCODING 1089
SWIDTH 493 0
DWIDTH 15 0
BBX 14 15 1 0
BITMAP
03F0
07FC
1F7C
1E3C
3C3C
7C00
7C00
7C00
FC00
FC00
FC08
7E38
7FF0
3FE0
1FC0
ENDCHAR
STARTCHAR uni0442
ENCODING 1090
SWIDTH 880 0
DWIDTH 26 0
BBX 26 15 1 0
BITMAP
071E0F00
3F7F3F00
7FFF7F80
1FFFDF80
3F1F1F00
3E1F1F00
3E3F1F00
3E3E1F00
3E3E3E00
7C3E3E00
7C3E3E00
7C7E3EC0
7C7C7F80
7C7C7F00
F87C3E00
ENDCHAR
STARTCHAR uni0443
ENCODING 1091
SWIDTH 558 0
DWIDTH 17 0
BBX 18 22 -1 -7
BITMAP
0781C0
0F83C0
1FC3C0
3FC7C0
07C7C0
07C780
07C700
07CF00
07CE00
03CE00
03EC00
03F800
03F000
03F000
01E000
01C000
018000
618000
F30000
FE0000
F80000
700000
ENDCHAR
STARTCHAR uni0444
ENCODING 1092
SWIDTH 780 0
DWIDTH 23 0
BBX 23 28 1 -7
BITMAP
000380
003F00
003F00
001F00
001F00
001F00
01FE78
07FFFC
0FFFFE
1E3E7E
3E3C3E
3C3C3E
7C3C3E
7C7C3C
787C7C
F8787C
F87878
FC78F0
FCFBF0
7FFFE0
7EFF80
00F000
01F000
01F000
01F000
01E000
07F800
07F800
ENDCHAR
STARTCHAR uni0445
ENCODING 1093
SWIDTH 602 0
DWIDTH 18 0
BBX 19 16 0 -1
BITMAP
0781E0
0FC3E0
1FC7E0
1FEDE0
03E800
01F800
01F000
01F000
00F800
00F800
01F800
737CC0
FE7F80
7C7F00
7C3E00
000C00
ENDCHAR
STARTCHAR uni0446
ENCODING 1094
SWIDTH 598 0
DWIDTH 18 0
BBX 17 22 2 -7
BITMAP
0E0700
7E3F00
FE3E00
3E3E00
7C3E00
7C3E00
7C7C00
7C7C00
F87C00
F87C00
F8FC00
F8F980
FFFF00
FEFE00
FC7E00
000400
000C00
001C00
001C00
003C00
003800
007000
ENDCHAR
STARTCHAR uni0447
ENCODING 1095
SWIDTH 573 0
DWIDTH 17 0
BBX 16 15 2 0
BITMAP
0E0E
7E3E
FC7E
7C7C
7C7C
7C7C
7C7C
7FF8
7FF8
7CF8
00F8
01FB
01FE
01FC
00F8
ENDCHAR
STARTCHAR uni0448
ENCODING 1096
SWIDTH 855 0
DWIDTH 26 0
BBX 24 15 2 0
BITMAP
0E0607
7E3E3E
FE3E3E
3E3E3E
7C7C3E
7C7C7C
7C7C7C
7C7C7C
F8787C
F8F878
F8F8F8
F9F9F9
FFFFFF
FEFEFE
FCFC7C
ENDCHAR
STARTCHAR uni0449
ENCODING 1097
SWIDTH 855 0
DWIDTH 26 0
BBX 24 22 2 -7
BITMAP
0E0607
7E3E3E
FE3E3E
3E3E3E
7C7C3E
7C7C7C
7C7C7C
7C7C7C
F8787C
F8F878
F8F8F8
F9F9F9
FFFFFF
FEFEFE
FCFC7E
000004
00001C
00001C
00003C
00003C
000078
000070
ENDCHAR
STARTCHAR uni044A
ENCODING 1098
SWIDTH 604 0
DWIDTH 18 0
BBX 16 16 2 0
BITMAP
0010
3F98
7FF8
FFF0
FFC0
C3C0
87BE
8FFF
1F9F
1F1F
1F1F
1E1F
1E1E
1F3E
1F7C
0FF0
ENDCHAR
STARTCHAR uni044B
ENCODING 1099
SWIDTH 814 0
DWIDTH 24 0
BBX 23 15 2 0
BITMAP
0E000C
FE007C
FE007C
7C00FC
7C00F8
7CF0F8
7FF8F8
FCFCF8
F87DF0
F879F0
F8F9F0
F8F9F6
F8F1FC
79E1F8
7FC1F0
ENDCHAR
STARTCHAR uni044C
ENCODING 1100
SWIDTH 516 0
DWIDTH 15 0
BBX 14 15 2 0
BITMAP
0E00
FE00
FE00
7C00
7C00
7CF0
7FF8
FCFC
F87C
F878
F8F8
F8F8
F8F0
79E0
7FC0
ENDCHAR
STARTCHAR uni044D
ENCODING 1101
SWIDTH 475 0
DWIDTH 14 0
BBX 13 15 1 0
BITMAP
07E0
0FF0
1FF8
20F8
00F8
0078
0078
0FF8
10F8
00F8
E0F0
F0F0
F1E0
F7C0
7F00
ENDCHAR
STARTCHAR uni044E
ENCODING 1102
SWIDTH 824 0
DWIDTH 25 0
BBX 24 15 1 0
BITMAP
0701F8
3F07FC
7F1F3E
1F1E1E
3F3E1F
3E7C1F
3E7C1F
3FFC3F
3E7C3E
7C7C3E
7C7C3E
7C7C7C
7C7C78
7C3CF0
F81FE0
ENDCHAR
STARTCHAR uni044F
ENCODING 1103
SWIDTH 584 0
DWIDTH 18 0
BBX 18 15 0 0
BITMAP
00FCC0
07FF80
0F8F80
0F0F80
1F0F80
0F1F00
0F9F00
07FF00
03DF00
0F3E00
1F3E00
3F3E40
3E3F80
7E3F80
FC3E00
ENDCHAR
STARTCHAR uni0450
ENCODING 1104
SWIDTH 496 0
DWIDTH 15 0
BBX 14 24 1 0
BITMAP
0300
0780
07C0
03C0
03C0
01E0
00E0
0020
0000
03F8
07FC
1F3C
1E3C
3C3C
7C7C
7CF8
7DE0
FF80
FC00
FC08
7E38
7FF0
3FE0
1FC0
ENDCHAR
STARTCHAR uni0451
ENCODING 1105
SWIDTH 496 0
DWIDTH 15 0
BBX 16 22 1 0
BITMAP
078F
078F
0F9F
078F
0204
0000
0000
03F8
07FC
1F3C
1E3C
3C3C
7C7C
7CF8
7DE0
FF80
FC00
FC08
7E38
7FF0
3FE0
1FC0
ENDCHAR
STARTCHAR uni0452
ENCODING 1106
SWIDTH 536 0
DWIDTH 16 0
BBX 15 28 1 -7
BITMAP
0380
3F80
3F80
0F80
3FF8
7FF8
1F00
1F3C
1E7E
3FFE
3F7E
3E3E
3E3E
7E3E
7C3E
7C3E
7C3C
7C7C
F87C
F878
F8F8
00F8
00F0
01E0
01E0
03C0
0780
0E00
ENDCHAR
STARTCHAR uni0453
ENCODING 1107
SWIDTH 437 0
DWIDTH 13 0
BBX 13 24 1 0
BITMAP
0030
0078
0078
00F8
00F0
00E0
01C0
0080
0000
07E0
0FF0
1DF8
30F8
20F8
00F0
03E0
0F80
3E00
7800
F810
F830
FCE0
FFC0
7F00
ENDCHAR
STARTCHAR uni0454
ENCODING 1108
SWIDTH 493 0
DWIDTH 15 0
BBX 14 15 1 0
BITMAP
03F0
07FC
1F7C
1E3C
3C3C
7C00
7C00
7FE0
FC00
FC00
FC08
7E38
7FF0
3FE0
1FC0
ENDCHAR
STARTCHAR uni0455
ENCODING 1109
SWIDTH 445 0
DWIDTH 13 0
BBX 13 15 1 0
BITMAP
07E0
1EF0
3CF0
3C78
3E20
3F00
3F80
1FC0
1FE0
0FE0
43F0
F3E0
F1E0
FBC0
7F80
ENDCHAR
STARTCHAR uni0456
ENCODING 1110
SWIDTH 325 0
DWIDTH 10 0
BBX 9 23 2 0
BITMAP
0200
0F00
1F80
1F00
0F00
0400
0000
0000
0E00
7E00
FE00
3E00
7E00
7C00
7C00
7C00
7C00
F800
F800
F900
FF00
FE00
FC00
ENDCHAR
STARTCHAR uni0457
ENCODING 1111
SWIDTH 325 0
DWIDTH 10 0
BBX 12 22 2 0
BITMAP
78E0
7DF0
79F0
79E0
2080
0000
0000
0E00
7E00
FE00
3E00
7E00
7C00
7C00
7C00
7C00
F800
F800
F900
FF00
FE00
FC00
ENDCHAR
STARTCHAR uni0458
ENCODING 1112
SWIDTH 304 0
DWIDTH 9 0
BBX 13 30 -2 -7
BITMAP
0020
00F0
01F8
01F0
00F0
0040
0000
0000
00E0
07E0
0FE0
03E0
07E0
07C0
07C0
07C0
07C0
0FC0
0F80
0F80
0F80
0F80
0F00
1F00
1F00
1E00
1E00
3C00
7800
E000
ENDCHAR
STARTCHAR uni0459
ENCODING 1113
SWIDTH 799 0
DWIDTH 24 0
BBX 24 15 0 0
BITMAP
003FC0
007F80
00FF80
00CF80
019F80
019F3E
031FFF
031F9F
031F1F
061E1F
3E3E1F
7E3E1E
FC1E3C
FC1F78
780FF0
ENDCHAR
STARTCHAR uni045A
ENCODING 1114
SWIDTH 808 0
DWIDTH 24 0
BBX 23 15 1 0
BITMAP
070380
3F1F80
7F1F00
1F1F00
3F1F00
3E1F7C
3FFFFE
3FFF3E
3E3E3E
7C3E3E
7C3E3E
7C3C3C
7C3E7C
7C3EF8
F81FE0
ENDCHAR
STARTCHAR uni045B
ENCODING 1115
SWIDTH 593 0
DWIDTH 18 0
BBX 17 21 1 0
BITMAP
038000
3F8000
3F8000
0F8000
3FF800
7FF800
1F0000
1F3E00
1E7F00
3EFF00
3FBF00
3E3F00
3E3E00
7E3E00
7C3E00
7C7E00
7C7C00
7C7C80
F87F80
F87F00
F87E00
ENDCHAR
STARTCHAR uni045C
ENCODING 1116
SWIDTH 550 0
DWIDTH 17 0
BBX 16 24 1 0
BITMAP
000C
001E
003E
003C
003C
0078
0070
0040
0000
0706
3F0F
7F1F
1F3F
3F7E
3EF8
3FC0
3E00
3FE0
7DF0
7CF8
7CF8
7C7C
7C7E
F83F
ENDCHAR
STARTCHAR uni045D
ENCODING 1117
SWIDTH 598 0
DWIDTH 18 0
BBX 17 24 2 0
BITMAP
060000
0F0000
0F8000
0F8000
078000
038000
01C000
008000
000000
0E0700
7E3F00
FE3E00
3E3E00
7C3E00
7C3E00
7C7C00
7C7C00
F87C00
F87C00
F8FC00
F8F980
FFFF00
FEFE00
FC7C00
ENDCHAR
STARTCHAR uni045E
ENCODING 1118
SWIDTH 558 0
DWIDTH 17 0
BBX 18 29 -1 -7
BITMAP
01E180
01E300
01E700
01FE00
00FC00
000000
000000
0781C0
0F83C0
1FC3C0
3FC7C0
07C7C0
07C780
07C700
07CF00
07CE00
03CE00
03EC00
03F800
03F000
03F000
01E000
01C000
018000
618000
F30000
FE0000
F80000
700000
ENDCHAR
STARTCHAR uni045F
ENCODING 1119
SWIDTH 598 0
DWIDTH 18 0
BBX 17 22 2 -7
BITMAP
0E0700
7E3F00
FE3E00
3E3E00
7C3E00
7C3E00
7C7C00
7C7C00
F87C00
F87C00
F8FC00
F8F980
FFFF00
FEFE00
FC7C00
020000
060000
0E0000
0E0000
1E0000
1C0000
380000
ENDCHAR
STARTCHAR uni0462
ENCODING 1122
SWIDTH 762 0
DWIDTH 23 0
BBX 20 21 2 0
BITMAP
07FE00
07FC00
01F000
01F000
7FFFE0
FFFFE0
E3E0E0
E3E0C0
E3E1C0
03E000
07FFC0
07C7E0
07C1F0
07C1F0
07C1F0
0FC1F0
0FC1F0
0F83F0
0F87E0
7FFFC0
7FFF00
ENDCHAR
STARTCHAR uni0463
ENCODING 1123
SWIDTH 812 0
DWIDTH 24 0
BBX 23 15 1 0
BITMAP
071E00
3F3F00
7FFF00
1FDF00
3F1F00
3E1F7C
3E1FFE
3E3F3E
3E3E1E
7C3E3E
7C3E3E
7C3E3E
7C3E7C
7C3E78
F81FE0
ENDCHAR
STARTCHAR uni0472
ENCODING 1138
SWIDTH 672 0
DWIDTH 20 0
BBX 19 21 1 -1
BITMAP
00FE00
03FF80
0F87C0
1F03C0
1F03E0
3E03E0
7E03E0
7C03E0
7C03E0
FFFFE0
FFFFE0
FC03E0
FC07E0
FC07C0
FC07C0
7C0F80
7C0F80
7C1F00
3E7E00
0FF800
01C000
ENDCHAR
STARTCHAR uni0473
ENCODING 1139
SWIDTH 551 0
DWIDTH 17 0
BBX 16 15 1 0
BITMAP
03F8
0FFC
1F3E
3E3E
3E3E
7C3F
7FFF
7FFE
FC3E
F83E
F87C
787C
7C78
3CF0
1FC0
ENDCHAR
STARTCHAR uni0474
ENCODING 1140
SWIDTH 628 0
DWIDTH 19 0
BBX 20 20 2 0
BITMAP
FFC0E0
FFC1F0
7E03F0
3E07F0
3E0660
3F0600
3F0C00
3F0C00
3F1800
1F1800
1F3000
1F3000
1FE000
1FE000
1FC000
0FC000
0F8000
0F8000
0F0000
0F0000
ENDCHAR
STARTCHAR uni0475
ENCODING 1141
SWIDTH 595 0
DWIDTH 18 0
BBX 18 15 1 0
BITMAP
1E0380
3E07C0
7F0FC0
FF0FC0
1F1980
1F3800
1F3000
1F6000
1F6000
0F4000
0FC000
0F8000
0F8000
0F0000
0F0000
ENDCHAR
STARTCHAR uni0490
ENCODING 1168
SWIDTH 551 0
DWIDTH 17 0
BBX 19 23 0 0
BITMAP
0000E0
0000E0
0000E0
1FFFC0
1FFFC0
07E000
07C000
07C000
07C000
07C000
0FC000
0F8000
0F8000
0F8000
0F8000
1F8000
1F0000
1F0000
1F0000
1F0000
3F0000
FFC000
FFC000
ENDCHAR
STARTCHAR uni0491
ENCODING 1169
SWIDTH 394 0
DWIDTH 12 0
BBX 14 20 0 -1
BITMAP
000C
000C
000C
001C
00FC
03F8
07C0
07C0
0FC0
0F80
0F80
0F80
0F80
0F80
0F80
1F00
DF00
7F00
7E00
1800
ENDCHAR
STARTCHAR uni0492
ENCODING 1170
SWIDTH 550 0
DWIDTH 17 0
BBX 18 20 0 0
BITMAP
1FFFC0
1FFFC0
07E1C0
07C1C0
07C1C0
07C180
07C000
0FC000
0F8000
3FF800
3FF800
0F8000
1F8000
1F8000
1F0000
1F0000
1F0000
3F0000
FFC000
FFC000
ENDCHAR
STARTCHAR uni0493
ENCODING 1171
SWIDTH 437 0
DWIDTH 13 0
BBX 13 15 1 0
BITMAP
07E0
0FF0
1DF8
30F8
20F8
00F0
7FE0
1FF8
3E18
7800
F810
F830
FCE0
FFC0
7F00
ENDCHAR
STARTCHAR uni0496
ENCODING 1174
SWIDTH 1055 0
DWIDTH 32 0
BBX 32 26 0 -6
BITMAP
0707FE0E
0F87FE1F
1F81F03F
0FC1F07F
0FC1F07E
00C1F0C0
00C3F0C0
0063F180
0063E380
003FFF00
01FFFF80
07E7E7C0
07C7E3E0
0F87C3E0
0F87C3E0
1F87C3F0
1F07C3F0
3F0FC3F0
FE3FF3FC
FC3FF1FC
0000001C
0000001C
0000001C
00000018
00000018
00000018
ENDCHAR
STARTCHAR uni0497
ENCODING 1175
SWIDTH 932 0
DWIDTH 28 0
BBX 28 22 1 -7
BITMAP
0787C1E0
0FC787E0
1FC78EF0
33C78EF0
21C79C70
61CF9C00
01FFFC00
03FFFC00
03CF3800
039F7800
639E7840
E71E7CC0
F71E7FC0
FE1E3F80
7C3E3F80
00000100
00000300
00000700
00000700
00000F00
00000E00
00001C00
ENDCHAR
STARTCHAR uni0498
ENCODING 1176
SWIDTH 536 0
DWIDTH 16 0
BBX 15 27 1 -7
BITMAP
0FF0
1FFC
1C3E
1C3E
181E
381E
003E
003C
0078
07E0
07F0
00F8
007C
007C
E07C
F07C
F07C
F0FC
73F8
7FE0
0F00
0300
0380
0380
0780
3F00
3C00
ENDCHAR
STARTCHAR uni0499
ENCODING 1177
SWIDTH 457 0
DWIDTH 14 0
BBX 13 22 1 -7
BITMAP
07E0
0FF0
1DF8
30F8
0078
00F0
01E0
1F00
03E0
01F0
E1F0
E1F0
F1F0
F3E0
7FC0
0400
0600
0700
0700
0F00
7E00
7800
ENDCHAR
STARTCHAR uni049A
ENCODING 1178
SWIDTH 736 0
DWIDTH 22 0
BBX 22 26 0 -6
BITMAP
1FF838
1FF87C
07C0FC
07C1FC
07C1F8
0FC300
0FC300
0F8600
0F8E00
0FFC00
0FFE00
1F9F00
1F0F80
1F0F80
1F0F80
1F0FC0
3F07C0
3F07C0
FF87F8
FF83F8
000070
000070
000070
000070
000070
000060
ENDCHAR
STARTCHAR uni049B
ENCODING 1179
SWIDTH 555 0
DWIDTH 17 0
BBX 17 22 1 -7
BITMAP
070600
3F0F00
7F1F00
1F3F00
3F7E00
3EF800
3FC000
3E0000
3FE000
7DF000
7CF800
7CF980
7C7D00
7C7F00
F83E00
000200
000E00
000E00
001E00
001C00
007C00
003000
ENDCHAR
STARTCHAR uni04A0
ENCODING 1184
SWIDTH 836 0
DWIDTH 25 0
BBX 24 20 2 0
BITMAP
7FFE0E
7FFC1F
71F03F
71F07F
E3F07C
E3F0C0
03E0C0
03E180
03E380
03FF00
07FF80
07C7C0
07C3E0
07C3E0
07C3E0
0FC3F0
0FC3F0
0F81F0
3FE1FC
7FE1FC
ENDCHAR
STARTCHAR uni04A1
ENCODING 1185
SWIDTH 707 0
DWIDTH 21 0
BBX 20 15 2 0
BITMAP
3FF060
FFF0F0
F3F1F0
E3E3F0
E3E7E0
E3EF00
C3FC00
47E000
07DE00
07DF00
07CF80
07CF80
0FCF80
0F87C0
0F87E0
ENDCHAR
STARTCHAR uni04A2
ENCODING 1186
SWIDTH 750 0
DWIDTH 23 0
BBX 24 26 0 -6
BITMAP
1FFBFF
1FFBFF
07E0FC
07C0F8
07C0F8
07C0F8
07C1F8
0FC1F8
0F81F0
0FFFF0
0FFFF0
0F81F0
1F83F0
1F83E0
1F03E0
1F03E0
1F03E0
3F07E0
FFDFF8
FFDFF8
000038
000038
000038
000030
000030
000030
ENDCHAR
STARTCHAR uni04A3
ENCODING 1187
SWIDTH 602 0
DWIDTH 18 0
BBX 18 22 1 -7
BITMAP
070380
3F1F80
7F1F00
1F1F00
3F1F00
3E1F00
3FFF00
3FFE00
3E3E00
7C3E00
7C7E00
7C7CC0
7C7F80
7C7F80
F87F00
000300
000600
000E00
000E00
000E00
001E00
003800
ENDCHAR
STARTCHAR uni04AA
ENCODING 1194
SWIDTH 605 0
DWIDTH 18 0
BBX 18 27 1 -7
BITMAP
00FF00
03FFC0
0FC1C0
1F81C0
3F01C0
3E01C0
7E0000
7C0000
7C0000
FC0000
FC0000
FC0000
FC0000
FC0000
7C0300
7C0700
7E0700
3E0700
1F8F00
0FFE00
00E000
006000
007000
007000
007000
07E000
078000
ENDCHAR
STARTCHAR uni04AB
ENCODING 1195
SWIDTH 493 0
DWIDTH 15 0
BBX 14 22 1 -7
BITMAP
03F0
07FC
1F7C
1E3C
3C3C
7C00
7C00
7C00
FC00
FC00
FC08
7E38
7FF0
3FE0
1FC0
0300
0180
0180
0380
0380
3F00
1C00
ENDCHAR
STARTCHAR uni04AE
ENCODING 1198
SWIDTH 583 0
DWIDTH 17 0
BBX 19 20 2 0
BITMAP
FFC7E0
FFCFC0
3E0380
3F0300
3F0600
1F0C00
1F8C00
1F9800
0FB000
0FB000
0FE000
0FC000
07C000
07C000
0FC000
0F8000
0F8000
0F8000
7FE000
7FE000
ENDCHAR
STARTCHAR uni04AF
ENCODING 1199
SWIDTH 540 0
DWIDTH 16 0
BBX 16 22 1 -7
BITMAP
1E0E
3E1F
7F1F
FF1F
1F1E
1F0E
1F0C
1F1C
1F18
0F30
0FE0
0FE0
0FC0
0F80
0F80
0F00
0F00
1F00
1F00
1F00
7FC0
7F80
ENDCHAR
STARTCHAR uni04B0
ENCODING 1200
SWIDTH 583 0
DWIDTH 17 0
BBX 19 20 2 0
BITMAP
FFC7E0
FFCFC0
3E0380
3F0300
3F0600
1F0C00
1F8C00
1F9800
0FB000
0FB000
0FE000
7FFC00
7FFC00
0FC000
0FC000
0F8000
0F8000
0F8000
7FE000
7FE000
ENDCHAR
STARTCHAR uni04B1
ENCODING 1201
SWIDTH 540 0
DWIDTH 16 0
BBX 16 22 1 -7
BITMAP
1E0E
3E1F
7F1F
FF1F
1F1E
1F0E
1F0C
1F1C
1F18
0F30
0FE0
0FE0
0FC0
7FF8
FFF8
0F00
0F00
1F00
1F00
1F00
7FC0
7F80
ENDCHAR
STARTCHAR uni04B2
ENCODING 1202
SWIDTH 668 0
DWIDTH 20 0
BBX 21 26 0 -6
BITMAP
1FF9F8
1FF1F8
07C0E0
07E1C0
07E180
03F300
03F600
03FC00
01FC00
01F800
00F800
00FC00
01FC00
037E00
067E00
0C3E00
1C3F00
383F00
FCFFE0
FCFFC0
0001C0
0001C0
0001C0
0001C0
0001C0
000180
ENDCHAR
STARTCHAR uni04B3
ENCODING 1203
SWIDTH 602 0
DWIDTH 18 0
BBX 19 22 0 -7
BITMAP
0781E0
0FC3E0
1FC7E0
1FEDE0
03E800
01F800
01F000
01F000
00F800
00F800
01F800
737CC0
FE7F80
7C7F80
7C3F00
000B00
000600
000E00
000E00
000E00
001C00
003800
ENDCHAR
STARTCHAR uni04B6
ENCODING 1206
SWIDTH 697 0
DWIDTH 21 0
BBX 20 26 3 -6
BITMAP
7FBFF0
FFBFE0
3E0F80
7E1F80
7E1F80
7C1F00
7C1F00
7C1F00
7C1F00
7E3F00
7FFE00
3FFE00
003E00
003E00
007E00
007E00
007C00
007C00
03FF00
03FF00
000700
000700
000700
000600
000600
000600
ENDCHAR
STARTCHAR uni04B7
ENCODING 1207
SWIDTH 573 0
DWIDTH 17 0
BBX 16 22 2 -7
BITMAP
0E0E
7E3E
FC7E
7C7C
7C7C
7C7C
7C7C
7FF8
7FF8
7CF8
00F8
01FB
01FE
01FE
00FC
000C
0018
0038
0038
0038
0070
00E0
ENDCHAR
STARTCHAR uni04BA
ENCODING 1210
SWIDTH 696 0
DWIDTH 21 0
BBX 20 20 0 0
BITMAP
1FF800
1FF800
07E000
07C000
07C000
07C000
07C000
0FC000
0FFF80
0FFFC0
0F87C0
0F87E0
1F87E0
1F87C0
1F07C0
1F07C0
1F07C0
3F0FC0
FFFFF0
FFBFE0
ENDCHAR
STARTCHAR uni04BB
ENCODING 1211
SWIDTH 593 0
DWIDTH 18 0
BBX 17 21 1 0
BITMAP
038000
3F8000
3F8000
0F8000
1F0000
1F0000
1F1E00
1F7F00
1EFF00
3FFF00
3F1F00
3E3F00
3E3E00
7E3E00
7C3E00
7C7E00
7C7C00
7C7C80
F87F80
F87F00
F87E00
ENDCHAR
STARTCHAR uni04C0
ENCODING 1216
SWIDTH 384 0
DWIDTH 12 0
BBX 13 20 0 0
BITMAP
1FF8
1FF8
07E0
07C0
07C0
07C0
07C0
0FC0
0F80
0F80
0F80
0F80
1F80
1F00
1F00
1F00
1F00
3F00
FFC0
FFC0
ENDCHAR
STARTCHAR uni04C1
ENCODING 1217
SWIDTH 1028 0
DWIDTH 31 0
BBX 32 26 0 0
BITMAP
00038300
0003C600
0003CE00
0003FC00
0001F800
00000000
0707FE0E
0F87FE1F
1F81F03F
0FC1F07F
0FC1F07E
00C1F0C0
00C3F0C0
0063F180
0063E380
003FFF00
01FFFF80
07E7E7C0
07C7E3E0
0F87C3E0
0F87C3E0
1F87C3F0
1F07C3F0
3F0FC3F0
FE3FF3FC
FC3FF1FC
ENDCHAR
STARTCHAR uni04C2
ENCODING 1218
SWIDTH 932 0
DWIDTH 28 0
BBX 28 22 1 0
BITMAP
000E1800
001E1800
001E7000
000FE000
0007C000
00000000
00000000
0787C1E0
0FC787E0
1FC78EF0
33C78EF0
21C79C70
61CF9C00
01FFFC00
03FFFC00
03CF3800
039F7800
639E7840
E71E7CC0
F71E7F80
FE1E3F80
7C3E3E00
ENDCHAR
STARTCHAR uni04CF
ENCODING 1231
SWIDTH 318 0
DWIDTH 10 0
BBX 13 21 0 0
BITMAP
0FF8
03E0
07C0
07C0
07C0
07C0
07C0
0F80
0F80
0F80
0F80
0F80
1F00
1F00
1F00
1F00
3F00
3E00
3E00
FF80
FF80
ENDCHAR
STARTCHAR uni04D0
ENCODING 1232
SWIDTH 693 0
DWIDTH 21 0
BBX 21 26 -1 0
BITMAP
003820
007860
0078C0
003F80
001F00
000000
000F00
001F00
001F00
003F00
003F00
007F00
006F80
00CF80
00CF80
018F80
018F80
030F80
0307C0
07FFC0
07FFC0
0C07C0
0C07C0
1807C0
FE1FF8
FE1FF8
ENDCHAR
STARTCHAR uni04D1
ENCODING 1233
SWIDTH 588 0
DWIDTH 18 0
BBX 17 22 1 0
BITMAP
01E180
01E300
01E700
01FE00
00FC00
000000
000000
00F980
03FF00
071F00
0E1F00
1E3F00
3C3E00
3C3E00
7C3E00
7C3E00
7C7C00
FC7C00
FCFC80
7FFF80
7F7F00
7E3E00
ENDCHAR
STARTCHAR uni04D4
ENCODING 1236
SWIDTH 905 0
DWIDTH 27 0
BBX 29 20 -1 0
BITMAP
001FFFF8
003FFFF8
0007F878
0006F870
000DF870
001DF870
0019F000
0031F180
0071F180
0063FF80
00C3FF80
0183E300
01FFE300
03FFE000
0603E000
0607E0E0
0C07E0E0
1807C0E0
FE1FFFE0
FE3FFFC0
ENDCHAR
STARTCHAR uni04D5
ENCODING 1237
SWIDTH 792 0
DWIDTH 24 0
BBX 23 15 1 0
BITMAP
00F9F8
03FFFE
071F9E
0E1F1E
1E1E1E
3C3E3E
3C3E7C
7C3CF0
7C7FC0
7C7E00
FC7E04
FCFF1C
7FBFF8
7F3FF0
7E0FE0
ENDCHAR
STARTCHAR uni04D6
ENCODING 1238
SWIDTH 587 0
DWIDTH 18 0
BBX 18 26 0 0
BITMAP
00E0C0
01F180
00E380
00FF00
007C00
000000
1FFFC0
1FFFC0
07E1C0
07C1C0
07C1C0
07C1C0
07C000
0FC600
0F8C00
0FFC00
0FFC00
0F8C00
1F8C00
1F8000
1F0000
1F0380
1F0300
3F0700
FFFF00
FFFF00
ENDCHAR
STARTCHAR uni04D7
ENCODING 1239
SWIDTH 496 0
DWIDTH 15 0
BBX 15 22 1 0
BITMAP
0386
0786
079C
03F8
01F0
0000
0000
03F8
07FC
1F3C
1E3C
3C3C
7C7C
7CF8
7DE0
FF80
FC00
FC08
7E38
7FF0
3FE0
1FC0
ENDCHAR
STARTCHAR uni04D8
ENCODING 1240
SWIDTH 638 0
DWIDTH 19 0
BBX 18 21 1 -1
BITMAP
03FC00
1FFF00
1C1F80
1C0F80
1C07C0
3807C0
0007C0
0007C0
0007C0
7FFFC0
FFFFC0
FC0FC0
FC0FC0
F80F80
F80F80
F81F00
781F00
7C3E00
3E7C00
1FF000
010000
ENDCHAR
STARTCHAR uni04D9
ENCODING 1241
SWIDTH 504 0
DWIDTH 15 0
BBX 14 15 1 0
BITMAP
03E0
0FF8
1FF8
38FC
607C
007C
03FC
0F3C
3C7C
7878
F878
F0F0
F1F0
7BE0
7F80
ENDCHAR
STARTCHAR uni04E2
ENCODING 1250
SWIDTH 769 0
DWIDTH 23 0
BBX 25 24 0 0
BITMAP
003FF000
003FF000
00000000
00000000
1FF9FF80
1FF9FF80
07C07C00
07C07C00
07C0FC00
07C1FC00
07C3F800
0F87F800
0F86F800
0F8CF800
0F9DF800
0FB9F000
1FF1F000
1FE1F000
1FC1F000
1F81F000
1F03F000
3F03E000
FFCFF800
FFDFF800
ENDCHAR
STARTCHAR uni04E3
ENCODING 1251
SWIDTH 598 0
DWIDTH 18 0
BBX 17 20 2 0
BITMAP
07FE00
07FC00
000000
000000
000000
0E0700
7E3F00
FE3E00
3E3E00
7C3E00
7C3E00
7C7C00
7C7C00
F87C00
F87C00
F8FC00
F8F980
FFFF00
FEFE00
FC7C00
ENDCHAR
STARTCHAR uni04E6
ENCODING 1254
SWIDTH 672 0
DWIDTH 20 0
BBX 19 26 1 -1
BITMAP
01C380
03C7C0
03C780
018380
000000
00FE00
03FF80
0F87C0
1F03C0
1F03E0
3E03E0
7E03E0
7C03E0
7C03E0
FC03E0
FC03E0
FC03E0
FC07E0
FC07C0
FC07C0
7C0F80
7C0F80
7C1F00
3E7E00
0FF800
01C000
ENDCHAR
STARTCHAR uni04E7
ENCODING 1255
SWIDTH 551 0
DWIDTH 17 0
BBX 16 22 1 0
BITMAP
078F
078F
0F9F
078F
0204
0000
0000
03F8
0FFC
1F3E
3E3E
3E3E
7C3F
7C3F
7C3E
FC3E
F83E
F87C
787C
7C78
3CF0
1FC0
ENDCHAR
STARTCHAR uni04E8
ENCODING 1256
SWIDTH 672 0
DWIDTH 20 0
BBX 19 21 1 -1
BITMAP
00FE00
03FF80
0F87C0
1F03C0
1F03E0
3E03E0
7E03E0
7C03E0
7C03E0
FFFFE0
FFFFE0
FC03E0
FC07E0
FC07C0
FC07C0
7C0F80
7C0F80
7C1F00
3E7E00
0FF800
01C000
ENDCHAR
STARTCHAR uni04E9
ENCODING 1257
SWIDTH 551 0
DWIDTH 17 0
BBX 16 15 1 0
BITMAP
03F8
0FFC
1F3E
3E3E
3E3E
7C3F
7FFF
7FFE
FC3E
F83E
F87C
787C
7C78
3CF0
1FC0
ENDCHAR
STARTCHAR uni04EE
ENCODING 1262
SWIDTH 607 0
DWIDTH 18 0
BBX 20 26 1 -2
BITMAP
01FFC0
01FF80
000000
000000
7FE3F0
7FE3F0
3F00C0
1F8180
1F8180
1F8300
0F8300
0F8600
0FC600
07CC00
07D800
07D800
07F000
03F000
03E000
03E000
01C000
018000
798000
FF0000
7E0000
7C0000
ENDCHAR
STARTCHAR uni04EF
ENCODING 1263
SWIDTH 558 0
DWIDTH 17 0
BBX 18 27 -1 -7
BITMAP
00FF80
00FF80
000000
000000
000000
0781C0
0F83C0
1FC3C0
3FC7C0
07C7C0
07C780
07C700
07CF00
07CE00
03CE00
03EC00
03F800
03F000
03F000
01E000
01C000
018000
618000
F30000
FE0000
F80000
700000
ENDCHAR
STARTCHAR uni04F2
ENCODING 1266
SWIDTH 607 0
DWIDTH 18 0
BBX 20 29 1 -2
BITMAP
001860
003CF0
0038E0
0071C0
00E380
00C300
000000
7FE3F0
7FE3F0
3F00C0
1F8180
1F8180
1F8300
0F8300
0F8600
0FC600
07CC00
07D800
07D800
07F000
03F000
03E000
03E000
01C000
018000
798000
FF0000
7E0000
7C0000
ENDCHAR
STARTCHAR uni04F3
ENCODING 1267
SWIDTH 558 0
DWIDTH 17 0
BBX 20 31 -1 -7
BITMAP
001C60
001CF0
003DE0
0039E0
0073C0
006380
00C700
000000
000000
0781C0
0F83C0
1FC3C0
3FC7C0
07C7C0
07C780
07C700
07CF00
07CE00
03CE00
03EC00
03F800
03F000
03F000
01E000
01C000
018000
618000
F30000
FE0000
F80000
700000
ENDCHAR
STARTCHAR a.sups
ENCODING 7491
SWIDTH 390 0
DWIDTH 12 0
BBX 11 10 3 12
BITMAP
0760
1FC0
31C0
71C0
63C0
E380
E380
F7A0
FBC0
7380
ENDCHAR
STARTCHAR b.sups
ENCODING 7495
SWIDTH 368 0
DWIDTH 11 0
BBX 10 14 3 12
BITMAP
0C00
7C00
3800
3800
3980
3FC0
7BC0
71C0
71C0
71C0
7380
F300
7600
7C00
ENDCHAR
STARTCHAR d.sups
ENCODING 7496
SWIDTH 391 0
DWIDTH 12 0
BBX 11 14 3 12
BITMAP
0060
03E0
00E0
00E0
07C0
1FC0
31C0
71C0
63C0
E380
E380
F7A0
FBC0
7380
ENDCHAR
STARTCHAR e.sups
ENCODING 7497
SWIDTH 327 0
DWIDTH 10 0
BBX 9 10 3 12
BITMAP
0F00
3B80
7380
7380
E700
FC00
E080
F100
7E00
3C00
ENDCHAR
STARTCHAR g.sups
ENCODING 7501
SWIDTH 376 0
DWIDTH 11 0
BBX 12 14 2 8
BITMAP
0F30
1BF0
39C0
3980
3980
3B00
1E00
6000
7F80
7FC0
7FC0
C1C0
C180
FF00
ENDCHAR
STARTCHAR k.sups
ENCODING 7503
SWIDTH 371 0
DWIDTH 11 0
BBX 10 14 3 12
BITMAP
0C00
7C00
3800
3800
38C0
39C0
7BC0
7700
7800
7E00
F700
E700
E780
E3C0
ENDCHAR
STARTCHAR m.sups
ENCODING 7504
SWIDTH 584 0
DWIDTH 18 0
BBX 17 10 3 12
BITMAP
19C600
FFDF00
3DEF00
79CF00
71CE00
71CE00
738E00
739E80
E39F00
E39E00
ENDCHAR
STARTCHAR o.sups
ENCODING 7506
SWIDTH 365 0
DWIDTH 11 0
BBX 10 10 3 12
BITMAP
0F00
3B80
71C0
71C0
F1C0
E3C0
E380
E380
6700
3E00
ENDCHAR
STARTCHAR p.sups
ENCODING 7510
SWIDTH 378 0
DWIDTH 11 0
BBX 12 14 1 8
BITMAP
0670
3FF0
0E70
1E70
1C70
1C70
1C60
1CE0
3DC0
3F00
3800
3800
3800
FC00
ENDCHAR
STARTCHAR t.sups
ENCODING 7511
SWIDTH 236 0
DWIDTH 7 0
BBX 7 12 3 12
BITMAP
1C
18
7E
FE
38
78
70
70
70
74
F8
70
ENDCHAR
STARTCHAR u.sups
ENCODING 7512
SWIDTH 399 0
DWIDTH 12 0
BBX 11 10 3 12
BITMAP
1860
F9E0
39C0
79C0
71C0
73C0
7380
F3A0
FFE0
73C0
ENDCHAR
STARTCHAR v.sups
ENCODING 7515
SWIDTH 358 0
DWIDTH 11 0
BBX 10 10 3 12
BITMAP
31C0
79C0
B9C0
39C0
3980
3900
3B00
3E00
3C00
1800
ENDCHAR
STARTCHAR c.sups
ENCODING 7580
SWIDTH 325 0
DWIDTH 10 0
BBX 9 10 3 12
BITMAP
0F00
3B80
7380
7000
E000
E000
E080
F100
7E00
3C00
ENDCHAR
STARTCHAR f.sups
ENCODING 7584
SWIDTH 239 0
DWIDTH 7 0
BBX 14 18 -1 8
BITMAP
00F8
01DC
0180
0380
07E0
0FE0
0380
0780
0700
0700
0700
0700
0700
0700
0E00
0E00
EC00
7800
ENDCHAR
STARTCHAR z.sups
ENCODING 7611
SWIDTH 333 0
DWIDTH 10 0
BBX 11 10 2 12
BITMAP
1860
3E40
3F80
6F00
6200
0CC0
10C0
3CC0
5F80
CF00
ENDCHAR
STARTCHAR uni1E0C
ENCODING 7692
SWIDTH 685 0
DWIDTH 21 0
BBX 21 27 0 -7
BITMAP
1FF000
1FFF00
07EFC0
07C3E0
07C3F0
07C1F0
07C1F0
0FC1F8
0F81F8
0F81F8
0F81F8
0F81F8
1F81F0
1F83F0
1F03E0
1F07E0
1F0FC0
3F1F80
FFFE00
FFF000
000000
008000
01E000
03E000
03E000
03C000
018000
ENDCHAR
STARTCHAR uni1E0D
ENCODING 7693
SWIDTH 591 0
DWIDTH 18 0
BBX 18 28 1 -7
BITMAP
0003C0
003F80
003F80
000F80
000F80
000F80
00FF00
03FF00
071F00
0E1F00
1E3F00
3C3E00
3C3E00
7C3E00
7C3E00
7C7C00
FC7C00
FCFC80
7FFF80
7F7F00
7E3E00
000000
010000
078000
07C000
07C000
078000
020000
ENDCHAR
STARTCHAR uni1E0E
ENCODING 7694
SWIDTH 685 0
DWIDTH 21 0
BBX 21 26 0 -6
BITMAP
1FF000
1FFF00
07EFC0
07C3E0
07C3F0
07C1F0
07C1F0
0FC1F8
0F81F8
0F81F8
0F81F8
0F81F8
1F81F0
1F83F0
1F03E0
1F07E0
1F0FC0
3F1F80
FFFE00
FFF000
000000
000000
000000
000000
0FF800
1FF800
ENDCHAR
STARTCHAR uni1E0F
ENCODING 7695
SWIDTH 591 0
DWIDTH 18 0
BBX 18 27 1 -6
BITMAP
0003C0
003F80
003F80
000F80
000F80
000F80
00FF00
03FF00
071F00
0E1F00
1E3F00
3C3E00
3C3E00
7C3E00
7C3E00
7C7C00
FC7C00
FCFC80
7FFF80
7F7F00
7E3E00
000000
000000
000000
000000
1FF000
3FE000
ENDCHAR
STARTCHAR uni1E20
ENCODING 7712
SWIDTH 662 0
DWIDTH 20 0
BBX 19 25 1 -1
BITMAP
00FFC0
01FF80
000000
000000
00FF00
03FFC0
0FC1C0
1F81C0
1F01C0
3E01C0
7E0000
7E0000
7C0000
FC0000
FC7FE0
FC7FE0
FC0F80
FC1F80
FC1F80
7C1F00
7E1F00
3E1F00
1F9F00
07FE00
00C000
ENDCHAR
STARTCHAR uni1E21
ENCODING 7713
SWIDTH 550 0
DWIDTH 17 0
BBX 20 27 -1 -7
BITMAP
01FF80
01FF00
000000
000000
0000E0
01F9F0
03BDE0
071FE0
0F1F00
0F1E00
1F1E00
1F1E00
0F1C00
0F1C00
07F800
0D8000
1C0000
3FF000
3FFE00
3FFF00
1FFF00
307F00
700F00
F00E00
F81E00
7FF800
3FC000
ENDCHAR
STARTCHAR uni1E24
ENCODING 7716
SWIDTH 749 0
DWIDTH 22 0
BBX 24 27 0 -7
BITMAP
1FFBFF
1FFBFF
07E0FC
07C0F8
07C0F8
07C0F8
07C1F8
0FC1F8
0F81F0
0FFFF0
0FFFF0
0F81F0
1F83F0
1F83E0
1F03E0
1F03E0
1F03E0
3F07E0
FFDFF8
FFDFF8
000000
004000
00E000
01F000
01F000
01E000
008000
ENDCHAR
STARTCHAR uni1E25
ENCODING 7717
SWIDTH 593 0
DWIDTH 18 0
BBX 17 28 1 -7
BITMAP
038000
3F8000
3F8000
0F8000
1F0000
1F0000
1F1E00
1F7F00
1EFF00
3FFF00
3F1F00
3E3F00
3E3E00
7E3E00
7C3E00
7C7E00
7C7C00
7C7C80
F87F80
F87F00
F87E00
000000
020000
078000
0F8000
0F8000
0F0000
020000
ENDCHAR
STARTCHAR uni1E2A
ENCODING 7722
SWIDTH 749 0
DWIDTH 22 0
BBX 24 27 0 -7
BITMAP
1FFBFF
1FFBFF
07E0FC
07C0F8
07C0F8
07C0F8
07C1F8
0FC1F8
0F81F0
0FFFF0
0FFFF0
0F81F0
1F83F0
1F83E0
1F03E0
1F03E0
1F03E0
3F07E0
FFDFF8
FFDFF8
000000
000000
040600
060C00
07FC00
03F800
03F000
ENDCHAR
STARTCHAR uni1E2B
ENCODING 7723
SWIDTH 593 0
DWIDTH 18 0
BBX 17 28 1 -7
BITMAP
038000
3F8000
3F8000
0F8000
1F0000
1F0000
1F1E00
1F7F00
1EFF00
3FFF00
3F1F00
3E3F00
3E3E00
7E3E00
7C3E00
7C7E00
7C7C00
7C7C80
F87F80
F87F00
F87E00
000000
000000
203000
306000
3FE000
3FC000
1F8000
ENDCHAR
STARTCHAR uni1E36
ENCODING 7734
SWIDTH 564 0
DWIDTH 17 0
BBX 16 27 0 -7
BITMAP
1FFC
1FF8
07E0
07C0
07C0
07C0
07C0
0FC0
0F80
0F80
0F80
0F80
1F80
1F80
1F03
1F07
1F07
3F0E
FFFE
FFFE
0000
0100
03C0
07C0
07C0
0780
0300
ENDCHAR
STARTCHAR uni1E37
ENCODING 7735
SWIDTH 318 0
DWIDTH 10 0
BBX 10 28 1 -7
BITMAP
03C0
3F80
3F80
0F80
1F80
1F00
1F00
1F00
1F00
3F00
3E00
3E00
3E00
3E00
7C00
7C00
7C00
7D80
7F00
7F00
7C00
0000
2000
F000
F800
F800
F000
4000
ENDCHAR
STARTCHAR uni1E38
ENCODING 7736
SWIDTH 564 0
DWIDTH 17 0
BBX 16 31 0 -7
BITMAP
0FFC
0FFC
0000
0000
1FFC
1FF8
07E0
07C0
07C0
07C0
07C0
0FC0
0F80
0F80
0F80
0F80
1F80
1F80
1F03
1F07
1F07
3F0E
FFFE
FFFE
0000
0100
03C0
07C0
07C0
0780
0300
ENDCHAR
STARTCHAR uni1E39
ENCODING 7737
SWIDTH 318 0
DWIDTH 10 0
BBX 13 32 1 -7
BITMAP
1FF8
1FF0
0000
0000
03C0
3F80
3F80
0F80
1F80
1F00
1F00
1F00
1F00
3F00
3E00
3E00
3E00
3E00
7C00
7C00
7C00
7D80
7F00
7F00
7C00
0000
2000
F000
F800
F800
F000
4000
ENDCHAR
STARTCHAR uni1E3A
ENCODING 7738
SWIDTH 564 0
DWIDTH 17 0
BBX 16 26 0 -6
BITMAP
1FFC
1FF8
07E0
07C0
07C0
07C0
07C0
0FC0
0F80
0F80
0F80
0F80
1F80
1F80
1F03
1F07
1F07
3F0E
FFFE
FFFE
0000
0000
0000
0000
1FF0
3FE0
ENDCHAR
STARTCHAR uni1E3B
ENCODING 7739
SWIDTH 318 0
DWIDTH 10 0
BBX 12 26 -1 -5
BITMAP
00F0
0FE0
0FE0
03E0
07E0
07C0
07C0
07C0
07C0
0FC0
0F80
0F80
0F80
0F80
1F00
1F00
1F00
1F60
1FC0
1FC0
1F00
0000
0000
0000
FF80
FF80
ENDCHAR
STARTCHAR uni1E3E
ENCODING 7742
SWIDTH 899 0
DWIDTH 27 0
BBX 29 25 -1 0
BITMAP
00001E00
00003E00
00007E00
0000F800
0001C000
07F003F8
07F807F8
01F807E0
01F80FC0
01F80FC0
01F81FC0
03FC37C0
03FC3FC0
037C6FC0
027C6F80
067CCF80
067CCF80
067F8F80
043F0F80
043F1F80
0C3E1F80
0C3E1F00
0C3C1F00
7F1C7FC0
FF18FFC0
ENDCHAR
STARTCHAR uni1E3F
ENCODING 7743
SWIDTH 880 0
DWIDTH 26 0
BBX 26 24 1 0
BITMAP
0000C000
0001E000
0003E000
0003E000
0003C000
00078000
00070000
00040000
00000000
071E0F00
3F7F3F00
7FFF7F80
1FFFDF80
3F1F1F00
3E1F1F00
3E3F1F00
3E3E1F00
3E3E3E00
7C3E3E00
7C3E3E00
7C7E3EC0
7C7C7F80
7C7C7F00
F87C3E00
ENDCHAR
STARTCHAR uni1E42
ENCODING 7746
SWIDTH 899 0
DWIDTH 27 0
BBX 29 27 -1 -7
BITMAP
07F003F8
07F807F8
01F807E0
01F80FC0
01F80FC0
01F81FC0
03FC37C0
03FC3FC0
037C6FC0
027C6F80
067CCF80
067CCF80
067F8F80
043F0F80
043F1F80
0C3E1F80
0C3E1F00
0C3C1F00
7F1C7FC0
FF18FFC0
00000000
00100000
00780000
007C0000
007C0000
00780000
00300000
ENDCHAR
STARTCHAR uni1E43
ENCODING 7747
SWIDTH 880 0
DWIDTH 26 0
BBX 26 22 1 -7
BITMAP
071E0F00
3F7F3F00
7FFF7F80
1FFFDF80
3F1F1F00
3E1F1F00
3E3F1F00
3E3E1F00
3E3E3E00
7C3E3E00
7C3E3E00
7C7E3EC0
7C7C7F80
7C7C7F00
F87C3E00
00000000
00200000
00780000
00F80000
00F80000
00F80000
00200000
ENDCHAR
STARTCHAR uni1E44
ENCODING 7748
SWIDTH 690 0
DWIDTH 21 0
BBX 24 26 -1 0
BITMAP
000700
000F00
000F00
000F00
000600
000000
0FE0FF
0FE0FE
03F138
03F018
03F838
03F830
06FC30
06FC30
067E30
067E30
063F60
063F60
0C1FE0
0C1FE0
0C0FE0
0C0FC0
0C07C0
1807C0
7F83C0
FF03C0
ENDCHAR
STARTCHAR uni1E45
ENCODING 7749
SWIDTH 603 0
DWIDTH 18 0
BBX 18 23 1 0
BITMAP
001000
007800
00F800
00F800
00F800
002000
000000
000000
071E00
3F3F00
7FFF00
1FDF00
3F1F00
3E1F00
3E1F00
3E3E00
3E3E00
7C3E00
7C3E00
7C7CC0
7C7F80
7C7F00
F87E00
ENDCHAR
STARTCHAR uni1E46
ENCODING 7750
SWIDTH 690 0
DWIDTH 21 0
BBX 24 27 -1 -7
BITMAP
0FE0FF
0FE0FE
03F138
03F018
03F838
03F830
06FC30
06FC30
067E30
067E30
063F60
063F60
0C1FE0
0C1FE0
0C0FE0
0C0FC0
0C07C0
1807C0
7F83C0
FF03C0
000000
002000
00F000
00F800
00F800
00F000
004000
ENDCHAR
STARTCHAR uni1E47
ENCODING 7751
SWIDTH 603 0
DWIDTH 18 0
BBX 18 22 1 -7
BITMAP
071E00
3F3F00
7FFF00
1FDF00
3F1F00
3E1F00
3E1F00
3E3E00
3E3E00
7C3E00
7C3E00
7C7CC0
7C7F80
7C7F00
F87E00
000000
020000
078000
0F8000
0F8000
0F0000
020000
ENDCHAR
STARTCHAR uni1E48
ENCODING 7752
SWIDTH 690 0
DWIDTH 21 0
BBX 24 26 -1 -6
BITMAP
0FE0FF
0FE0FE
03F138
03F018
03F838
03F830
06FC30
06FC30
067E30
067E30
063F60
063F60
0C1FE0
0C1FE0
0C0FE0
0C0FC0
0C07C0
1807C0
7F83C0
FF03C0
000000
000000
000000
000000
07FC00
07FC00
ENDCHAR
STARTCHAR uni1E49
ENCODING 7753
SWIDTH 603 0
DWIDTH 18 0
BBX 18 21 1 -6
BITMAP
071E00
3F3F00
7FFF00
1FDF00
3F1F00
3E1F00
3E1F00
3E3E00
3E3E00
7C3E00
7C3E00
7C7CC0
7C7F80
7C7F00
F87E00
000000
000000
000000
001000
3FE000
3FE000
ENDCHAR
STARTCHAR uni1E5A
ENCODING 7770
SWIDTH 676 0
DWIDTH 20 0
BBX 20 27 0 -7
BITMAP
1FFE00
1FFFC0
07E7E0
07C3E0
07C3E0
07C3E0
07C3E0
0FC7C0
0F8F80
0FFE00
0FFE00
0F9F00
1F9F80
1F8F80
1F0F80
1F0F80
1F0FC0
3F0FC0
FFC7F0
FFC7F0
000000
004000
01E000
01E000
01E000
01E000
008000
ENDCHAR
STARTCHAR uni1E5B
ENCODING 7771
SWIDTH 481 0
DWIDTH 14 0
BBX 15 22 1 -7
BITMAP
073C
3F7E
7FFE
1EFC
3F80
3F00
3F00
3E00
3E00
7C00
7C00
7C00
7C00
7C00
F800
0000
2000
F000
F000
F000
F000
4000
ENDCHAR
STARTCHAR uni1E5C
ENCODING 7772
SWIDTH 676 0
DWIDTH 20 0
BBX 20 31 0 -7
BITMAP
00FFC0
01FF80
000000
000000
1FFE00
1FFFC0
07E7E0
07C3E0
07C3E0
07C3E0
07C3E0
0FC7C0
0F8F80
0FFE00
0FFE00
0F9F00
1F9F80
1F8F80
1F0F80
1F0F80
1F0FC0
3F0FC0
FFC7F0
FFC7F0
000000
004000
01E000
01E000
01E000
01E000
008000
ENDCHAR
STARTCHAR uni1E5D
ENCODING 7773
SWIDTH 481 0
DWIDTH 14 0
BBX 15 27 1 -7
BITMAP
03FE
07FC
0000
0000
0000
073C
3F7E
7FFE
1EFC
3F80
3F00
3F00
3E00
3E00
7C00
7C00
7C00
7C00
7C00
F800
0000
2000
F000
F000
F000
F000
4000
ENDCHAR
STARTCHAR uni1E5E
ENCODING 7774
SWIDTH 676 0
DWIDTH 20 0
BBX 20 26 0 -6
BITMAP
1FFE00
1FFFC0
07E7E0
07C3E0
07C3E0
07C3E0
07C3E0
0FC7C0
0F8F80
0FFE00
0FFE00
0F9F00
1F9F80
1F8F80
1F0F80
1F0F80
1F0FC0
3F0FC0
FFC7F0
FFC7F0
000000
000000
000000
000200
07FC00
07FC00
ENDCHAR
STARTCHAR uni1E5F
ENCODING 7775
SWIDTH 481 0
DWIDTH 14 0
BBX 18 21 -2 -6
BITMAP
00E780
07EFC0
0FFFC0
03DF80
07F000
07E000
07E000
07C000
07C000
0F8000
0F8000
0F8000
0F8000
0F8000
1F0000
000000
000000
000000
000000
7FC000
FFC000
ENDCHAR
STARTCHAR uni1E60
ENCODING 7776
SWIDTH 503 0
DWIDTH 15 0
BBX 15 27 1 -1
BITMAP
0070
00F0
00F0
00F0
0060
0000
07F8
0FFE
1E1E
3E1E
3E1E
3E0E
3F00
3F80
3FC0
1FE0
1FF0
0FF8
03F8
01FC
E0FC
E0FC
E0F8
E0F8
F1F0
FFC0
0600
ENDCHAR
STARTCHAR uni1E61
ENCODING 7777
SWIDTH 445 0
DWIDTH 13 0
BBX 13 23 1 0
BITMAP
0040
01E0
01F0
01F0
01E0
00C0
0000
0000
07E0
1EF0
3CF0
3C78
3E20
3F00
3F80
1FC0
1FE0
0FE0
43F0
F3E0
F1E0
FBC0
7F80
ENDCHAR
STARTCHAR uni1E62
ENCODING 7778
SWIDTH 503 0
DWIDTH 15 0
BBX 15 27 1 -7
BITMAP
07F8
0FFE
1E1E
3E1E
3E1E
3E0E
3F00
3F80
3FC0
1FE0
1FF0
0FF8
03F8
01FC
E0FC
E0FC
E0F8
E0F8
F1F0
FFC0
0600
0400
1E00
1F00
1F00
1E00
0800
ENDCHAR
STARTCHAR uni1E63
ENCODING 7779
SWIDTH 445 0
DWIDTH 13 0
BBX 13 22 1 -7
BITMAP
07E0
1EF0
3CF0
3C78
3E20
3F00
3F80
1FC0
1FE0
0FE0
43F0
F3E0
F1E0
FBC0
7F80
0000
0800
3C00
3C00
7C00
3C00
1000
ENDCHAR
STARTCHAR uni1E6C
ENCODING 7788
SWIDTH 623 0
DWIDTH 19 0
BBX 19 27 2 -7
BITMAP
7FFFE0
7FFFC0
71F1C0
71F1C0
E3F1C0
E3F1C0
03E000
03E000
03E000
03E000
07E000
07E000
07C000
07C000
07C000
0FC000
0FC000
0F8000
7FF000
7FF000
000000
040000
0F0000
1F0000
1F0000
1E0000
040000
ENDCHAR
STARTCHAR uni1E6D
ENCODING 7789
SWIDTH 352 0
DWIDTH 11 0
BBX 10 26 2 -7
BITMAP
0700
0F00
0F00
1E00
7FC0
FFC0
3E00
3E00
7C00
7C00
7C00
7C00
7C00
F800
F800
F900
FF00
FE00
FC00
0000
2000
F000
F000
F000
F000
4000
ENDCHAR
STARTCHAR uni1E6E
ENCODING 7790
SWIDTH 623 0
DWIDTH 19 0
BBX 19 26 2 -6
BITMAP
7FFFE0
7FFFC0
71F1C0
71F1C0
E3F1C0
E3F1C0
03E000
03E000
03E000
03E000
07E000
07E000
07C000
07C000
07C000
0FC000
0FC000
0F8000
7FF000
7FF000
000000
000000
000000
000000
7FC000
7FC000
ENDCHAR
STARTCHAR uni1E6F
ENCODING 7791
SWIDTH 352 0
DWIDTH 11 0
BBX 13 25 -1 -6
BITMAP
00E0
01E0
01E0
03C0
0FF8
1FF8
07C0
07C0
0F80
0F80
0F80
0F80
0F80
1F00
1F00
1F20
1FE0
1FC0
1F80
0000
0000
0000
0000
7FC0
FFC0
ENDCHAR
STARTCHAR Wgrave
ENCODING 7808
SWIDTH 895 0
DWIDTH 27 0
BBX 28 26 2 0
BITMAP
003C0000
003E0000
003F0000
000F8000
0001C000
00000000
FF9FF3F0
FF9FF7F0
7E0781C0
7E0F8180
3E0F8100
3E1F8300
3E1FC300
3E1FC600
3E37C600
3E27CC00
3E67CC00
3E47C800
3FC7D800
3FC7D000
1F87F000
1F87E000
1F03E000
1F03E000
1E03C000
1E03C000
ENDCHAR
STARTCHAR wgrave
ENCODING 7809
SWIDTH 822 0
DWIDTH 25 0
BBX 24 24 1 0
BITMAP
003000
007800
007800
007C00
003C00
001C00
000E00
000400
000000
1E000F
3F0F1F
7F0F1F
FF1F1F
1F1F8F
1F1F8E
1F3F8E
1F2F8C
1F6F98
0F4F98
0FCFB0
0F8FE0
0F87C0
0F0780
0F0780
ENDCHAR
STARTCHAR Wacute
ENCODING 7810
SWIDTH 895 0
DWIDTH 27 0
BBX 28 26 2 0
BITMAP
00003C00
00007C00
0000FC00
0001F000
00038000
00000000
FF9FF3F0
FF9FF7F0
7E0781C0
7E0F8180
3E0F8100
3E1F8300
3E1FC300
3E1FC600
3E37C600
3E27CC00
3E67CC00
3E47C800
3FC7D800
3FC7D000
1F87F000
1F87E000
1F03E000
1F03E000
1E03C000
1E03C000
ENDCHAR
STARTCHAR wacute
ENCODING 7811
SWIDTH 822 0
DWIDTH 25 0
BBX 24 24 1 0
BITMAP
000060
0000F0
0001F0
0001E0
0001E0
0003C0
000300
000200
000000
1E000F
3F0F1F
7F0F1F
FF1F1F
1F1F8F
1F1F8E
1F3F8E
1F2F8C
1F6F98
0F4F98
0FCFB0
0F8FE0
0F87C0
0F0780
0F0780
ENDCHAR
STARTCHAR Wdieresis
ENCODING 7812
SWIDTH 895 0
DWIDTH 27 0
BBX 28 25 2 0
BITMAP
003C7800
003C7800
003C7800
00187000
00000000
FF9FF3F0
FF9FF7F0
7E0781C0
7E0F8180
3E0F8100
3E1F8300
3E1FC300
3E1FC600
3E37C600
3E27CC00
3E67CC00
3E47C800
3FC7D800
3FC7D000
1F87F000
1F87E000
1F03E000
1F03E000
1E03C000
1E03C000
ENDCHAR
STARTCHAR wdieresis
ENCODING 7813
SWIDTH 822 0
DWIDTH 25 0
BBX 24 22 1 0
BITMAP
003870
007CF8
007CF8
0078F0
001020
000000
000000
1E000F
3F0F1F
7F0F1F
FF1F1F
1F1F8F
1F1F8E
1F3F8E
1F2F8C
1F6F98
0F4F98
0FCFB0
0F8FE0
0F87C0
0F0780
0F0780
ENDCHAR
STARTCHAR uni1E8E
ENCODING 7822
SWIDTH 583 0
DWIDTH 17 0
BBX 19 26 2 0
BITMAP
001800
003C00
003C00
003C00
001800
000000
FFC7E0
FFCFC0
3E0380
3F0300
3F0600
1F0C00
1F8C00
1F9800
0FB000
0FB000
0FE000
0FC000
07C000
07C000
0FC000
0F8000
0F8000
0F8000
7FE000
7FE000
ENDCHAR
STARTCHAR uni1E8F
ENCODING 7823
SWIDTH 558 0
DWIDTH 17 0
BBX 18 30 -1 -7
BITMAP
000800
001E00
003E00
003E00
003C00
000800
000000
000000
0781C0
0F83C0
1FC3C0
3FC7C0
07C7C0
07C780
07C700
07CF00
07CE00
03CE00
03EC00
03F800
03F000
03F000
01E000
01C000
018000
618000
F30000
FE0000
F80000
700000
ENDCHAR
STARTCHAR uni1E92
ENCODING 7826
SWIDTH 547 0
DWIDTH 16 0
BBX 18 27 0 -7
BITMAP
1FFFC0
1FFFC0
1C1F80
1C1F80
383F00
387E00
007E00
00FC00
01F800
03F000
03F000
07E000
0FC000
0FC000
1F8700
3F0700
7E0700
7E0E00
FFFE00
FFFE00
000000
010000
078000
0F8000
0F8000
078000
020000
ENDCHAR
STARTCHAR uni1E93
ENCODING 7827
SWIDTH 511 0
DWIDTH 15 0
BBX 16 22 0 -7
BITMAP
0E03
1FC7
3FF6
3FFE
3FF8
31F0
3060
30CE
030E
060E
0E0E
3FFE
3FFC
6FF8
E7F0
01E0
0200
0F00
0F00
0F00
0F00
0400
ENDCHAR
STARTCHAR uni1E97
ENCODING 7831
SWIDTH 352 0
DWIDTH 11 0
BBX 13 25 2 0
BITMAP
3C70
7CF8
7CF8
78F0
1020
0000
0700
0F00
0F00
1E00
7FC0
FFC0
3E00
3E00
7C00
7C00
7C00
7C00
7C00
F800
F800
F900
FF00
FE00
F800
ENDCHAR
STARTCHAR uni1E9E
ENCODING 7838
SWIDTH 741 0
DWIDTH 22 0
BBX 23 21 -1 -1
BITMAP
003FE0
00FFF8
01F838
03F0F0
03E1E0
07E3C0
07C3E0
07C7E0
07C7F0
0FC3F8
0FC3F8
0F81FC
0F81FC
0F80FE
0F9C7E
1F9C7E
1F1C7C
1F1C7C
FF1CF8
FF1FF0
000100
ENDCHAR
STARTCHAR uni1EA0
ENCODING 7840
SWIDTH 693 0
DWIDTH 21 0
BBX 21 27 -1 -7
BITMAP
000F00
001F00
001F00
003F00
003F00
007F00
006F80
00CF80
00CF80
018F80
018F80
030F80
0307C0
07FFC0
07FFC0
0C07C0
0C07C0
1807C0
FE1FF8
FE1FF8
000000
008000
03C000
03E000
03E000
03C000
010000
ENDCHAR
STARTCHAR uni1EA1
ENCODING 7841
SWIDTH 588 0
DWIDTH 18 0
BBX 17 22 1 -7
BITMAP
00F980
03FF00
071F00
0E1F00
1E3F00
3C3E00
3C3E00
7C3E00
7C3E00
7C7C00
FC7C00
FCFC80
7FFF80
7F7F00
7E3E00
000000
020000
0F0000
0F8000
0F8000
0F0000
040000
ENDCHAR
STARTCHAR uni1EA2
ENCODING 7842
SWIDTH 693 0
DWIDTH 21 0
BBX 21 28 -1 0
BITMAP
000400
000780
000780
0007C0
0001C0
000780
000600
000000
000F00
001F00
001F00
003F00
003F00
007F00
006F80
00CF80
00CF80
018F80
018F80
030F80
0307C0
07FFC0
07FFC0
0C07C0
0C07C0
1807C0
FE1FF8
FE1FF8
ENDCHAR
STARTCHAR uni1EA3
ENCODING 7843
SWIDTH 588 0
DWIDTH 18 0
BBX 17 24 1 0
BITMAP
00E000
00F800
00F800
007C00
001800
007800
007000
000000
000000
00F980
03FF00
071F00
0E1F00
1E3F00
3C3E00
3C3E00
7C3E00
7C3E00
7C7C00
FC7C00
FCFC80
7FFF80
7F7F00
7E3E00
ENDCHAR
STARTCHAR uni1EA4
ENCODING 7844
SWIDTH 693 0
DWIDTH 21 0
BBX 23 28 -1 0
BITMAP
00001E
00001E
00073C
000FF8
001FC0
0039C0
00E060
004020
000F00
001F00
001F00
003F00
003F00
007F00
006F80
00CF80
00CF80
018F80
018F80
030F80
0307C0
07FFC0
07FFC0
0C07C0
0C07C0
1807C0
FE1FF8
FE1FF8
ENDCHAR
STARTCHAR uni1EA5
ENCODING 7845
SWIDTH 588 0
DWIDTH 18 0
BBX 19 25 1 0
BITMAP
000040
0000E0
0001E0
003BE0
007D80
00FE00
01CE00
038300
020100
000000
00F980
03FF00
071F00
0E1F00
1E3F00
3C3E00
3C3E00
7C3E00
7C3E00
7C7C00
FC7C00
FCFC80
7FFF80
7F7F00
7E3E00
ENDCHAR
STARTCHAR uni1EA6
ENCODING 7846
SWIDTH 693 0
DWIDTH 21 0
BBX 21 28 -1 0
BITMAP
01C000
03C000
01E700
00EF80
001FC0
0039C0
00E060
004020
000F00
001F00
001F00
003F00
003F00
007F00
006F80
00CF80
00CF80
018F80
018F80
030F80
0307C0
07FFC0
07FFC0
0C07C0
0C07C0
1807C0
FE1FF8
FE1FF8
ENDCHAR
STARTCHAR uni1EA7
ENCODING 7847
SWIDTH 588 0
DWIDTH 18 0
BBX 17 25 1 0
BITMAP
040000
0E0000
0F0000
0F3800
037C00
00FE00
01CE00
038300
020100
000000
00F980
03FF00
071F00
0E1F00
1E3F00
3C3E00
3C3E00
7C3E00
7C3E00
7C7C00
FC7C00
FCFC80
7FFF80
7F7F00
7E3E00
ENDCHAR
STARTCHAR uni1EA8
ENCODING 7848
SWIDTH 693 0
DWIDTH 21 0
BBX 22 30 -1 0
BITMAP
000038
00003C
00003C
00001C
00071C
000FB8
001FC0
0039C0
00E060
004020
000F00
001F00
001F00
003F00
003F00
007F00
006F80
00CF80
00CF80
018F80
018F80
030F80
0307C0
07FFC0
07FFC0
0C07C0
0C07C0
1807C0
FE1FF8
FE1FF8
ENDCHAR
STARTCHAR uni1EA9
ENCODING 7849
SWIDTH 588 0
DWIDTH 18 0
BBX 19 27 1 0
BITMAP
000180
0001E0
0001E0
0001E0
000060
0038E0
007DC0
00FE00
01CE00
038300
020100
000000
00F980
03FF00
071F00
0E1F00
1E3F00
3C3E00
3C3E00
7C3E00
7C3E00
7C7C00
FC7C00
FCFC80
7FFF80
7F7F00
7E3E00
ENDCHAR
STARTCHAR uni1EAA
ENCODING 7850
SWIDTH 693 0
DWIDTH 21 0
BBX 21 30 -1 0
BITMAP
001E30
003FF0
0077E0
0020C0
000700
000F80
001FC0
0039C0
00E060
004020
000F00
001F00
001F00
003F00
003F00
007F00
006F80
00CF80
00CF80
018F80
018F80
030F80
0307C0
07FFC0
07FFC0
0C07C0
0C07C0
1807C0
FE1FF8
FE1FF8
ENDCHAR
STARTCHAR uni1EAB
ENCODING 7851
SWIDTH 588 0
DWIDTH 18 0
BBX 17 26 1 0
BITMAP
00F180
01FF80
019F00
030600
003800
007C00
00FE00
01CE00
038700
020100
000000
00F980
03FF00
071F00
0E1F00
1E3F00
3C3E00
3C3E00
7C3E00
7C3E00
7C7C00
FC7C00
FCFC80
7FFF80
7F7F00
7E3E00
ENDCHAR
STARTCHAR uni1EAC
ENCODING 7852
SWIDTH 693 0
DWIDTH 21 0
BBX 21 33 -1 -7
BITMAP
000700
000F80
001FC0
0039C0
00E060
004020
000F00
001F00
001F00
003F00
003F00
007F00
006F80
00CF80
00CF80
018F80
018F80
030F80
0307C0
07FFC0
07FFC0
0C07C0
0C07C0
1807C0
FE1FF8
FE1FF8
000000
008000
03C000
03E000
03E000
03C000
010000
ENDCHAR
STARTCHAR uni1EAD
ENCODING 7853
SWIDTH 588 0
DWIDTH 18 0
BBX 17 30 1 -7
BITMAP
003800
007C00
00FC00
00FE00
01CE00
030300
020200
000000
00F980
03FF00
071F00
0E1F00
1E3F00
3C3E00
3C3E00
7C3E00
7C3E00
7C7C00
FC7C00
FCFC80
7FFF80
7F7F00
7E3E00
000000
040000
1E0000
1E0000
1E0000
1E0000
080000
ENDCHAR
STARTCHAR uni1EAE
ENCODING 7854
SWIDTH 693 0
DWIDTH 21 0
BBX 21 31 -1 0
BITMAP
000040
0001E0
0003E0
0003C0
000780
002220
007070
003FE0
001FC0
000F80
000000
000F00
001F00
001F00
003F00
003F00
007F00
006F80
00CF80
00CF80
018F80
018F80
030F80
0307C0
07FFC0
07FFC0
0C07C0
0C07C0
1807C0
FE1FF8
FE1FF8
ENDCHAR
STARTCHAR uni1EAF
ENCODING 7855
SWIDTH 588 0
DWIDTH 18 0
BBX 17 27 1 0
BITMAP
000600
000E00
001E00
001E00
003C00
003000
030300
01CF00
01FE00
00FC00
000000
000000
00F980
03FF00
071F00
0E1F00
1E3F00
3C3E00
3C3E00
7C3E00
7C3E00
7C7C00
FC7C00
FCFC80
7FFF80
7F7F00
7E3E00
ENDCHAR
STARTCHAR uni1EB0
ENCODING 7856
SWIDTH 693 0
DWIDTH 21 0
BBX 21 31 -1 0
BITMAP
000800
001E00
001E00
001F00
000780
002320
007070
003FE0
001FC0
000F80
000000
000F00
001F00
001F00
003F00
003F00
007F00
006F80
00CF80
00CF80
018F80
018F80
030F80
0307C0
07FFC0
07FFC0
0C07C0
0C07C0
1807C0
FE1FF8
FE1FF8
ENDCHAR
STARTCHAR uni1EB1
ENCODING 7857
SWIDTH 588 0
DWIDTH 18 0
BBX 17 27 1 0
BITMAP
004000
00E000
00F000
007000
003800
001800
030300
01CF00
01FE00
00FC00
000000
000000
00F980
03FF00
071F00
0E1F00
1E3F00
3C3E00
3C3E00
7C3E00
7C3E00
7C7C00
FC7C00
FCFC80
7FFF80
7F7F00
7E3E00
ENDCHAR
STARTCHAR uni1EB2
ENCODING 7858
SWIDTH 693 0
DWIDTH 21 0
BBX 21 31 -1 0
BITMAP
000700
000780
0007C0
0007C0
0001C0
0027A0
007470
003FE0
001FC0
000F80
000000
000F00
001F00
001F00
003F00
003F00
007F00
006F80
00CF80
00CF80
018F80
018F80
030F80
0307C0
07FFC0
07FFC0
0C07C0
0C07C0
1807C0
FE1FF8
FE1FF8
ENDCHAR
STARTCHAR uni1EB3
ENCODING 7859
SWIDTH 588 0
DWIDTH 18 0
BBX 17 27 1 0
BITMAP
003800
003C00
003E00
001E00
000C00
003800
030300
01CF00
01FE00
00FC00
000000
000000
00F980
03FF00
071F00
0E1F00
1E3F00
3C3E00
3C3E00
7C3E00
7C3E00
7C7C00
FC7C00
FCFC80
7FFF80
7F7F00
7E3E00
ENDCHAR
STARTCHAR uni1EB4
ENCODING 7860
SWIDTH 693 0
DWIDTH 21 0
BBX 21 30 -1 0
BITMAP
001E10
003FF0
0033E0
0060C0
002020
007070
003FE0
001FC0
000F80
000000
000F00
001F00
001F00
003F00
003F00
007F00
006F80
00CF80
00CF80
018F80
018F80
030F80
0307C0
07FFC0
07FFC0
0C07C0
0C07C0
1807C0
FE1FF8
FE1FF8
ENDCHAR
STARTCHAR uni1EB5
ENCODING 7861
SWIDTH 588 0
DWIDTH 18 0
BBX 17 26 1 0
BITMAP
00F080
01FF80
019F80
010600
000000
030300
01CF00
01FE00
00FC00
000000
000000
00F980
03FF00
071F00
0E1F00
1E3F00
3C3E00
3C3E00
7C3E00
7C3E00
7C7C00
FC7C00
FCFC80
7FFF80
7F7F00
7E3E00
ENDCHAR
STARTCHAR uni1EB6
ENCODING 7862
SWIDTH 693 0
DWIDTH 21 0
BBX 21 33 -1 -7
BITMAP
002020
007070
003FE0
003FC0
000F80
000000
000F00
001F00
001F00
003F00
003F00
007F00
006F80
00CF80
00CF80
018F80
018F80
030F80
0307C0
07FFC0
07FFC0
0C07C0
0C07C0
1807C0
FE1FF8
FE1FF8
000000
004000
01E000
03E000
03E000
01E000
008000
ENDCHAR
STARTCHAR uni1EB7
ENCODING 7863
SWIDTH 588 0
DWIDTH 18 0
BBX 17 29 1 -7
BITMAP
010180
018300
01FF00
01FE00
00FC00
000000
000000
00F980
03FF00
071F00
0E1F00
1E3F00
3C3E00
3C3E00
7C3E00
7C3E00
7C7C00
FC7C00
FCFC80
7FFF80
7F7F00
7E3E00
000000
040000
1E0000
1E0000
1E0000
1E0000
080000
ENDCHAR
STARTCHAR uni1EB8
ENCODING 7864
SWIDTH 587 0
DWIDTH 18 0
BBX 18 27 0 -7
BITMAP
1FFFC0
1FFFC0
07E1C0
07C1C0
07C1C0
07C1C0
07C000
0FC600
0F8C00
0FFC00
0FFC00
0F8C00
1F8C00
1F8000
1F0000
1F0380
1F0300
3F0700
FFFF00
FFFF00
000000
010000
038000
07C000
07C000
078000
020000
ENDCHAR
STARTCHAR uni1EB9
ENCODING 7865
SWIDTH 496 0
DWIDTH 15 0
BBX 14 22 1 -7
BITMAP
03F8
07FC
1F3C
1E3C
3C3C
7C7C
7CF8
7DE0
FF80
FC00
FC08
7E38
7FF0
3FE0
1FC0
0000
0400
0F00
1F00
1F00
1E00
0400
ENDCHAR
STARTCHAR uni1EBA
ENCODING 7866
SWIDTH 587 0
DWIDTH 18 0
BBX 18 28 0 0
BITMAP
001000
001C00
001E00
003E00
000600
001E00
001800
000000
1FFFC0
1FFFC0
07E1C0
07C1C0
07C1C0
07C1C0
07C000
0FC600
0F8C00
0FFC00
0FFC00
0F8C00
1F8C00
1F8000
1F0000
1F0380
1F0300
3F0700
FFFF00
FFFF00
ENDCHAR
STARTCHAR uni1EBB
ENCODING 7867
SWIDTH 496 0
DWIDTH 15 0
BBX 14 24 1 0
BITMAP
0070
0078
00FC
007C
001C
0038
0070
0000
0000
03F8
07FC
1F3C
1E3C
3C3C
7C7C
7CF8
7DE0
FF80
FC00
FC08
7E38
7FF0
3FE0
1FC0
ENDCHAR
STARTCHAR uni1EBC
ENCODING 7868
SWIDTH 587 0
DWIDTH 18 0
BBX 18 26 0 0
BITMAP
002040
00F8C0
01FFC0
019F80
010700
000000
1FFFC0
1FFFC0
07E1C0
07C1C0
07C1C0
07C1C0
07C000
0FC600
0F8C00
0FFC00
0FFC00
0F8C00
1F8C00
1F8000
1F0000
1F0380
1F0300
3F0700
FFFF00
FFFF00
ENDCHAR
STARTCHAR uni1EBD
ENCODING 7869
SWIDTH 496 0
DWIDTH 15 0
BBX 16 22 1 0
BITMAP
01C3
03F3
07FE
067E
0C3C
0000
0000
03F8
07FC
1F3C
1E3C
3C3C
7C7C
7CF8
7DE0
FF80
FC00
FC08
7E38
7FF0
3FE0
1FC0
ENDCHAR
STARTCHAR uni1EBE
ENCODING 7870
SWIDTH 587 0
DWIDTH 18 0
BBX 20 28 0 0
BITMAP
000070
0000F0
003DF0
007FC0
00FE00
01C700
038380
020100
1FFFC0
1FFFC0
07E1C0
07C1C0
07C1C0
07C1C0
07C000
0FC600
0F8C00
0FFC00
0FFC00
0F8C00
1F8C00
1F8000
1F0000
1F0380
1F0300
3F0700
FFFF00
FFFF00
ENDCHAR
STARTCHAR uni1EBF
ENCODING 7871
SWIDTH 496 0
DWIDTH 15 0
BBX 18 25 1 0
BITMAP
0000C0
0001C0
0003C0
00F780
00FB00
01F800
039C00
060E00
040400
000000
03F800
07FC00
1F3C00
1E3C00
3C3C00
7C7C00
7CF800
7DE000
FF8000
FC0000
FC0800
7E3800
7FF000
3FE000
1FC000
ENDCHAR
STARTCHAR uni1EC0
ENCODING 7872
SWIDTH 587 0
DWIDTH 18 0
BBX 18 28 0 0
BITMAP
0F0000
0F0000
07BC00
037E00
00FE00
01C700
038380
020100
1FFFC0
1FFFC0
07E1C0
07C1C0
07C1C0
07C1C0
07C000
0FC600
0F8C00
0FFC00
0FFC00
0F8C00
1F8C00
1F8000
1F0000
1F0380
1F0300
3F0700
FFFF00
FFFF00
ENDCHAR
STARTCHAR uni1EC1
ENCODING 7873
SWIDTH 496 0
DWIDTH 15 0
BBX 15 25 1 0
BITMAP
0800
3C00
1E00
1EF0
04F8
01F8
039C
060E
0404
0000
03F8
07FC
1F3C
1E3C
3C3C
7C7C
7CF8
7DE0
FF80
FC00
FC08
7E38
7FF0
3FE0
1FC0
ENDCHAR
STARTCHAR uni1EC2
ENCODING 7874
SWIDTH 587 0
DWIDTH 18 0
BBX 20 30 0 0
BITMAP
0000E0
0000F0
0001F0
000070
003C60
007EC0
00FE00
01C700
038380
020100
1FFFC0
1FFFC0
07E1C0
07C1C0
07C1C0
07C1C0
07C000
0FC600
0F8C00
0FFC00
0FFC00
0F8C00
1F8C00
1F8000
1F0000
1F0380
1F0300
3F0700
FFFF00
FFFF00
ENDCHAR
STARTCHAR uni1EC3
ENCODING 7875
SWIDTH 496 0
DWIDTH 15 0
BBX 18 27 1 0
BITMAP
000300
0003C0
0003C0
0003C0
0000C0
00F1C0
00FB80
01F800
039C00
060E00
040400
000000
03F800
07FC00
1F3C00
1E3C00
3C3C00
7C7C00
7CF800
7DE000
FF8000
FC0000
FC0800
7E3800
7FF000
3FE000
1FC000
ENDCHAR
STARTCHAR uni1EC4
ENCODING 7876
SWIDTH 587 0
DWIDTH 18 0
BBX 18 30 0 0
BITMAP
00F0C0
01FF80
019F80
010700
001C00
003C00
00FE00
01E700
038380
020100
1FFFC0
1FFFC0
07E1C0
07C1C0
07C1C0
07C1C0
07C000
0FC600
0F8C00
0FFC00
0FFC00
0F8C00
1F8C00
1F8000
1F0000
1F0380
1F0300
3F0700
FFFF00
FFFF00
ENDCHAR
STARTCHAR uni1EC5
ENCODING 7877
SWIDTH 496 0
DWIDTH 15 0
BBX 16 26 1 0
BITMAP
01E3
03FF
073E
020C
0070
00F8
01F8
039C
070E
0404
0000
03F8
07FC
1F3C
1E3C
3C3C
7C7C
7CF8
7DE0
FF80
FC00
FC08
7E38
7FF0
3FE0
1FC0
ENDCHAR
STARTCHAR uni1EC6
ENCODING 7878
SWIDTH 587 0
DWIDTH 18 0
BBX 18 33 0 -7
BITMAP
003C00
007E00
00FE00
01C700
038380
020100
1FFFC0
1FFFC0
07E1C0
07C1C0
07C1C0
07C1C0
07C000
0FC600
0F8C00
0FFC00
0FFC00
0F8C00
1F8C00
1F8000
1F0000
1F0380
1F0300
3F0700
FFFF00
FFFF00
000000
010000
038000
07C000
07C000
078000
020000
ENDCHAR
STARTCHAR uni1EC7
ENCODING 7879
SWIDTH 496 0
DWIDTH 15 0
BBX 15 30 1 -7
BITMAP
0070
00F0
01F8
03FC
079C
0E0E
0404
0000
03F8
07FC
1F3C
1E3C
3C3C
7C7C
7CF8
7DE0
FF80
FC00
FC08
7E38
7FF0
3FE0
1FC0
0000
0400
1E00
1F00
1F00
1E00
0800
ENDCHAR
STARTCHAR uni1EC8
ENCODING 7880
SWIDTH 384 0
DWIDTH 12 0
BBX 13 28 0 0
BITMAP
0080
00E0
01F0
01F0
0070
00F0
00C0
0000
1FF8
1FF8
07E0
07C0
07C0
07C0
07C0
0FC0
0F80
0F80
0F80
0F80
1F80
1F00
1F00
1F00
1F00
3F00
FFC0
FFC0
ENDCHAR
STARTCHAR uni1EC9
ENCODING 7881
SWIDTH 325 0
DWIDTH 10 0
BBX 9 24 2 0
BITMAP
0E00
0F00
1F80
0F80
0380
0700
0E00
0000
0000
0E00
7E00
FE00
3E00
7E00
7C00
7C00
7C00
7C00
F800
F800
F900
FF00
FE00
FC00
ENDCHAR
STARTCHAR uni1ECA
ENCODING 7882
SWIDTH 384 0
DWIDTH 12 0
BBX 13 27 0 -7
BITMAP
1FF8
1FF8
07E0
07C0
07C0
07C0
07C0
0FC0
0F80
0F80
0F80
0F80
1F80
1F00
1F00
1F00
1F00
3F00
FFC0
FFC0
0000
0800
3C00
3C00
7C00
3C00
1000
ENDCHAR
STARTCHAR uni1ECB
ENCODING 7883
SWIDTH 325 0
DWIDTH 10 0
BBX 10 30 1 -7
BITMAP
0100
0780
0FC0
0F80
0780
0200
0000
0000
0700
3F00
7F00
1F00
3F00
3E00
3E00
3E00
3E00
7C00
7C00
7C80
7F80
7F00
7E00
0000
2000
7800
F800
F800
F000
2000
ENDCHAR
STARTCHAR uni1ECC
ENCODING 7884
SWIDTH 672 0
DWIDTH 20 0
BBX 19 27 1 -7
BITMAP
00FE00
03FF80
0F87C0
1F03C0
1F03E0
3E03E0
7E03E0
7C03E0
7C03E0
FC03E0
FC03E0
FC03E0
FC07E0
FC07C0
FC07C0
7C0F80
7C0F80
7C1F00
3E7E00
0FF800
01C000
010000
078000
07C000
07C000
078000
030000
ENDCHAR
STARTCHAR uni1ECD
ENCODING 7885
SWIDTH 551 0
DWIDTH 17 0
BBX 16 22 1 -7
BITMAP
03F8
0FFC
1F3E
3E3E
3E3E
7C3F
7C3F
7C3E
FC3E
F83E
F87C
787C
7C78
3CF0
1FC0
0000
0400
0F00
1F00
1F00
1E00
0400
ENDCHAR
STARTCHAR uni1ECE
ENCODING 7886
SWIDTH 672 0
DWIDTH 20 0
BBX 19 29 1 -1
BITMAP
001000
001E00
001F00
001F00
000700
001E00
000800
000000
00FE00
03FF80
0F87C0
1F03C0
1F03E0
3E03E0
7E03E0
7C03E0
7C03E0
FC03E0
FC03E0
FC03E0
FC07E0
FC07C0
FC07C0
7C0F80
7C0F80
7C1F00
3E7E00
0FF800
01C000
ENDCHAR
STARTCHAR uni1ECF
ENCODING 7887
SWIDTH 551 0
DWIDTH 17 0
BBX 16 24 1 0
BITMAP
0070
0078
00FC
007C
001C
0038
0070
0000
0000
03F8
0FFC
1F3E
3E3E
3E3E
7C3F
7C3F
7C3E
FC3E
F83E
F87C
787C
7C78
3CF0
1FC0
ENDCHAR
STARTCHAR uni1ED0
ENCODING 7888
SWIDTH 672 0
DWIDTH 20 0
BBX 21 29 1 -1
BITMAP
000078
000078
001CF0
003FE0
007F00
00E700
018180
010080
00FE00
03FF80
0F87C0
1F03C0
1F03E0
3E03E0
7E03E0
7C03E0
7C03E0
FC03E0
FC03E0
FC03E0
FC07E0
FC07C0
FC07C0
7C0F80
7C0F80
7C1F00
3E7E00
0FF800
01C000
ENDCHAR
STARTCHAR uni1ED1
ENCODING 7889
SWIDTH 551 0
DWIDTH 17 0
BBX 18 25 1 0
BITMAP
000080
0001C0
0003C0
0077C0
00FB00
01FC00
039C00
060E00
040200
000000
03F800
0FFC00
1F3E00
3E3E00
3E3E00
7C3F00
7C3F00
7C3E00
FC3E00
F83E00
F87C00
787C00
7C7800
3CF000
1FC000
ENDCHAR
STARTCHAR uni1ED2
ENCODING 7890
SWIDTH 672 0
DWIDTH 20 0
BBX 19 29 1 -1
BITMAP
070000
0F0000
079C00
03BE00
007F00
00E700
018180
010080
00FE00
03FF80
0F87C0
1F03C0
1F03E0
3E03E0
7E03E0
7C03E0
7C03E0
FC03E0
FC03E0
FC03E0
FC07E0
FC07C0
FC07C0
7C0F80
7C0F80
7C1F00
3E7E00
0FF800
01C000
ENDCHAR
STARTCHAR uni1ED3
ENCODING 7891
SWIDTH 551 0
DWIDTH 17 0
BBX 16 25 1 0
BITMAP
0800
1C00
1E00
1E70
04F8
01FC
039C
060E
0402
0000
03F8
0FFC
1F3E
3E3E
3E3E
7C3F
7C3F
7C3E
FC3E
F83E
F87C
787C
7C78
3CF0
1FC0
ENDCHAR
STARTCHAR uni1ED4
ENCODING 7892
SWIDTH 672 0
DWIDTH 20 0
BBX 20 31 1 -1
BITMAP
0000E0
0000F0
0000F0
000070
001C70
003EE0
007F00
00E700
018180
010080
00FE00
03FF80
0F87C0
1F03C0
1F03E0
3E03E0
7E03E0
7C03E0
7C03E0
FC03E0
FC03E0
FC03E0
FC07E0
FC07C0
FC07C0
7C0F80
7C0F80
7C1F00
3E7E00
0FF800
01C000
ENDCHAR
STARTCHAR uni1ED5
ENCODING 7893
SWIDTH 551 0
DWIDTH 17 0
BBX 18 27 1 0
BITMAP
000300
0003C0
0003C0
0003C0
0000C0
0071C0
00FB80
01FC00
039C00
060E00
040200
000000
03F800
0FFC00
1F3E00
3E3E00
3E3E00
7C3F00
7C3F00
7C3E00
FC3E00
F83E00
F87C00
787C00
7C7800
3CF000
1FC000
ENDCHAR
STARTCHAR uni1ED6
ENCODING 7894
SWIDTH 672 0
DWIDTH 20 0
BBX 19 31 1 -1
BITMAP
0078C0
00FFC0
01DF80
008300
001C00
003E00
007F00
00E700
018180
010080
00FE00
03FF80
0F87C0
1F03C0
1F03E0
3E03E0
7E03E0
7C03E0
7C03E0
FC03E0
FC03E0
FC03E0
FC07E0
FC07C0
FC07C0
7C0F80
7C0F80
7C1F00
3E7E00
0FF800
01C000
ENDCHAR
STARTCHAR uni1ED7
ENCODING 7895
SWIDTH 551 0
DWIDTH 17 0
BBX 16 26 1 0
BITMAP
01E3
03FF
073E
020C
0070
00F8
01F8
039C
070E
0402
0000
03F8
0FFC
1F3E
3E3E
3E3E
7C3F
7C3F
7C3E
FC3E
F83E
F87C
787C
7C78
3CF0
1FC0
ENDCHAR
STARTCHAR uni1ED8
ENCODING 7896
SWIDTH 672 0
DWIDTH 20 0
BBX 19 33 1 -7
BITMAP
001C00
003E00
007F00
00E700
018180
010080
00FE00
03FF80
0F87C0
1F03C0
1F03E0
3E03E0
7E03E0
7C03E0
7C03E0
FC03E0
FC03E0
FC03E0
FC07E0
FC07C0
FC07C0
7C0F80
7C0F80
7C1F00
3E7E00
0FF800
01C000
010000
03C000
07C000
07C000
078000
010000
ENDCHAR
STARTCHAR uni1ED9
ENCODING 7897
SWIDTH 551 0
DWIDTH 17 0
BBX 16 30 1 -7
BITMAP
0070
00F8
01F8
03FC
039C
0606
0404
0000
03F8
0FFC
1F3E
3E3E
3E3E
7C3F
7C3F
7C3E
FC3E
F83E
F87C
787C
7C78
3CF0
1FC0
0000
0400
0F00
1F00
1F00
1E00
0400
ENDCHAR
STARTCHAR uni1EDA
ENCODING 7898
SWIDTH 672 0
DWIDTH 20 0
BBX 22 27 1 -1
BITMAP
000380
000FC0
001F9C
003F3C
00383C
000018
00FE18
03FFB0
0F87E0
1F03C0
1F03E0
3E03E0
7E03E0
7C03E0
7C03E0
FC03E0
FC03E0
FC03E0
FC07E0
FC07C0
FC07C0
7C0F80
7C0F80
7C1F00
3E7E00
0FF800
01C000
ENDCHAR
STARTCHAR uni1EDB
ENCODING 7899
SWIDTH 551 0
DWIDTH 17 0
BBX 19 24 1 0
BITMAP
000C00
001E00
003E00
003E00
003C00
0078E0
0071E0
0041E0
0000C0
03F8C0
0FFD80
1F3F00
3E3E00
3E3E00
7C3F00
7C3F00
7C3E00
FC3E00
F83E00
F87C00
787C00
7C7800
3CF000
1FC000
ENDCHAR
STARTCHAR uni1EDC
ENCODING 7900
SWIDTH 672 0
DWIDTH 20 0
BBX 22 27 1 -1
BITMAP
03C000
03E000
01F01C
00F83C
001C3C
000018
00FE18
03FFB0
0F87E0
1F03C0
1F03E0
3E03E0
7E03E0
7C03E0
7C03E0
FC03E0
FC03E0
FC03E0
FC07E0
FC07C0
FC07C0
7C0F80
7C0F80
7C1F00
3E7E00
0FF800
01C000
ENDCHAR
STARTCHAR uni1EDD
ENCODING 7901
SWIDTH 551 0
DWIDTH 17 0
BBX 19 24 1 0
BITMAP
020000
078000
078000
078000
03C000
01C0E0
00C1E0
0041E0
0000C0
03F8C0
0FFD80
1F3F00
3E3E00
3E3E00
7C3F00
7C3F00
7C3E00
FC3E00
F83E00
F87C00
787C00
7C7800
3CF000
1FC000
ENDCHAR
STARTCHAR uni1EDE
ENCODING 7902
SWIDTH 672 0
DWIDTH 20 0
BBX 22 29 1 -1
BITMAP
001000
001E00
001F00
001F00
00071C
001E3C
00083C
000018
00FE18
03FFB0
0F87E0
1F03C0
1F03E0
3E03E0
7E03E0
7C03E0
7C03E0
FC03E0
FC03E0
FC03E0
FC07E0
FC07C0
FC07C0
7C0F80
7C0F80
7C1F00
3E7E00
0FF800
01C000
ENDCHAR
STARTCHAR uni1EDF
ENCODING 7903
SWIDTH 551 0
DWIDTH 17 0
BBX 19 24 1 0
BITMAP
007000
007800
00FC00
007C00
001C00
0038E0
0071E0
0001E0
0000C0
03F8C0
0FFD80
1F3F00
3E3E00
3E3E00
7C3F00
7C3F00
7C3E00
FC3E00
F83E00
F87C00
787C00
7C7800
3CF000
1FC000
ENDCHAR
STARTCHAR uni1EE0
ENCODING 7904
SWIDTH 672 0
DWIDTH 20 0
BBX 22 27 1 -1
BITMAP
002080
00F8C0
01FF9C
019FBC
030F3C
000018
00FE18
03FFB0
0F87E0
1F03C0
1F03E0
3E03E0
7E03E0
7C03E0
7C03E0
FC03E0
FC03E0
FC03E0
FC07E0
FC07C0
FC07C0
7C0F80
7C0F80
7C1F00
3E7E00
0FF800
01C000
ENDCHAR
STARTCHAR uni1EE1
ENCODING 7905
SWIDTH 551 0
DWIDTH 17 0
BBX 19 22 1 0
BITMAP
01C300
07E600
07FE00
0C7CE0
0C39E0
0001E0
0000C0
03F8C0
0FFD80
1F3F00
3E3E00
3E3E00
7C3F00
7C3F00
7C3E00
FC3E00
F83E00
F87C00
787C00
7C7800
3CF000
1FC000
ENDCHAR
STARTCHAR uni1EE2
ENCODING 7906
SWIDTH 672 0
DWIDTH 20 0
BBX 22 31 1 -7
BITMAP
00001C
00003C
00003C
000018
00FE18
03FFB0
0F87E0
1F03C0
1F03E0
3E03E0
7E03E0
7C03E0
7C03E0
FC03E0
FC03E0
FC03E0
FC07E0
FC07C0
FC07C0
7C0F80
7C0F80
7C1F00
3E7E00
0FF800
01C000
010000
078000
07C000
07C000
078000
030000
ENDCHAR
STARTCHAR uni1EE3
ENCODING 7907
SWIDTH 551 0
DWIDTH 17 0
BBX 19 26 1 -7
BITMAP
0000E0
0001E0
0001E0
0000C0
03F8C0
0FFD80
1F3F00
3E3E00
3E3E00
7C3F00
7C3F00
7C3E00
FC3E00
F83E00
F87C00
787C00
7C7800
3CF000
1FC000
000000
040000
0F0000
1F0000
1F0000
1E0000
040000
ENDCHAR
STARTCHAR uni1EE4
ENCODING 7908
SWIDTH 677 0
DWIDTH 20 0
BBX 20 27 3 -7
BITMAP
FFC7F0
FFC7F0
3E0180
7E0180
7E0180
7E0300
7E0300
7C0300
FC0300
FC0300
FC0700
FC0600
F80600
F80600
F80E00
F80C00
FC1C00
FE3800
7FF000
3FE000
030000
020000
0F0000
0F8000
0F0000
0F0000
040000
ENDCHAR
STARTCHAR uni1EE5
ENCODING 7909
SWIDTH 598 0
DWIDTH 18 0
BBX 17 22 2 -7
BITMAP
0E0700
7E3F00
FE3E00
3E3E00
7C3E00
7C3E00
7C7C00
7C7C00
F87C00
F87C00
F8FC00
F8F980
FFFF00
FEFE00
FC7C00
000000
020000
0F0000
1F0000
1F0000
0F0000
040000
ENDCHAR
STARTCHAR uni1EE6
ENCODING 7910
SWIDTH 677 0
DWIDTH 20 0
BBX 20 29 3 -1
BITMAP
002000
003C00
003E00
003E00
000E00
001C00
001000
000000
FFC7F0
FFC7F0
3E0180
7E0180
7E0180
7E0300
7E0300
7C0300
FC0300
FC0300
FC0700
FC0600
F80600
F80600
F80E00
F80C00
FC1C00
FE3800
7FF000
3FE000
030000
ENDCHAR
STARTCHAR uni1EE7
ENCODING 7911
SWIDTH 598 0
DWIDTH 18 0
BBX 17 24 2 0
BITMAP
00E000
00F800
00F800
007800
001800
007800
007000
000000
000000
0E0700
7E3F00
FE3E00
3E3E00
7C3E00
7C3E00
7C7C00
7C7C00
F87C00
F87C00
F8FC00
F8F980
FFFF00
FEFE00
FC7C00
ENDCHAR
STARTCHAR uni1EE8
ENCODING 7912
SWIDTH 677 0
DWIDTH 20 0
BBX 22 27 3 -1
BITMAP
000780
000F8C
001F9C
003E1C
00701C
00001C
FFC7F8
FFC7F0
3E0180
7E0180
7E0180
7E0300
7E0300
7C0300
FC0300
FC0300
FC0700
FC0600
F80600
F80600
F80E00
F80C00
FC1C00
FE3800
7FF000
3FE000
030000
ENDCHAR
STARTCHAR uni1EE9
ENCODING 7913
SWIDTH 598 0
DWIDTH 18 0
BBX 20 24 2 0
BITMAP
001800
003C00
003C00
003C00
007800
007070
006070
004070
000070
0E0770
7E3FE0
FE3F80
3E3E00
7C3E00
7C3E00
7C7C00
7C7C00
F87C00
F87C00
F8FC00
F8F980
FFFF00
FEFE00
FC7C00
ENDCHAR
STARTCHAR uni1EEA
ENCODING 7914
SWIDTH 677 0
DWIDTH 20 0
BBX 22 27 3 -1
BITMAP
03C000
03E00C
03F01C
00F81C
00381C
00001C
FFC7F8
FFC7F0
3E0180
7E0180
7E0180
7E0300
7E0300
7C0300
FC0300
FC0300
FC0700
FC0600
F80600
F80600
F80E00
F80C00
FC1C00
FE3800
7FF000
3FE000
030000
ENDCHAR
STARTCHAR uni1EEB
ENCODING 7915
SWIDTH 598 0
DWIDTH 18 0
BBX 20 24 2 0
BITMAP
030000
078000
078000
07C000
03C000
01C070
00C070
006070
000070
0E0770
7E3FE0
FE3F80
3E3E00
7C3E00
7C3E00
7C7C00
7C7C00
F87C00
F87C00
F8FC00
F8F980
FFFF00
FEFE00
FC7C00
ENDCHAR
STARTCHAR uni1EEC
ENCODING 7916
SWIDTH 677 0
DWIDTH 20 0
BBX 22 29 3 -1
BITMAP
002000
003C00
003E00
003E0C
000E1C
001C1C
00101C
00001C
FFC7F8
FFC7F0
3E0180
7E0180
7E0180
7E0300
7E0300
7C0300
FC0300
FC0300
FC0700
FC0600
F80600
F80600
F80E00
F80C00
FC1C00
FE3800
7FF000
3FE000
030000
ENDCHAR
STARTCHAR uni1EED
ENCODING 7917
SWIDTH 598 0
DWIDTH 18 0
BBX 20 24 2 0
BITMAP
00E000
00F000
00F800
007800
003800
007870
007070
000070
000070
0E0770
7E3FE0
FE3F80
3E3E00
7C3E00
7C3E00
7C7C00
7C7C00
F87C00
F87C00
F8FC00
F8F980
FFFF00
FEFE00
FC7C00
ENDCHAR
STARTCHAR uni1EEE
ENCODING 7918
SWIDTH 677 0
DWIDTH 20 0
BBX 22 27 3 -1
BITMAP
004080
01F18C
03FF9C
033F1C
061E1C
00001C
FFC7F8
FFC7F0
3E0180
7E0180
7E0180
7E0300
7E0300
7C0300
FC0300
FC0300
FC0700
FC0600
F80600
F80600
F80E00
F80C00
FC1C00
FE3800
7FF000
3FE000
030000
ENDCHAR
STARTCHAR uni1EEF
ENCODING 7919
SWIDTH 598 0
DWIDTH 18 0
BBX 20 22 2 0
BITMAP
01C300
07E600
07FE00
0C7C70
0C3870
000070
000070
0E0770
7E3FE0
FE3F80
3E3E00
7C3E00
7C3E00
7C7C00
7C7C00
F87C00
F87C00
F8FC00
F8F980
FFFF00
FEFE00
FC7C00
ENDCHAR
STARTCHAR uni1EF0
ENCODING 7920
SWIDTH 677 0
DWIDTH 20 0
BBX 22 32 3 -7
BITMAP
00000C
00001C
00001C
00001C
00001C
FFC7F8
FFC7F0
3E0180
7E0180
7E0180
7E0300
7E0300
7C0300
FC0300
FC0300
FC0700
FC0600
F80600
F80600
F80E00
F80C00
FC1C00
FE3800
7FF000
3FE000
030000
020000
0F0000
0F8000
0F0000
0F0000
040000
ENDCHAR
STARTCHAR uni1EF1
ENCODING 7921
SWIDTH 598 0
DWIDTH 18 0
BBX 20 26 2 -7
BITMAP
000070
000070
000070
000070
0E0770
7E3FE0
FE3F80
3E3E00
7C3E00
7C3E00
7C7C00
7C7C00
F87C00
F87C00
F8FC00
F8F980
FFFF00
FEFE00
FC7C00
000000
020000
0F0000
1F0000
1F0000
0F0000
040000
ENDCHAR
STARTCHAR Ygrave
ENCODING 7922
SWIDTH 583 0
DWIDTH 17 0
BBX 19 26 2 0
BITMAP
078000
07C000
07E000
01F000
007000
000000
FFC7E0
FFCFC0
3E0380
3F0300
3F0600
1F0C00
1F8C00
1F9800
0FB000
0FB000
0FE000
0FC000
07C000
07C000
0FC000
0F8000
0F8000
0F8000
7FE000
7FE000
ENDCHAR
STARTCHAR ygrave
ENCODING 7923
SWIDTH 558 0
DWIDTH 17 0
BBX 18 31 -1 -7
BITMAP
00C000
01E000
01F000
00F000
00F000
007800
001800
000800
000000
0781C0
0F83C0
1FC3C0
3FC7C0
07C7C0
07C780
07C700
07CF00
07CE00
03CE00
03EC00
03F800
03F000
03F000
01E000
01C000
018000
618000
F30000
FE0000
F80000
700000
ENDCHAR
STARTCHAR uni1EF4
ENCODING 7924
SWIDTH 583 0
DWIDTH 17 0
BBX 19 27 2 -7
BITMAP
FFC7E0
FFCFC0
3E0380
3F0300
3F0600
1F0C00
1F8C00
1F9800
0FB000
0FB000
0FE000
0FC000
07C000
07C000
0FC000
0F8000
0F8000
0F8000
7FE000
7FE000
000000
040000
1E0000
1F0000
1F0000
1E0000
0C0000
ENDCHAR
STARTCHAR uni1EF5
ENCODING 7925
SWIDTH 558 0
DWIDTH 17 0
BBX 18 22 -1 -7
BITMAP
0781C0
0F83C0
1FC3C0
3FC7C0
07C7C0
07C780
07C700
07CF00
07CE00
03CE00
03EC00
03F800
03F000
03F000
01E000
01C000
018800
619E00
F33E00
FE3E00
F83C00
700800
ENDCHAR
STARTCHAR uni1EF6
ENCODING 7926
SWIDTH 583 0
DWIDTH 17 0
BBX 19 28 2 0
BITMAP
002000
003C00
003E00
003E00
000E00
003C00
001000
000000
FFC7E0
FFCFC0
3E0380
3F0300
3F0600
1F0C00
1F8C00
1F9800
0FB000
0FB000
0FE000
0FC000
07C000
07C000
0FC000
0F8000
0F8000
0F8000
7FE000
7FE000
ENDCHAR
STARTCHAR uni1EF7
ENCODING 7927
SWIDTH 558 0
DWIDTH 17 0
BBX 18 31 -1 -7
BITMAP
003800
003E00
003E00
001E00
000600
001E00
001C00
000000
000000
0781C0
0F83C0
1FC3C0
3FC7C0
07C7C0
07C780
07C700
07CF00
07CE00
03CE00
03EC00
03F800
03F000
03F000
01E000
01C000
018000
618000
F30000
FE0000
F80000
700000
ENDCHAR
STARTCHAR uni1EF8
ENCODING 7928
SWIDTH 583 0
DWIDTH 17 0
BBX 19 26 2 0
BITMAP
004100
01F180
03FF00
033F00
061E00
000000
FFC7E0
FFCFC0
3E0380
3F0300
3F0600
1F0C00
1F8C00
1F9800
0FB000
0FB000
0FE000
0FC000
07C000
07C000
0FC000
0F8000
0F8000
0F8000
7FE000
7FE000
ENDCHAR
STARTCHAR uni1EF9
ENCODING 7929
SWIDTH 558 0
DWIDTH 17 0
BBX 19 29 -1 -7
BITMAP
003860
00FCC0
00FFC0
018F80
018700
000000
000000
0781C0
0F83C0
1FC3C0
3FC7C0
07C7C0
07C780
07C700
07CF00
07CE00
03CE00
03EC00
03F800
03F000
03F000
01E000
01C000
018000
618000
F30000
FE0000
F80000
700000
ENDCHAR
STARTCHAR uni2007
ENCODING 8199
SWIDTH 560 0
DWIDTH 17 0
BBX 1 1 0 0
BITMAP
00
ENDCHAR
STARTCHAR hyphen
ENCODING 8208
SWIDTH 358 0
DWIDTH 11 0
BBX 9 3 1 6
BITMAP
FF80
FF80
FF80
ENDCHAR
STARTCHAR figuredash
ENCODING 8210
SWIDTH 560 0
DWIDTH 17 0
BBX 14 3 2 6
BITMAP
FFFC
FFFC
FFFC
ENDCHAR
STARTCHAR endash
ENCODING 8211
SWIDTH 558 0
DWIDTH 17 0
BBX 15 3 1 6
BITMAP
FFFE
FFFE
FFFE
ENDCHAR
STARTCHAR emdash
ENCODING 8212
SWIDTH 858 0
DWIDTH 26 0
BBX 24 3 1 6
BITMAP
FFFFFF
FFFFFF
FFFFFF
ENDCHAR
STARTCHAR uni2015
ENCODING 8213
SWIDTH 858 0
DWIDTH 26 0
BBX 24 3 1 6
BITMAP
FFFFFF
FFFFFF
FFFFFF
ENDCHAR
STARTCHAR quoteleft
ENCODING 8216
SWIDTH 272 0
DWIDTH 8 0
BBX 6 9 4 13
BITMAP
0C
18
70
60
E0
F0
F8
F8
F0
ENDCHAR
STARTCHAR quoteright
ENCODING 8217
SWIDTH 272 0
DWIDTH 8 0
BBX 6 10 4 12
BITMAP
30
78
7C
7C
78
38
30
70
C0
80
ENDCHAR
STARTCHAR quotesinglbase
ENCODING 8218
SWIDTH 291 0
DWIDTH 9 0
BBX 6 10 0 -4
BITMAP
18
3C
7C
7C
3C
1C
18
30
E0
40
ENDCHAR
STARTCHAR quotedblleft
ENCODING 8220
SWIDTH 482 0
DWIDTH 14 0
BBX 12 9 4 13
BITMAP
0C30
1860
70C0
6180
E3C0
F3E0
FBE0
FBE0
F3C0
ENDCHAR
STARTCHAR quotedblright
ENCODING 8221
SWIDTH 482 0
DWIDTH 14 0
BBX 12 10 4 12
BITMAP
30C0
79F0
7DF0
7DF0
79F0
38E0
30E0
71C0
C380
8200
ENDCHAR
STARTCHAR quotedblbase
ENCODING 8222
SWIDTH 501 0
DWIDTH 15 0
BBX 13 10 0 -4
BITMAP
1860
3CF0
7CF8
7CF8
3CF8
1C70
1860
30E0
E180
4100
ENDCHAR
STARTCHAR dagger
ENCODING 8224
SWIDTH 513 0
DWIDTH 15 0
BBX 13 25 3 -3
BITMAP
0100
0380
07C0
0780
0780
7370
FEF8
FFF8
FAF8
4620
0F00
0F00
0F00
1F00
1F00
1E00
1E00
1E00
1C00
1C00
1C00
1C00
1800
1800
1800
ENDCHAR
STARTCHAR daggerdbl
ENCODING 8225
SWIDTH 513 0
DWIDTH 15 0
BBX 15 25 1 -3
BITMAP
0040
00E0
01F0
01E0
01E0
1CDC
3FBE
3FFE
3FBE
11C8
03C0
03C0
07C0
07C0
0780
0380
7B38
FFFC
FFFC
FAF8
6730
0F00
0F00
0F00
0E00
ENDCHAR
STARTCHAR bullet
ENCODING 8226
SWIDTH 340 0
DWIDTH 10 0
BBX 8 8 2 6
BITMAP
3E
7F
FF
FF
FF
FF
7E
3C
ENDCHAR
STARTCHAR twodotenleader
ENCODING 8229
SWIDTH 628 0
DWIDTH 19 0
BBX 16 5 1 0
BITMAP
781E
7C3E
FC3F
FC3E
783E
ENDCHAR
STARTCHAR ellipsis
ENCODING 8230
SWIDTH 950 0
DWIDTH 29 0
BBX 25 5 1 0
BITMAP
781E0F80
7C3F0F80
FC3F1F80
FC3F1F80
783E0F00
ENDCHAR
STARTCHAR perthousand
ENCODING 8240
SWIDTH 1252 0
DWIDTH 38 0
BBX 35 20 2 -1
BITMAP
0F80300000
1DC0600000
39C0C00000
79C1C00000
71C1800000
71C3000000
F1C6000000
F3CE7C0F80
F3DCEE1DC0
7399CE39C0
7733CE79E0
3E738E71E0
00E78E71C0
00C78EF1C0
01879EF1C0
03871EF3C0
07071C7380
0603B87700
0C01F03E00
0400000000
ENDCHAR
STARTCHAR uni2032
ENCODING 8242
SWIDTH 259 0
DWIDTH 8 0
BBX 6 11 3 11
BITMAP
18
3C
3C
3C
7C
78
70
F0
E0
E0
C0
ENDCHAR
STARTCHAR uni2033
ENCODING 8243
SWIDTH 491 0
DWIDTH 15 0
BBX 13 11 3 11
BITMAP
1830
3C78
3C78
3C78
7CF8
78F0
70E0
F1E0
E1C0
E1C0
C180
ENDCHAR
STARTCHAR guilsinglleft
ENCODING 8249
SWIDTH 393 0
DWIDTH 12 0
BBX 9 13 2 1
BITMAP
0180
0380
0F00
1E00
3C00
F800
F000
F800
7800
3C00
1E00
0E00
0300
ENDCHAR
STARTCHAR guilsinglright
ENCODING 8250
SWIDTH 393 0
DWIDTH 12 0
BBX 10 13 1 1
BITMAP
3000
3800
1E00
0F00
0780
07C0
03C0
0780
0F00
1E00
3800
7000
C000
ENDCHAR
STARTCHAR exclamdbl
ENCODING 8252
SWIDTH 612 0
DWIDTH 18 0
BBX 19 20 1 0
BITMAP
0F83C0
0F87E0
1FCFE0
1F8FE0
1F8FC0
1F8FC0
1F0F80
1F0F80
1E0F00
1C0F00
1C0E00
180E00
180C00
000000
000000
301C00
783E00
FC3E00
FC3E00
783C00
ENDCHAR
STARTCHAR fraction
ENCODING 8260
SWIDTH 140 0
DWIDTH 4 0
BBX 16 20 -5 -1
BITMAP
0003
0006
000E
001C
0018
0030
0070
00E0
00C0
0180
0380
0700
0600
0C00
1C00
3800
3000
6000
C000
4000
ENDCHAR
STARTCHAR uni2047
ENCODING 8263
SWIDTH 926 0
DWIDTH 28 0
BBX 27 20 2 0
BITMAP
0FE03F00
1EF07BC0
3E78F9C0
3C78F1E0
1878E1E0
01F807E0
07F01FC0
0FF07FC0
3FE0FF80
3F80FE00
3E01F800
7801E000
7001C000
20018000
00000000
00000000
F003C000
F803C000
F007C000
F003C000
ENDCHAR
STARTCHAR uni2048
ENCODING 8264
SWIDTH 769 0
DWIDTH 23 0
BBX 22 20 2 0
BITMAP
0FE07C
1EF0FC
3E78FC
3C78FC
1878FC
01F8F8
07F0F8
0FF0F0
3FE0F0
3F80E0
3E00E0
7800C0
7000C0
200000
000000
000180
F003C0
F807E0
F007C0
F003C0
ENDCHAR
STARTCHAR uni2049
ENCODING 8265
SWIDTH 769 0
DWIDTH 23 0
BBX 23 20 1 0
BITMAP
0F83F8
0F87BC
1FCF8E
1F8F0E
1F871E
1F807E
1F01FE
1F03FC
1E07F8
1C0FE0
1C0F80
180F00
180C00
000800
000000
300000
783C00
FC3E00
FC3E00
783C00
ENDCHAR
STARTCHAR zero.sups
ENCODING 8304
SWIDTH 379 0
DWIDTH 11 0
BBX 11 12 3 12
BITMAP
0F80
1DC0
39C0
79C0
71E0
71C0
F1C0
F1C0
F3C0
7380
7700
3E00
ENDCHAR
STARTCHAR i.sups
ENCODING 8305
SWIDTH 218 0
DWIDTH 7 0
BBX 6 15 3 12
BITMAP
08
1C
1C
00
00
18
F8
38
78
70
70
70
74
F8
70
ENDCHAR
STARTCHAR four.sups
ENCODING 8308
SWIDTH 379 0
DWIDTH 11 0
BBX 10 12 3 12
BITMAP
01C0
03C0
0780
0B80
1380
3780
6780
FFC0
FFC0
FFC0
0F00
0F00
ENDCHAR
STARTCHAR five.sups
ENCODING 8309
SWIDTH 379 0
DWIDTH 11 0
BBX 11 12 3 12
BITMAP
1FE0
1FC0
1FC0
1000
3000
3F80
2780
03C0
63C0
E380
6780
3E00
ENDCHAR
STARTCHAR six.sups
ENCODING 8310
SWIDTH 378 0
DWIDTH 11 0
BBX 11 12 3 12
BITMAP
01E0
0780
1E00
3C00
7800
7F80
73C0
F1C0
F1C0
71C0
7380
3F00
ENDCHAR
STARTCHAR seven.sups
ENCODING 8311
SWIDTH 379 0
DWIDTH 11 0
BBX 11 12 3 12
BITMAP
3FE0
3FE0
7FC0
00C0
0180
0300
0700
0E00
1C00
3C00
7800
F000
ENDCHAR
STARTCHAR eight.sups
ENCODING 8312
SWIDTH 379 0
DWIDTH 11 0
BBX 9 12 4 12
BITMAP
1F00
3180
7180
7980
7F00
3E00
1F00
6F80
C780
C380
E700
7E00
ENDCHAR
STARTCHAR nine.sups
ENCODING 8313
SWIDTH 379 0
DWIDTH 11 0
BBX 9 12 4 12
BITMAP
3F00
7380
E380
E380
E380
E380
FF80
7700
0F00
1C00
7800
E000
ENDCHAR
STARTCHAR parenleft.sups
ENCODING 8317
SWIDTH 359 0
DWIDTH 11 0
BBX 7 17 6 9
BITMAP
02
06
1C
18
38
70
70
60
E0
E0
E0
E0
E0
60
70
30
18
ENDCHAR
STARTCHAR parenright.sups
ENCODING 8318
SWIDTH 359 0
DWIDTH 11 0
BBX 7 17 3 9
BITMAP
08
18
1C
0C
0E
0E
0E
0E
0E
0E
0E
1C
1C
38
30
E0
40
ENDCHAR
STARTCHAR n.sups
ENCODING 8319
SWIDTH 401 0
DWIDTH 12 0
BBX 11 10 3 12
BITMAP
19C0
FBC0
3DC0
79C0
71C0
71C0
7380
73A0
E3E0
E3C0
ENDCHAR
STARTCHAR zero.subs
ENCODING 8320
SWIDTH 379 0
DWIDTH 11 0
BBX 10 12 0 -6
BITMAP
1F00
3B80
7380
F3C0
E3C0
E3C0
E380
E380
E780
E700
EE00
7C00
ENDCHAR
STARTCHAR one.subs
ENCODING 8321
SWIDTH 379 0
DWIDTH 11 0
BBX 8 12 0 -6
BITMAP
07
3F
0F
0E
1E
1E
1E
1E
1C
3C
3E
FF
ENDCHAR
STARTCHAR two.subs
ENCODING 8322
SWIDTH 379 0
DWIDTH 11 0
BBX 10 12 -1 -6
BITMAP
0F80
3BC0
39C0
7BC0
3380
0780
0E00
1C00
3000
7F80
FF80
FF80
ENDCHAR
STARTCHAR three.subs
ENCODING 8323
SWIDTH 379 0
DWIDTH 11 0
BBX 10 12 -1 -6
BITMAP
1F80
3BC0
39C0
11C0
0380
0F00
0F80
03C0
63C0
E3C0
6780
3F00
ENDCHAR
STARTCHAR four.subs
ENCODING 8324
SWIDTH 379 0
DWIDTH 11 0
BBX 10 12 -1 -6
BITMAP
01C0
03C0
07C0
0F80
1B80
3380
6780
FFC0
FFC0
FFC0
0700
0F00
ENDCHAR
STARTCHAR five.subs
ENCODING 8325
SWIDTH 379 0
DWIDTH 11 0
BBX 10 12 0 -6
BITMAP
1FC0
3FC0
3F80
2000
6000
7F00
4F80
0780
C780
C780
CF00
7C00
ENDCHAR
STARTCHAR six.subs
ENCODING 8326
SWIDTH 379 0
DWIDTH 11 0
BBX 10 12 0 -6
BITMAP
03C0
0F00
3C00
7800
7000
FF80
E780
E380
E380
E380
E700
7E00
ENDCHAR
STARTCHAR seven.subs
ENCODING 8327
SWIDTH 379 0
DWIDTH 11 0
BBX 11 12 -1 -6
BITMAP
3FE0
3FE0
7FE0
00C0
0180
0300
0700
0E00
1C00
3C00
7800
F000
ENDCHAR
STARTCHAR eight.subs
ENCODING 8328
SWIDTH 379 0
DWIDTH 11 0
BBX 10 12 0 -6
BITMAP
1F00
3980
71C0
7980
7F00
3E00
1F00
6F80
E780
C380
E700
7E00
ENDCHAR
STARTCHAR nine.subs
ENCODING 8329
SWIDTH 379 0
DWIDTH 11 0
BBX 10 12 0 -6
BITMAP
1F00
7380
F380
E3C0
E3C0
E380
FF80
7700
0F00
1E00
3800
E000
ENDCHAR
STARTCHAR parenleft.subs
ENCODING 8333
SWIDTH 359 0
DWIDTH 11 0
BBX 7 17 2 -9
BITMAP
02
06
0C
18
38
70
70
70
E0
E0
E0
E0
60
70
70
38
10
ENDCHAR
STARTCHAR parenright.subs
ENCODING 8334
SWIDTH 359 0
DWIDTH 11 0
BBX 7 17 -1 -9
BITMAP
08
18
0C
0E
0E
0E
0E
0E
0E
0E
0E
0C
1C
18
38
F0
40
ENDCHAR
STARTCHAR colonmonetary
ENCODING 8353
SWIDTH 560 0
DWIDTH 17 0
BBX 15 25 2 -3
BITMAP
0036
0024
006C
01F8
07EC
0FDE
1EDE
3E9E
3DBE
7DB0
7D20
7B60
FB60
FA40
FEC0
FEC0
FC80
FCB8
7DF8
7D78
3F70
1FE0
1300
1200
3600
ENDCHAR
STARTCHAR lira
ENCODING 8356
SWIDTH 560 0
DWIDTH 17 0
BBX 15 19 1 0
BITMAP
03F8
0FFE
1F9E
1F1E
1F1E
1F0E
1F00
3FF8
3FF8
0F80
0780
7FF0
7FF0
1C00
3800
FFFC
FFFC
FFF8
FFF8
ENDCHAR
STARTCHAR uni20A6
ENCODING 8358
SWIDTH 560 0
DWIDTH 17 0
BBX 19 19 0 0
BITMAP
1FE7E0
1FEFC0
07E300
07E300
0DE300
0DE300
0DE200
3FFF80
3FFF80
09E600
7FFF80
7FFF00
19F400
19FC00
11FC00
31FC00
31F800
FCF800
FCF800
ENDCHAR
STARTCHAR peseta
ENCODING 8359
SWIDTH 560 0
DWIDTH 17 0
BBX 19 19 0 0
BITMAP
0FFC00
1FFF00
07EF80
07E780
07C780
3FFFE0
3FFFE0
0FC780
0FCF80
0F9F00
0FFE00
0FF800
1F8000
1F8000
1F0000
1F0000
1F0000
FFC000
FFC000
ENDCHAR
STARTCHAR uni20A9
ENCODING 8361
SWIDTH 560 0
DWIDTH 17 0
BBX 19 19 1 0
BITMAP
7F83E0
7F03C0
3E0100
3E7100
3E7300
3CF200
3CF200
7FFF00
7FFF00
BDF400
3FFC00
3FF800
3EF800
3EF800
3CF000
3CF000
3CE000
38E000
38E000
ENDCHAR
STARTCHAR dong
ENCODING 8363
SWIDTH 560 0
DWIDTH 17 0
BBX 18 20 0 0
BITMAP
000F00
003F00
000F00
03FFC0
03FFC0
001E00
00FE00
03FE00
073C00
0E3C00
1E3C00
1C3C00
1C3C00
3C7800
3E7B00
3FFE00
1F7C00
0C1000
7FFE00
FFFE00
ENDCHAR
STARTCHAR Euro
ENCODING 8364
SWIDTH 560 0
DWIDTH 17 0
BBX 17 20 0 -1
BITMAP
007E00
01FB00
03C380
07C380
0F8380
0F0380
3FF800
7FF800
1F0000
1E0000
7FF800
FFF000
1E0000
1E0000
1E0E00
1E1E00
1F1E00
0F9C00
07F800
004000
ENDCHAR
STARTCHAR uni20AE
ENCODING 8366
SWIDTH 560 0
DWIDTH 17 0
BBX 17 19 2 0
BITMAP
7FFF80
7FFF80
73E700
73E700
63E700
87E000
07D800
07F800
07E000
1FC000
3FD000
4FF000
0FC000
3F8000
7F8000
5F8000
1F0000
7FE000
FFC000
ENDCHAR
STARTCHAR uni20B1
ENCODING 8369
SWIDTH 560 0
DWIDTH 17 0
BBX 19 19 0 0
BITMAP
0FFC00
1FFF00
07EF80
07C780
3FFFE0
3FC7E0
07C780
3FFFE0
7FFFC0
0F8F00
0FFE00
0FF800
1F8000
1F0000
1F0000
1F0000
1F0000
FFC000
FFC000
ENDCHAR
STARTCHAR uni20B2
ENCODING 8370
SWIDTH 560 0
DWIDTH 17 0
BBX 16 25 1 -3
BITMAP
0018
0018
0030
01FE
07EF
0F0F
1F06
3E06
3C06
7C00
7C00
7C00
78FF
79FF
F83C
F83C
783C
787C
7878
7C78
3E78
1FF0
0380
0300
0300
ENDCHAR
STARTCHAR uni20B4
ENCODING 8372
SWIDTH 560 0
DWIDTH 17 0
BBX 15 19 2 0
BITMAP
07F0
0EFC
1E7C
3C3C
3C3C
007C
00FC
7FFE
03F0
07E0
0FC0
FFFC
FFFC
7C00
7C38
7C78
7C78
7EF0
3FE0
ENDCHAR
STARTCHAR uni20B5
ENCODING 8373
SWIDTH 560 0
DWIDTH 17 0
BBX 15 25 2 -3
BITMAP
0030
0030
0060
01F8
07EC
0F6E
1E6E
3EEE
3CCE
7CC0
7CC0
78C0
F9C0
F980
F980
F980
F980
FBB8
7B78
7F78
3F70
1FE0
0700
0600
0600
ENDCHAR
STARTCHAR uni20B8
ENCODING 8376
SWIDTH 560 0
DWIDTH 17 0
BBX 17 19 2 0
BITMAP
3FFF80
7FFF00
000000
000000
7FFF00
E3E700
E7E700
E7C600
C7CE00
07C000
07C000
0FC000
0F8000
0F8000
0F8000
0F8000
1F8000
7FE000
7FE000
ENDCHAR
STARTCHAR uni20B9
ENCODING 8377
SWIDTH 560 0
DWIDTH 17 0
BBX 14 19 3 0
BITMAP
3FFC
3FF8
07C0
03C0
03C0
7FF8
03C0
07C0
0780
1F00
FC00
7E00
1F00
1F00
0F00
0F80
0F80
0FE0
07E0
ENDCHAR
STARTCHAR uni20BA
ENCODING 8378
SWIDTH 560 0
DWIDTH 17 0
BBX 17 19 0 0
BITMAP
0FFC00
1FFC00
03E000
03E200
07EC00
07FC00
07F000
07C400
1FC800
3FB800
4FF300
0F8780
1F8780
7F8780
5F0700
9F0700
1F0E00
1F3C00
3FF000
ENDCHAR
STARTCHAR uni20BD
ENCODING 8381
SWIDTH 560 0
DWIDTH 17 0
BBX 18 19 0 0
BITMAP
0FFC00
0FFF00
07EF80
07E780
07C7C0
07C7C0
07C780
0FC780
0FCF80
0FFF00
3FFC00
0F8000
1F8000
7FF800
7FF800
1F0000
1F0000
7FC000
FFC000
ENDCHAR
STARTCHAR uni20BF
ENCODING 8383
SWIDTH 560 0
DWIDTH 17 0
BBX 17 25 0 -3
BITMAP
00CC00
00CC00
00D800
0FF800
1FFE00
07DF00
07CF80
07CF80
0F8F80
0F8F00
0F9F00
0FFC00
0FFC00
1F1E00
1F0F00
1F0F00
1F0F80
1E0F00
3E1F00
3E3F00
FFFE00
FFF000
0CC000
0CC000
0DC000
ENDCHAR
STARTCHAR uni2113
ENCODING 8467
SWIDTH 517 0
DWIDTH 16 0
BBX 16 22 1 0
BITMAP
007C
00FE
03CE
038F
078F
0F0F
0F0E
1F1E
1F1E
3E1C
3E3C
3E38
3E70
3EE0
3FC0
3F80
3F00
3E00
3F04
3F9C
FFF8
47F0
ENDCHAR
STARTCHAR uni2116
ENCODING 8470
SWIDTH 992 0
DWIDTH 30 0
BBX 31 21 -1 -1
BITMAP
00000F00
07E01F00
07F01F00
01F03F00
01F83000
01F8307C
01F820CE
017C61CE
037C638E
037E638E
033E638E
023F438E
021F439C
021F4398
060FC0F0
060FC000
360FC000
7C078FFC
FC078FFC
F8038FF8
70000000
ENDCHAR
STARTCHAR uni2117
ENCODING 8471
SWIDTH 760 0
DWIDTH 23 0
BBX 21 21 2 -1
BITMAP
01FE00
07FF80
0E01C0
1C00E0
31FC60
73FE30
61E730
61E730
C1E710
C1EF18
C1DE30
C1F830
C3C030
C3C030
E3C060
67E0E0
7801C0
380380
1E0F00
07FC00
00C000
ENDCHAR
STARTCHAR uni2120
ENCODING 8480
SWIDTH 732 0
DWIDTH 22 0
BBX 21 10 2 10
BITMAP
1E3878
733C70
733CF0
783DF0
7E3DF0
3E3FF0
0E4EE0
CE4CE0
CFEDF0
380000
ENDCHAR
STARTCHAR trademark
ENCODING 8482
SWIDTH 799 0
DWIDTH 24 0
BBX 22 9 3 11
BITMAP
7FDC3C
DC9E38
DD9E78
1C1EF8
1C1EF8
1C1FF8
3C2770
382670
7CF6F8
ENDCHAR
STARTCHAR Omega
ENCODING 8486
SWIDTH 717 0
DWIDTH 22 0
BBX 20 20 1 0
BITMAP
00FE00
03FF80
07C3C0
0F83E0
1F03E0
3F03F0
3E03F0
3E03F0
3E03F0
3E03F0
3E03E0
3E07E0
3E07C0
1F0F80
CF0F70
C79E60
E39860
FF9FE0
FF1FE0
FF1FE0
ENDCHAR
STARTCHAR estimated
ENCODING 8494
SWIDTH 800 0
DWIDTH 24 0
BBX 22 20 1 0
BITMAP
00FC00
030300
0C00C0
180060
300030
300030
700038
700038
700038
F0003C
FFFFFC
F00000
700000
700000
700000
300000
100020
080040
060180
01FE00
ENDCHAR
STARTCHAR onethird
ENCODING 8531
SWIDTH 870 0
DWIDTH 26 0
BBX 22 20 3 -1
BITMAP
070060
3F00C0
0F0180
1E0380
1E0300
1E0600
1E0C00
1E1DF8
3C3BBC
3C333C
3C623C
FFE038
01C1F0
0181F0
030078
070E78
0E0E78
0C06F8
1807E0
080000
ENDCHAR
STARTCHAR twothirds
ENCODING 8532
SWIDTH 870 0
DWIDTH 26 0
BBX 23 20 2 -1
BITMAP
0F8030
338060
33C0C0
73C1C0
338180
070300
0E0600
1C0EFC
301DDE
7F999E
FFB11E
FFF01C
00E0F8
00C0F8
01803C
03873C
07073C
06037C
0C03F0
040000
ENDCHAR
STARTCHAR oneeighth
ENCODING 8539
SWIDTH 870 0
DWIDTH 26 0
BBX 22 20 3 -1
BITMAP
070060
3F00C0
0F0180
1E0380
1E0300
1E0600
1E0C00
1E1CF8
3C3B8C
3C338C
3C63CC
FFE3F8
01C1F0
0180F8
03037C
07063C
0E063C
0C0738
1803F0
080000
ENDCHAR
STARTCHAR threeeighths
ENCODING 8540
SWIDTH 870 0
DWIDTH 26 0
BBX 23 20 2 -1
BITMAP
1F8030
3BC060
31C0C0
31C1C0
038180
0F0300
1F0600
078E7C
63DDC6
E799C6
6FB1E6
7E71FC
00E0F8
00C07C
0181BE
03831E
07031E
06039C
0C01F8
040000
ENDCHAR
STARTCHAR fiveeighths
ENCODING 8541
SWIDTH 870 0
DWIDTH 26 0
BBX 23 20 2 -1
BITMAP
1FE030
1FC060
1FC0C0
1001C0
300180
3F8300
278600
03CE7C
63DDC6
E399C6
67B1E6
3E71FC
00E0F8
00C07C
0181BE
03831E
07031E
06039C
0C01F8
040000
ENDCHAR
STARTCHAR seveneighths
ENCODING 8542
SWIDTH 870 0
DWIDTH 26 0
BBX 23 20 2 -1
BITMAP
3FE060
3FE0C0
7FC1C0
00C380
018300
030600
070E00
0E1C7C
1C19C6
3C31C6
7861E6
F0E1FC
00C0F8
01807C
0301BE
07031E
0E031E
0C039C
1801F8
080000
ENDCHAR
STARTCHAR uni2190
ENCODING 8592
SWIDTH 660 0
DWIDTH 20 0
BBX 20 19 0 -1
BITMAP
006000
00E000
01C000
038000
070000
1E0000
3C0000
780000
FFFFF0
FFFFF0
F7FFF0
780000
3C0000
0E0000
070000
038000
01C000
00E000
006000
ENDCHAR
STARTCHAR arrowup
ENCODING 8593
SWIDTH 660 0
DWIDTH 20 0
BBX 20 19 0 -1
BITMAP
00F000
01F800
03F800
07FC00
077E00
0E6700
1C6380
3861C0
7060E0
E0E070
40E020
00E000
00F000
00F000
00F000
00F000
00F000
00F000
00F000
ENDCHAR
STARTCHAR uni2192
ENCODING 8594
SWIDTH 660 0
DWIDTH 20 0
BBX 20 19 0 -1
BITMAP
006000
007000
003800
001C00
000E00
000700
0003C0
0001E0
FFFFF0
FFFFF0
FFFFF0
0003E0
000380
000700
000E00
001C00
003800
007000
006000
ENDCHAR
STARTCHAR arrowdown
ENCODING 8595
SWIDTH 660 0
DWIDTH 20 0
BBX 20 19 0 -1
BITMAP
00F000
00F000
00F000
00F000
00F000
00F000
00F000
00E000
40E020
E0E070
7060E0
3861C0
1C6380
0E6F00
077E00
03FC00
03F800
01F000
00F000
ENDCHAR
STARTCHAR uni2196
ENCODING 8598
SWIDTH 660 0
DWIDTH 20 0
BBX 16 16 2 0
BITMAP
7FF0
FFFE
FFF8
F800
EE00
6F00
6780
63C0
61E0
60F8
607C
607E
603F
601E
000C
0004
ENDCHAR
STARTCHAR uni2197
ENCODING 8599
SWIDTH 660 0
DWIDTH 20 0
BBX 16 16 2 0
BITMAP
0FFE
7FFF
1FFE
003E
007E
00E6
01E6
03C6
0F86
1F06
3E06
7C06
F806
F006
6000
2000
ENDCHAR
STARTCHAR uni2198
ENCODING 8600
SWIDTH 660 0
DWIDTH 20 0
BBX 16 16 2 1
BITMAP
2000
7006
F806
FC06
7C06
3E06
1F06
0786
03C6
01E6
00E6
007E
003E
7FFE
7FFF
07FC
ENDCHAR
STARTCHAR uni2199
ENCODING 8601
SWIDTH 660 0
DWIDTH 20 0
BBX 16 16 2 1
BITMAP
0004
600E
601F
603E
607C
6078
60F0
61E0
63C0
6780
6F00
FE00
F800
FFFE
FFFE
7FE0
ENDCHAR
STARTCHAR partialdiff
ENCODING 8706
SWIDTH 576 0
DWIDTH 17 0
BBX 16 19 1 0
BITMAP
0FF0
1FF8
107C
003E
003E
003F
001F
0FFF
1F9F
3E3F
7E3F
7C3E
FC3E
FC3E
FC3C
7C7C
7C78
3CF0
1FC0
ENDCHAR
STARTCHAR Delta
ENCODING 8710
SWIDTH 601 0
DWIDTH 18 0
BBX 17 20 0 0
BITMAP
003800
007800
00F800
00FC00
01FC00
017C00
037C00
027E00
063E00
0C3E00
0C3E00
183E00
183F00
301F00
301F00
601F00
401F80
FFFF80
FFFF80
FFFF00
ENDCHAR
STARTCHAR product
ENCODING 8719
SWIDTH 772 0
DWIDTH 23 0
BBX 21 24 2 -4
BITMAP
FFFFF8
FFFFF8
3F07E0
3F07E0
1F07E0
1F07E0
1F07E0
1F07E0
1F07E0
1F07E0
1F07E0
1F07E0
1F07E0
1F07E0
1F07E0
1F07E0
1F07E0
1F07E0
1F07E0
1F07E0
3F07E0
3F07E0
FFDFF8
FFDFF8
ENDCHAR
STARTCHAR summation
ENCODING 8721
SWIDTH 621 0
DWIDTH 19 0
BBX 16 24 2 -4
BITMAP
FFFE
FFFE
FC0E
7E07
7E07
3F07
3F00
1F80
1F80
0FC0
07C0
07C0
0380
0700
0E00
0E00
1C07
3807
7007
7007
FFFF
FFFF
FFFF
FFFF
ENDCHAR
STARTCHAR minus
ENCODING 8722
SWIDTH 550 0
DWIDTH 17 0
BBX 14 3 2 8
BITMAP
FFFC
FFFC
FFFC
ENDCHAR
STARTCHAR uni2215
ENCODING 8725
SWIDTH 425 0
DWIDTH 13 0
BBX 16 20 -1 -1
BITMAP
0003
0007
0006
000C
0018
0038
0070
0060
00C0
01C0
0380
0300
0600
0E00
1C00
1800
3000
6000
E000
4000
ENDCHAR
STARTCHAR uni2219
ENCODING 8729
SWIDTH 310 0
DWIDTH 9 0
BBX 6 5 3 8
BITMAP
78
FC
FC
F8
F8
ENDCHAR
STARTCHAR radical
ENCODING 8730
SWIDTH 580 0
DWIDTH 17 0
BBX 18 26 2 -3
BITMAP
0003C0
0003C0
000380
000380
000780
000700
000700
000F00
000E00
000E00
000E00
001C00
FE1C00
FE1C00
FE3800
0E3800
0E3800
0F3000
0F7000
0F7000
076000
07E000
07E000
07C000
03C000
03C000
ENDCHAR
STARTCHAR infinity
ENCODING 8734
SWIDTH 812 0
DWIDTH 24 0
BBX 20 11 3 4
BITMAP
3F87E0
7FCFE0
FFFFF0
FFF830
C3F030
C1F830
C0FC30
C1FFF0
FFFFF0
7F3FE0
3E0FC0
ENDCHAR
STARTCHAR integral
ENCODING 8747
SWIDTH 425 0
DWIDTH 13 0
BBX 19 30 -3 -7
BITMAP
000380
000FC0
001DE0
0039E0
0078C0
007800
007000
00F000
00F000
00F000
00F000
01F000
01F000
01F000
01F000
01F000
01F000
01F000
01F000
01E000
01E000
01E000
01E000
01E000
03C000
63C000
F38000
F70000
7E0000
3C0000
ENDCHAR
STARTCHAR approxequal
ENCODING 8776
SWIDTH 550 0
DWIDTH 17 0
BBX 14 13 2 3
BITMAP
3E1C
7F1C
7FBC
E3F8
E1F8
0060
0000
3E1C
7F1C
7FBC
E3F8
E1F8
0060
ENDCHAR
STARTCHAR notequal
ENCODING 8800
SWIDTH 550 0
DWIDTH 17 0
BBX 14 18 2 1
BITMAP
0020
0030
0030
0060
00E0
FFFC
FFFC
FFFC
0300
0300
0600
FFFC
FFFC
FFFC
1800
3000
3000
6000
ENDCHAR
STARTCHAR lessequal
ENCODING 8804
SWIDTH 550 0
DWIDTH 17 0
BBX 13 17 2 0
BITMAP
0010
0078
01F8
07E0
3F80
FE00
F000
FC00
3F80
0FE0
03F8
0078
0010
0000
FFF8
FFF8
FFF8
ENDCHAR
STARTCHAR greaterequal
ENCODING 8805
SWIDTH 550 0
DWIDTH 17 0
BBX 14 17 2 0
BITMAP
4000
7800
FE00
3F80
0FE0
01F8
0078
01F8
07F0
1F80
FE00
7800
6000
0000
FFFC
FFFC
FFFC
ENDCHAR
STARTCHAR uni25A0
ENCODING 9632
SWIDTH 720 0
DWIDTH 22 0
BBX 18 18 2 0
BITMAP
FFFFC0
FFFFC0
FFFFC0
FFFFC0
FFFFC0
FFFFC0
FFFFC0
FFFFC0
FFFFC0
FFFFC0
FFFFC0
FFFFC0
FFFFC0
FFFFC0
FFFFC0
FFFFC0
FFFFC0
FFFFC0
ENDCHAR
STARTCHAR triagup
ENCODING 9650
SWIDTH 620 0
DWIDTH 19 0
BBX 18 16 0 0
BITMAP
00C000
00E000
01E000
01F000
03F800
07F800
07FC00
0FFC00
0FFE00
1FFF00
3FFF00
3FFF80
7FFF80
7FFFC0
FFFFC0
7FFFC0
ENDCHAR
STARTCHAR uni25B3
ENCODING 9651
SWIDTH 620 0
DWIDTH 19 0
BBX 18 16 0 0
BITMAP
00C000
00E000
01E000
01F000
03F800
07B800
073C00
0F1C00
0E0E00
1E0F00
3C0700
380780
780380
7FFFC0
FFFFC0
7FFFC0
ENDCHAR
STARTCHAR uni25B6
ENCODING 9654
SWIDTH 620 0
DWIDTH 19 0
BBX 16 18 2 -1
BITMAP
C000
F000
FC00
FF00
FF80
FFE0
FFF8
FFFE
FFFF
FFFF
FFFC
FFF8
FFE0
FF80
FE00
FC00
F000
C000
ENDCHAR
STARTCHAR uni25B7
ENCODING 9655
SWIDTH 620 0
DWIDTH 19 0
BBX 16 18 2 -1
BITMAP
C000
F000
FC00
FF00
FF80
E7E0
E1F8
E07E
E03F
E03F
E0FC
E1F8
E7E0
FF80
FE00
FC00
F000
C000
ENDCHAR
STARTCHAR triagdn
ENCODING 9660
SWIDTH 620 0
DWIDTH 19 0
BBX 18 16 0 0
BITMAP
7FFFC0
FFFFC0
7FFFC0
7FFF80
3FFF80
1FFF00
1FFE00
0FFE00
0FFC00
07FC00
07F800
03F800
01F000
01E000
00E000
00C000
ENDCHAR
STARTCHAR uni25BD
ENCODING 9661
SWIDTH 620 0
DWIDTH 19 0
BBX 18 16 0 0
BITMAP
7FFFC0
FFFFC0
7FFFC0
780380
3C0780
1C0F00
1E0E00
0E1E00
0F1C00
073C00
07B800
03F800
01F000
01E000
00E000
00C000
ENDCHAR
STARTCHAR uni25C0
ENCODING 9664
SWIDTH 620 0
DWIDTH 19 0
BBX 16 18 1 -1
BITMAP
0006
000F
003F
00FF
03FF
07FF
1FFF
7FFF
FFFF
FFFF
7FFF
1FFF
07FF
03FF
00FF
003F
000F
0006
ENDCHAR
STARTCHAR uni25C1
ENCODING 9665
SWIDTH 620 0
DWIDTH 19 0
BBX 16 18 1 -1
BITMAP
0006
000F
003F
00FF
03F7
07E7
1F87
7E07
F807
F807
7E07
1F87
07E7
03F7
00FF
003F
000F
0006
ENDCHAR
STARTCHAR uni25C6
ENCODING 9670
SWIDTH 748 0
DWIDTH 22 0
BBX 21 22 1 -2
BITMAP
002000
006000
00F000
01F800
03FC00
07FE00
0FFF00
1FFF80
3FFFC0
7FFFE0
FFFFF0
FFFFF8
7FFFE0
3FFFC0
1FFF80
0FFF00
07FE00
03FC00
01F800
00F000
006000
002000
ENDCHAR
STARTCHAR uni25C9
ENCODING 9673
SWIDTH 475 0
DWIDTH 14 0
BBX 13 13 2 3
BITMAP
1F80
30E0
6020
CF30
DF90
9FD0
9FD8
9FD0
DF90
CF30
6060
38C0
0F80
ENDCHAR
STARTCHAR lozenge
ENCODING 9674
SWIDTH 620 0
DWIDTH 19 0
BBX 18 24 0 -2
BITMAP
00C000
00E000
01F000
03F000
07F800
07BC00
0F1C00
1E1E00
1E0F00
3C0780
780780
7803C0
F003C0
7803C0
3C0780
3C0F00
1E0E00
0F1E00
073C00
07B800
03F800
01F000
01E000
00E000
ENDCHAR
STARTCHAR uni2610
ENCODING 9744
SWIDTH 800 0
DWIDTH 24 0
BBX 20 20 2 -1
BITMAP
FFFFF0
FFFFF0
FFFFF0
E00070
E00070
E00070
E00070
E00070
E00070
E00070
E00070
E00070
E00070
E00070
E00070
E00070
E00070
FFFFF0
FFFFF0
FFFFF0
ENDCHAR
STARTCHAR uni2611
ENCODING 9745
SWIDTH 800 0
DWIDTH 24 0
BBX 20 28 2 -1
BITMAP
000070
000070
0000F0
0000E0
0000E0
0001C0
0001C0
000380
FFFFF0
FFFFF0
FFFFF0
E00770
E60E70
FF0E70
EF0E70
EF9C70
E79C70
E3DC70
E3D870
E1F870
E1F870
E0F070
E0F070
E07070
E00070
FFFFF0
FFFFF0
FFFFF0
ENDCHAR
STARTCHAR musicalnote
ENCODING 9834
SWIDTH 570 0
DWIDTH 17 0
BBX 16 22 1 0
BITMAP
0180
01C0
01C0
01E0
01F0
01F8
01FC
01FE
01BE
019F
018F
0187
0186
0186
0186
0180
7F80
FF80
FF80
FF80
FF00
7E00
ENDCHAR
STARTCHAR uni2713
ENCODING 10003
SWIDTH 660 0
DWIDTH 20 0
BBX 17 24 2 0
BITMAP
000300
000780
000700
000E00
000E00
000E00
001C00
001C00
003800
003800
003000
007000
207000
70E000
F8E000
78E000
7CC000
3DC000
1FC000
1F8000
0F8000
0F8000
078000
070000
ENDCHAR
STARTCHAR uni2752
ENCODING 10066
SWIDTH 1000 0
DWIDTH 30 0
BBX 28 26 1 -3
BITMAP
07FFFFF0
1FFFFFF0
3FFFFFF0
7FFFFFF0
FFFFFFF0
F00003F0
F00003F0
F00003F0
F00003F0
F00003F0
F00003F0
F00003F0
F00003F0
F00003F0
F00003F0
F00003F0
F00003F0
F00003F0
F00003F0
F00003F0
F00003F0
F00003E0
F00003C0
FFFFFFC0
FFFFFF80
FFFFFF00
ENDCHAR
STARTCHAR uni2E3A
ENCODING 11834
SWIDTH 1620 0
DWIDTH 49 0
BBX 46 3 1 6
BITMAP
FFFFFFFFFFFC
FFFFFFFFFFFC
FFFFFFFFFFFC
ENDCHAR
STARTCHAR uni2E3B
ENCODING 11835
SWIDTH 2390 0
DWIDTH 72 0
BBX 70 3 1 6
BITMAP
FFFFFFFFFFFFFFFFFC
FFFFFFFFFFFFFFFFFC
FFFFFFFFFFFFFFFFFC
ENDCHAR
STARTCHAR f_f
ENCODING 64256
SWIDTH 664 0
DWIDTH 20 0
BBX 30 29 -5 -7
BITMAP
0003E1F0
0007F3F8
001EFF7C
001E7F3C
003E1F10
003C1E00
007C3E00
00FFFFE0
01FFFFC0
007C3E00
007C3E00
007C3E00
00F83C00
00F87C00
00F87C00
00F87C00
00F87C00
00F87C00
00F87C00
00F07800
01F0F800
01F0F800
01F0F800
01E0F000
21E0F000
73F9E000
FBFDE000
7FBFC000
3E1F0000
ENDCHAR
STARTCHAR f_i
ENCODING 64257
SWIDTH 627 0
DWIDTH 19 0
BBX 24 29 -5 -7
BITMAP
0001F8
0007BC
000F3E
001E1E
003E04
003C00
007C00
00FFFF
01FFFE
007C3E
007C3E
007C7E
00F87C
00F87C
00F87C
00F87C
00F8FC
00F8F8
00F8F9
00F0FF
01F0FE
01F0FC
01F000
01E000
21E000
73C000
FBC000
7F8000
3E0000
ENDCHAR
STARTCHAR f_l
ENCODING 64258
SWIDTH 635 0
DWIDTH 19 0
BBX 25 29 -5 -7
BITMAP
0003E000
0007F380
001EFF80
001E7F80
003E1F00
003C1F00
007C1F00
00FFDF00
01FFBE00
007C3E00
007C3E00
007C3E00
00F83E00
00F87C00
00F87C00
00F87C00
00F87C00
00F8FC00
00F8F980
00F0FF00
01F0FE00
01F0FC00
01F00000
01E00000
21E00000
73C00000
FBC00000
7F800000
3E000000
ENDCHAR
STARTCHAR f_f_i
ENCODING 64259
SWIDTH 929 0
DWIDTH 28 0
BBX 33 29 -5 -7
BITMAP
0003E0FC00
0007F3FE00
001EF79F00
001E7F0F00
003E1F0200
003C1F0000
007C3E0000
00FFFFFF80
01FFFFFF00
007C3E1F00
007C3E1F00
007C3E3F00
00F83C3E00
00F87C3E00
00F87C3E00
00F87C3E00
00F87C7E00
00F87C7C00
00F87C7C80
00F0787F80
01F0F87F00
01F0F87E00
01F0F80000
01E0F00000
21E0F00000
73F9E00000
FBFDE00000
7FBFC00000
3E1F000000
ENDCHAR
STARTCHAR f_f_l
ENCODING 64260
SWIDTH 937 0
DWIDTH 28 0
BBX 34 29 -5 -7
BITMAP
0003E1F000
0007F3F9C0
001EF77FC0
001E7F3FC0
003E1F0F80
003C1E0F80
007C3E0F80
00FFFFEF80
01FFFFDF80
007C3E1F00
007C3E1F00
007C3E1F00
00F83C1F00
00F87C3E00
00F87C3E00
00F87C3E00
00F87C3E00
00F87C3E00
00F87C7CC0
00F0787F80
01F0F87F00
01F0F87E00
01F0F80000
01E0F00000
21E0F00000
73F9E00000
FBFDE00000
7FBFC00000
3E1F000000
ENDCHAR
STARTCHAR u1F12F
ENCODING 127279
SWIDTH 760 0
DWIDTH 23 0
BBX 21 21 2 -1
BITMAP
01FE00
07FF80
0E01C0
1C00E0
30F860
71BC30
630E30
630F30
C00F30
C00F18
C00F30
C00F30
C00E30
C21E30
E63C60
67F8E0
70C1C0
380380
1E0F00
07FC00
00C000
ENDCHAR
STARTCHAR u1F16A
ENCODING 127338
SWIDTH 731 0
DWIDTH 22 0
BBX 23 10 1 10
BITMAP
1E3C3E
0E38E2
1E79C2
1E79C0
1EBBC0
17FBC0
177BC0
2771C4
76F9EC
800030
ENDCHAR
STARTCHAR u1F16B
ENCODING 127339
SWIDTH 764 0
DWIDTH 23 0
BBX 24 9 1 11
BITMAP
1E3DF8
0E38FE
1E78EE
1E78E7
1EB9E7
17F9E7
1779CF
2771CE
F6FBFC
ENDCHAR
STARTCHAR .notdef
ENCODING -1
SWIDTH 640 0
DWIDTH 19 0
BBX 15 20 2 0
BITMAP
FFFE
FFFE
FFFE
F83E
FC7E
FC7E
EEEE
E7EE
E7CE
E3CE
E38E
E7CE
E7CE
EEEE
EE7E
FC7E
F83E
F83E
FFFE
FFFE
ENDCHAR
STARTCHAR uni00470303
ENCODING -1
SWIDTH 662 0
DWIDTH 20 0
BBX 19 27 1 -1
BITMAP
002080
00F8C0
01FF80
019F80
030F00
000000
00FF00
03FFC0
0FC1C0
1F81C0
1F01C0
3E01C0
7E0000
7E0000
7C0000
FC0000
FC7FE0
FC7FE0
FC0F80
FC1F80
FC1F80
7C1F00
7E1F00
3E1F00
1F9F00
07FE00
00C000
ENDCHAR
STARTCHAR uni00670303
ENCODING -1
SWIDTH 550 0
DWIDTH 17 0
BBX 20 29 -1 -7
BITMAP
00F080
01F980
03FF80
033F00
020E00
000000
0000E0
01F9F0
03BDE0
071FE0
0F1F00
0F1E00
1F1E00
1F1E00
0F1C00
0F1C00
07F800
0D8000
1C0000
3FF000
3FFE00
3FFF00
1FFF00
307F00
700F00
F00E00
F81E00
7FF800
3FC000
ENDCHAR
STARTCHAR idieresis.narrow
ENCODING -1
SWIDTH 325 0
DWIDTH 10 0
BBX 11 22 2 0
BITMAP
39C0
3DE0
3DE0
39C0
1080
0000
0000
0E00
7E00
FE00
3E00
7E00
7C00
7C00
7C00
7C00
F800
F800
F900
FF00
FE00
FC00
ENDCHAR
STARTCHAR i.trk
ENCODING -1
SWIDTH 325 0
DWIDTH 10 0
BBX 9 23 2 0
BITMAP
0200
0F00
1F80
1F00
0F00
0400
0000
0000
0E00
7E00
FE00
3E00
7E00
7C00
7C00
7C00
7C00
F800
F800
F900
FF00
FE00
FC00
ENDCHAR
STARTCHAR f_b
ENCODING -1
SWIDTH 880 0
DWIDTH 26 0
BBX 32 29 -5 -7
BITMAP
0003E000
0007F380
001EFF80
001E7F80
003E1F00
003C1F00
007C1F00
00FFDF3C
01FFBEFE
007C3FFE
007C3FBF
007C3E3F
00F83E1F
00F87C3E
00F87C3E
00F87C3E
00F87C3C
00F87C78
00F87878
00F07CF0
01F07FC0
01F07F80
01F00000
01E00000
21E00000
73C00000
FBC00000
7F800000
3E000000
ENDCHAR
STARTCHAR f_h
ENCODING -1
SWIDTH 918 0
DWIDTH 28 0
BBX 33 29 -5 -7
BITMAP
0003E00000
0007F38000
001EFF8000
001E7F8000
003E1F0000
003C1F0000
007C1F0000
00FFDF1E00
01FFBE7F00
007C3EFF00
007C3FBF00
007C3E3F00
00F83E3E00
00F87C3E00
00F87C3E00
00F87C7E00
00F87C7C00
00F87C7C00
00F8F87D80
00F0F87F00
01F0F8FE00
01F0F87C00
01F0000000
01E0000000
21E0000000
73C0000000
FBC0000000
7F80000000
3E00000000
ENDCHAR
STARTCHAR f_j
ENCODING -1
SWIDTH 605 0
DWIDTH 18 0
BBX 23 29 -5 -7
BITMAP
0001F8
0007BC
000F3E
001E1E
003E04
003C00
007C00
00FFFE
01FFFE
007C3E
007C3E
007C7E
00F87C
00F87C
00F87C
00F87C
00F87C
00F8F8
00F8F8
00F0F8
01F0F8
01F0F0
01F1F0
01E1F0
21E1E0
73C1E0
FBC3C0
7F8780
3E0E00
ENDCHAR
ENDFONT
